<svg width="1440" height="776" viewBox="0 0 1440 776" fill="none" xmlns="http://www.w3.org/2000/svg">
<g clip-path="url(#clip0_216_2810)">
<path opacity="0.1" fill-rule="evenodd" clip-rule="evenodd" d="M512 -40H1442V585H512V-40ZM513.453 -38.8839H626.797V48.1696H513.453V-38.8839ZM629.703 -38.8839H743.047V48.1696H629.703V-38.8839ZM859.297 -38.8839H745.953V48.1696H859.297V-38.8839ZM862.203 -38.8839H975.547V48.1696H862.203V-38.8839ZM1091.8 -38.8839H978.453V48.1696H1091.8V-38.8839ZM1094.7 -38.8839H1208.05V48.1696H1094.7V-38.8839ZM1324.3 -38.8839H1210.95V48.1696H1324.3V-38.8839ZM1327.2 -38.8839H1440.55V48.1696H1327.2V-38.8839ZM626.797 50.4018H513.453V137.455H626.797V50.4018ZM629.703 50.4018H743.047V137.455H629.703V50.4018ZM859.297 50.4018H745.953V137.455H859.297V50.4018ZM862.203 50.4018H975.547V137.455H862.203V50.4018ZM1091.8 50.4018H978.453V137.455H1091.8V50.4018ZM1094.7 50.4018H1208.05V137.455H1094.7V50.4018ZM1324.3 50.4018H1210.95V137.455H1324.3V50.4018ZM1327.2 50.4018H1440.55V137.455H1327.2V50.4018ZM626.797 139.688H513.453V226.741H626.797V139.688ZM629.703 139.688H743.047V226.741H629.703V139.688ZM859.297 139.688H745.953V226.741H859.297V139.688ZM862.203 139.688H975.547V226.741H862.203V139.688ZM1091.8 139.688H978.453V226.741H1091.8V139.688ZM1094.7 139.688H1208.05V226.741H1094.7V139.688ZM1324.3 139.688H1210.95V226.741H1324.3V139.688ZM1327.2 139.688H1440.55V226.741H1327.2V139.688ZM626.797 228.973H513.453V316.027H626.797V228.973ZM629.703 228.973H743.047V316.027H629.703V228.973ZM859.297 228.973H745.953V316.027H859.297V228.973ZM862.203 228.973H975.547V316.027H862.203V228.973ZM1091.8 228.973H978.453V316.027H1091.8V228.973ZM1094.7 228.973H1208.05V316.027H1094.7V228.973ZM1324.3 228.973H1210.95V316.027H1324.3V228.973ZM1327.2 228.973H1440.55V316.027H1327.2V228.973ZM626.797 318.259H513.453V405.313H626.797V318.259ZM629.703 318.259H743.047V405.313H629.703V318.259ZM859.297 318.259H745.953V405.313H859.297V318.259ZM862.203 318.259H975.547V405.313H862.203V318.259ZM1091.8 318.259H978.453V405.313H1091.8V318.259ZM1094.7 318.259H1208.05V405.313H1094.7V318.259ZM1324.3 318.259H1210.95V405.313H1324.3V318.259ZM1327.2 318.259H1440.55V405.313H1327.2V318.259ZM626.797 407.545H513.453V494.598H626.797V407.545ZM629.703 407.545H743.047V494.598H629.703V407.545ZM859.297 407.545H745.953V494.598H859.297V407.545ZM862.203 407.545H975.547V494.598H862.203V407.545ZM1091.8 407.545H978.453V494.598H1091.8V407.545ZM1094.7 407.545H1208.05V494.598H1094.7V407.545ZM1324.3 407.545H1210.95V494.598H1324.3V407.545ZM1327.2 407.545H1440.55V494.598H1327.2V407.545ZM626.797 496.83H513.453V583.884H626.797V496.83ZM629.703 496.83H743.047V583.884H629.703V496.83ZM859.297 496.83H745.953V583.884H859.297V496.83ZM862.203 496.83H975.547V583.884H862.203V496.83ZM1091.8 496.83H978.453V583.884H1091.8V496.83ZM1094.7 496.83H1208.05V583.884H1094.7V496.83ZM1324.3 496.83H1210.95V583.884H1324.3V496.83ZM1327.2 496.83H1440.55V583.884H1327.2V496.83Z" fill="#D1D5DB" fill-opacity="0.4"/>
<path opacity="0.1" fill-rule="evenodd" clip-rule="evenodd" d="M512 582H1442V1207H512V582ZM513.453 583.116H626.797V670.17H513.453V583.116ZM629.703 583.116H743.047V670.17H629.703V583.116ZM859.297 583.116H745.953V670.17H859.297V583.116ZM862.203 583.116H975.547V670.17H862.203V583.116ZM1091.8 583.116H978.453V670.17H1091.8V583.116ZM1094.7 583.116H1208.05V670.17H1094.7V583.116ZM1324.3 583.116H1210.95V670.17H1324.3V583.116ZM1327.2 583.116H1440.55V670.17H1327.2V583.116ZM626.797 672.402H513.453V759.455H626.797V672.402ZM629.703 672.402H743.047V759.455H629.703V672.402ZM859.297 672.402H745.953V759.455H859.297V672.402ZM862.203 672.402H975.547V759.455H862.203V672.402ZM1091.8 672.402H978.453V759.455H1091.8V672.402ZM1094.7 672.402H1208.05V759.455H1094.7V672.402ZM1324.3 672.402H1210.95V759.455H1324.3V672.402ZM1327.2 672.402H1440.55V759.455H1327.2V672.402ZM626.797 761.688H513.453V848.741H626.797V761.688ZM629.703 761.688H743.047V848.741H629.703V761.688ZM859.297 761.688H745.953V848.741H859.297V761.688ZM862.203 761.688H975.547V848.741H862.203V761.688ZM1091.8 761.688H978.453V848.741H1091.8V761.688ZM1094.7 761.688H1208.05V848.741H1094.7V761.688ZM1324.3 761.688H1210.95V848.741H1324.3V761.688ZM1327.2 761.688H1440.55V848.741H1327.2V761.688ZM626.797 850.973H513.453V938.027H626.797V850.973ZM629.703 850.973H743.047V938.027H629.703V850.973ZM859.297 850.973H745.953V938.027H859.297V850.973ZM862.203 850.973H975.547V938.027H862.203V850.973ZM1091.8 850.973H978.453V938.027H1091.8V850.973ZM1094.7 850.973H1208.05V938.027H1094.7V850.973ZM1324.3 850.973H1210.95V938.027H1324.3V850.973ZM1327.2 850.973H1440.55V938.027H1327.2V850.973ZM626.797 940.259H513.453V1027.31H626.797V940.259ZM629.703 940.259H743.047V1027.31H629.703V940.259ZM859.297 940.259H745.953V1027.31H859.297V940.259ZM862.203 940.259H975.547V1027.31H862.203V940.259ZM1091.8 940.259H978.453V1027.31H1091.8V940.259ZM1094.7 940.259H1208.05V1027.31H1094.7V940.259ZM1324.3 940.259H1210.95V1027.31H1324.3V940.259ZM1327.2 940.259H1440.55V1027.31H1327.2V940.259ZM626.797 1029.54H513.453V1116.6H626.797V1029.54ZM629.703 1029.54H743.047V1116.6H629.703V1029.54ZM859.297 1029.54H745.953V1116.6H859.297V1029.54ZM862.203 1029.54H975.547V1116.6H862.203V1029.54ZM1091.8 1029.54H978.453V1116.6H1091.8V1029.54ZM1094.7 1029.54H1208.05V1116.6H1094.7V1029.54ZM1324.3 1029.54H1210.95V1116.6H1324.3V1029.54ZM1327.2 1029.54H1440.55V1116.6H1327.2V1029.54ZM626.797 1118.83H513.453V1205.88H626.797V1118.83ZM629.703 1118.83H743.047V1205.88H629.703V1118.83ZM859.297 1118.83H745.953V1205.88H859.297V1118.83ZM862.203 1118.83H975.547V1205.88H862.203V1118.83ZM1091.8 1118.83H978.453V1205.88H1091.8V1118.83ZM1094.7 1118.83H1208.05V1205.88H1094.7V1118.83ZM1324.3 1118.83H1210.95V1205.88H1324.3V1118.83ZM1327.2 1118.83H1440.55V1205.88H1327.2V1118.83Z" fill="#D1D5DB" fill-opacity="0.4"/>
</g>
<defs>
<clipPath id="clip0_216_2810">
<rect width="1440" height="776" fill="white"/>
</clipPath>
</defs>
</svg>
