<svg width="20" height="21" viewBox="0 0 20 21" fill="none" xmlns="http://www.w3.org/2000/svg">
<g clip-path="url(#clip0_3164_12132)">
<path d="M10 0.00390625C7.34784 0.00390625 4.8043 1.09065 2.92893 3.02506C1.05357 4.95947 0 7.58309 0 10.3188C0 13.0544 1.05357 15.6781 2.92893 17.6125C4.8043 19.5469 7.34784 20.6336 10 20.6336C12.6522 20.6336 15.1957 19.5469 17.0711 17.6125C18.9464 15.6781 20 13.0544 20 10.3188C20 7.58309 18.9464 4.95947 17.0711 3.02506C15.1957 1.09065 12.6522 0.00390625 10 0.00390625V0.00390625ZM10 18.6996C7.84512 18.6996 5.77849 17.8166 4.25476 16.2449C2.73102 14.6732 1.875 12.5415 1.875 10.3188C1.875 8.09603 2.73102 5.96433 4.25476 4.39263C5.77849 2.82092 7.84512 1.93794 10 1.93794C12.1549 1.93794 14.2215 2.82092 15.7452 4.39263C17.269 5.96433 18.125 8.09603 18.125 10.3188C18.125 12.5415 17.269 14.6732 15.7452 16.2449C14.2215 17.8166 12.1549 18.6996 10 18.6996Z" fill="#13027A"/>
<path d="M13.125 5.16211L10 8.3855L6.875 5.16211L5 7.09614L8.125 10.3195L5 13.5429L6.875 15.477L10 12.2536L13.125 15.477L15 13.5429L11.875 10.3195L15 7.09614L13.125 5.16211Z" fill="#13027A"/>
</g>
<defs>
<clipPath id="clip0_3164_12132">
<rect width="20" height="20.6297" fill="white" transform="translate(0 0.00390625)"/>
</clipPath>
</defs>
</svg>
