<svg width="96" height="97" viewBox="0 0 96 97" fill="none" xmlns="http://www.w3.org/2000/svg">
<circle cx="47.9993" cy="48.7551" r="48" fill="#FFEBD5"/>
<path d="M55.595 49.5082C52.4974 46.1812 49.5528 42.7394 47.0671 38.9153C45.308 36.1619 43.7401 33.0643 41.8662 31.1522C40.1836 29.3931 39.1128 27.5193 38.5775 25.6072C34.8298 26.6779 32.2293 27.5957 28.8641 31.114C5.42199 55.2827 39.3805 92.6064 65.4613 68.0553C67.3734 66.258 66.685 64.0782 67.8323 62.1279C64.1993 57.9213 59.4191 53.6 55.595 49.5082Z" fill="#DE814B"/>
<path d="M65.4623 68.0554C41.2936 87.6733 7.64105 56.5064 28.8651 31.0758C29.2093 30.6934 29.5917 30.2727 29.9741 29.8903C34.8308 25.0718 40.2229 22.8156 45.5002 22.4714C46.0356 22.4332 46.4563 22.8538 46.4945 23.351C46.571 26.4868 48.5978 28.5901 51.5806 29.0107C52.0395 29.0872 52.3072 29.5079 52.1925 29.9668C51.8866 30.961 51.7718 32.0318 51.7718 33.1408C51.8866 38.7623 56.552 43.3896 62.1736 43.4278C63.3208 43.4278 64.4298 43.2748 65.5006 42.9307C65.9212 42.7777 66.3801 43.0454 66.4566 43.5043C67.145 47.252 70.5485 46.5636 72.1546 46.0282C72.6135 45.8753 73.1107 46.143 73.2254 46.6019C76.3612 58.0361 65.4623 68.0554 65.4623 68.0554Z" fill="#F6B059"/>
<path d="M49.0551 43.8866C49.0551 46.7165 46.7606 48.6285 43.9307 48.6285C41.1009 48.6285 38.8064 46.7165 38.8064 43.8866C38.8064 41.0567 41.1009 38.7622 43.9307 38.7622C46.7606 38.7622 49.0551 41.0185 49.0551 43.8866Z" fill="#6D420D"/>
<path d="M65.155 56.2388C65.155 58.4186 63.3959 60.1777 61.2161 60.1777C59.0363 60.1777 57.5449 58.8775 57.5449 56.6977C57.5449 54.518 59.0363 52.2617 61.2161 52.2617C63.3959 52.2617 65.155 54.0591 65.155 56.2388Z" fill="#6D420D"/>
<path d="M35.7101 51.4203C35.7101 53.1029 34.4864 54.0589 32.8038 54.0589C31.1212 54.0589 29.668 53.1029 29.668 51.4203C29.668 49.7376 31.0064 48.3992 32.6891 48.3992C34.3717 48.3992 35.7101 49.7376 35.7101 51.4203Z" fill="#6D420D"/>
<path d="M44.9626 61.6689C44.9626 62.4338 44.3508 63.0456 43.5859 63.0456C42.8211 63.0456 42.2092 62.4338 42.2092 61.6689C42.2092 60.9041 42.8211 60.2922 43.5859 60.2922C44.3508 60.2922 44.9626 60.9041 44.9626 61.6689Z" fill="#6D420D"/>
<path d="M35.632 35.2439C36.4768 35.2439 37.1616 34.559 37.1616 33.7142C37.1616 32.8694 36.4768 32.1846 35.632 32.1846C34.7872 32.1846 34.1023 32.8694 34.1023 33.7142C34.1023 34.559 34.7872 35.2439 35.632 35.2439Z" fill="#6D420D"/>
<path d="M63.2804 24.5363C63.4334 26.3719 61.8273 27.8634 59.6857 27.8634C57.5442 27.8634 55.8998 26.219 56.0145 24.1922C56.1293 22.1654 57.7354 20.6739 59.6092 20.8651C61.4831 21.0564 63.1275 22.6625 63.2804 24.5363Z" fill="#F6B059"/>
<path d="M60.528 27.1366C61.3693 27.1366 62.1341 26.9072 62.746 26.4865C62.0959 27.3278 61.0251 27.8632 59.7249 27.8632C57.5834 27.8632 55.939 26.2188 56.0537 24.2303C56.1302 23.0065 56.7421 21.974 57.6216 21.4004C57.201 21.974 56.895 22.7006 56.8568 23.5037C56.7803 25.454 58.4247 27.0984 60.528 27.1366Z" fill="#DE814B"/>
<path d="M63.0895 34.9377C63.013 36.1615 61.9805 37.194 60.795 37.3087C59.6095 37.3852 58.6534 36.3909 58.6917 35.0907C58.6917 33.7905 59.7242 32.7197 60.9862 32.7197C62.2481 32.7197 63.1659 33.714 63.0895 34.9377Z" fill="#F6B059"/>
<path d="M61.2522 36.7734C61.7111 36.7352 62.17 36.544 62.5524 36.2763C62.1317 36.8499 61.4816 37.2323 60.755 37.3088C59.5695 37.3853 58.6517 36.391 58.6517 35.0908C58.6517 34.326 59.0341 33.5994 59.6078 33.1787C59.3401 33.5611 59.1489 34.0583 59.1489 34.5554C59.1106 35.8556 60.0667 36.8499 61.2522 36.7734Z" fill="#DE814B"/>
<path d="M78.7301 35.8941C78.6153 37.3473 77.4299 38.571 76.0149 38.6475C74.6382 38.724 73.5292 37.5768 73.5292 36.0471C73.5675 34.5174 74.7529 33.2937 76.2444 33.2937C77.7358 33.2937 78.8448 34.4792 78.7301 35.8941Z" fill="#F6B059"/>
<path d="M76.5881 38.0741C77.1617 38.0358 77.6971 37.8064 78.1178 37.4622C77.6206 38.1506 76.8558 38.6095 76.0145 38.6477C74.6378 38.7242 73.5288 37.5769 73.5288 36.0473C73.5288 35.1295 73.9877 34.3264 74.6378 33.791C74.2936 34.2499 74.1024 34.8235 74.1024 35.4354C74.1024 37.0033 75.2114 38.1506 76.5881 38.0741Z" fill="#DE814B"/>
</svg>
