<svg width="588" height="536" viewBox="0 0 588 536" fill="none" xmlns="http://www.w3.org/2000/svg">
<g clip-path="url(#clip0_211_2494)">
<rect width="588" height="536" fill="#DFF8EA"/>
<g filter="url(#filter0_d_211_2494)">
<g clip-path="url(#clip1_211_2494)">
<rect x="89" y="111" width="310" height="372" rx="5" fill="white"/>
<path d="M109.994 141V131.2H111.478L116.392 138.578V131.2H117.876V141H116.392L111.478 133.622V141H109.994ZM123.057 141.168C122.376 141.168 121.769 141.019 121.237 140.72C120.714 140.412 120.304 139.987 120.005 139.446C119.706 138.905 119.557 138.275 119.557 137.556C119.557 136.828 119.702 136.189 119.991 135.638C120.29 135.087 120.7 134.658 121.223 134.35C121.755 134.042 122.371 133.888 123.071 133.888C123.752 133.888 124.345 134.042 124.849 134.35C125.353 134.649 125.745 135.05 126.025 135.554C126.305 136.058 126.445 136.613 126.445 137.22C126.445 137.313 126.44 137.416 126.431 137.528C126.431 137.631 126.426 137.747 126.417 137.878H121.013C121.06 138.55 121.279 139.063 121.671 139.418C122.072 139.763 122.534 139.936 123.057 139.936C123.477 139.936 123.827 139.843 124.107 139.656C124.396 139.46 124.611 139.199 124.751 138.872H126.235C126.048 139.525 125.675 140.071 125.115 140.51C124.564 140.949 123.878 141.168 123.057 141.168ZM123.057 135.106C122.562 135.106 122.124 135.255 121.741 135.554C121.358 135.843 121.125 136.282 121.041 136.87H124.961C124.933 136.329 124.742 135.899 124.387 135.582C124.032 135.265 123.589 135.106 123.057 135.106ZM129.097 141L127.053 134.056H128.537L129.881 139.292L131.393 134.056H133.045L134.557 139.292L135.901 134.056H137.385L135.341 141H133.815L132.219 135.54L130.623 141H129.097ZM145.047 141C144.366 141 143.825 140.837 143.423 140.51C143.022 140.174 142.821 139.581 142.821 138.732V135.302H141.631V134.056H142.821L143.003 132.292H144.305V134.056H146.265V135.302H144.305V138.732C144.305 139.115 144.385 139.381 144.543 139.53C144.711 139.67 144.996 139.74 145.397 139.74H146.195V141H145.047ZM148.635 132.74C148.355 132.74 148.122 132.656 147.935 132.488C147.758 132.311 147.669 132.091 147.669 131.83C147.669 131.569 147.758 131.354 147.935 131.186C148.122 131.009 148.355 130.92 148.635 130.92C148.915 130.92 149.144 131.009 149.321 131.186C149.508 131.354 149.601 131.569 149.601 131.83C149.601 132.091 149.508 132.311 149.321 132.488C149.144 132.656 148.915 132.74 148.635 132.74ZM147.893 141V134.056H149.377V141H147.893ZM151.336 141V134.056H152.652L152.778 135.036C153.002 134.681 153.296 134.401 153.66 134.196C154.034 133.991 154.463 133.888 154.948 133.888C156.05 133.888 156.815 134.322 157.244 135.19C157.496 134.789 157.832 134.471 158.252 134.238C158.682 134.005 159.144 133.888 159.638 133.888C160.506 133.888 161.188 134.149 161.682 134.672C162.177 135.195 162.424 135.974 162.424 137.01V141H160.94V137.164C160.94 135.82 160.427 135.148 159.4 135.148C158.878 135.148 158.448 135.344 158.112 135.736C157.786 136.128 157.622 136.688 157.622 137.416V141H156.138V137.164C156.138 135.82 155.62 135.148 154.584 135.148C154.071 135.148 153.646 135.344 153.31 135.736C152.984 136.128 152.82 136.688 152.82 137.416V141H151.336ZM167.409 141.168C166.727 141.168 166.121 141.019 165.589 140.72C165.066 140.412 164.655 139.987 164.357 139.446C164.058 138.905 163.909 138.275 163.909 137.556C163.909 136.828 164.053 136.189 164.343 135.638C164.641 135.087 165.052 134.658 165.575 134.35C166.107 134.042 166.723 133.888 167.423 133.888C168.104 133.888 168.697 134.042 169.201 134.35C169.705 134.649 170.097 135.05 170.377 135.554C170.657 136.058 170.797 136.613 170.797 137.22C170.797 137.313 170.792 137.416 170.783 137.528C170.783 137.631 170.778 137.747 170.769 137.878H165.365C165.411 138.55 165.631 139.063 166.023 139.418C166.424 139.763 166.886 139.936 167.409 139.936C167.829 139.936 168.179 139.843 168.459 139.656C168.748 139.46 168.963 139.199 169.103 138.872H170.587C170.4 139.525 170.027 140.071 169.467 140.51C168.916 140.949 168.23 141.168 167.409 141.168ZM167.409 135.106C166.914 135.106 166.475 135.255 166.093 135.554C165.71 135.843 165.477 136.282 165.393 136.87H169.313C169.285 136.329 169.093 135.899 168.739 135.582C168.384 135.265 167.941 135.106 167.409 135.106ZM179.112 141.168C178.43 141.168 177.824 141.019 177.292 140.72C176.769 140.412 176.358 139.987 176.06 139.446C175.761 138.905 175.612 138.275 175.612 137.556C175.612 136.828 175.756 136.189 176.046 135.638C176.344 135.087 176.755 134.658 177.278 134.35C177.81 134.042 178.426 133.888 179.126 133.888C179.807 133.888 180.4 134.042 180.904 134.35C181.408 134.649 181.8 135.05 182.08 135.554C182.36 136.058 182.5 136.613 182.5 137.22C182.5 137.313 182.495 137.416 182.486 137.528C182.486 137.631 182.481 137.747 182.472 137.878H177.068C177.114 138.55 177.334 139.063 177.726 139.418C178.127 139.763 178.589 139.936 179.112 139.936C179.532 139.936 179.882 139.843 180.162 139.656C180.451 139.46 180.666 139.199 180.806 138.872H182.29C182.103 139.525 181.73 140.071 181.17 140.51C180.619 140.949 179.933 141.168 179.112 141.168ZM179.112 135.106C178.617 135.106 178.178 135.255 177.796 135.554C177.413 135.843 177.18 136.282 177.096 136.87H181.016C180.988 136.329 180.796 135.899 180.442 135.582C180.087 135.265 179.644 135.106 179.112 135.106ZM184.04 141V134.056H185.356L185.468 135.274C185.682 134.845 185.995 134.509 186.406 134.266C186.826 134.014 187.306 133.888 187.848 133.888C188.688 133.888 189.346 134.149 189.822 134.672C190.307 135.195 190.55 135.974 190.55 137.01V141H189.08V137.164C189.08 135.82 188.529 135.148 187.428 135.148C186.877 135.148 186.42 135.344 186.056 135.736C185.701 136.128 185.524 136.688 185.524 137.416V141H184.04ZM195.209 141C194.528 141 193.987 140.837 193.585 140.51C193.184 140.174 192.983 139.581 192.983 138.732V135.302H191.793V134.056H192.983L193.165 132.292H194.467V134.056H196.427V135.302H194.467V138.732C194.467 139.115 194.547 139.381 194.705 139.53C194.873 139.67 195.158 139.74 195.559 139.74H196.357V141H195.209ZM197.958 141V134.056H199.288L199.414 135.372C199.656 134.915 199.992 134.555 200.422 134.294C200.86 134.023 201.388 133.888 202.004 133.888V135.442H201.598C201.187 135.442 200.818 135.512 200.492 135.652C200.174 135.783 199.918 136.011 199.722 136.338C199.535 136.655 199.442 137.099 199.442 137.668V141H197.958ZM204.088 144.08L205.754 140.426H205.348L202.604 134.056H204.214L206.342 139.194L208.568 134.056H210.136L205.656 144.08H204.088Z" fill="#434343"/>
<line x1="106.604" y1="423.5" x2="386.604" y2="423.5" stroke="#E2E8F0"/>
<line x1="106.604" y1="154.5" x2="386.604" y2="154.5" stroke="#E2E8F0"/>
<rect x="261" y="434" width="60" height="24" rx="3" fill="#F7F4F4"/>
<rect x="115" y="171" width="75" height="9" rx="3" fill="#F6F6F6"/>
<rect x="115" y="186" width="264" height="25" rx="3" fill="#EEEEEE"/>
<rect x="115" y="237" width="75" height="9" rx="3" fill="#F6F6F6"/>
<rect x="115" y="252" width="264" height="25" rx="3" fill="#EEEEEE"/>
<rect x="115" y="303" width="75" height="9" rx="3" fill="#F6F6F6"/>
<rect x="115" y="318" width="264" height="25" rx="3" fill="#EEEEEE"/>
<rect x="115" y="369" width="75" height="9" rx="3" fill="#F6F6F6"/>
<rect x="115" y="384" width="264" height="25" rx="3" fill="#EEEEEE"/>
<rect x="326" y="434" width="61" height="24" rx="3" fill="#1E56A0"/>
<path d="M336.789 444.174C336.755 443.871 336.614 443.637 336.367 443.471C336.12 443.303 335.809 443.218 335.434 443.218C335.165 443.218 334.933 443.261 334.737 443.346C334.541 443.429 334.389 443.544 334.28 443.691C334.174 443.836 334.12 444.001 334.12 444.187C334.12 444.342 334.157 444.477 334.229 444.589C334.304 444.702 334.401 444.797 334.52 444.874C334.641 444.949 334.771 445.011 334.91 445.062C335.048 445.112 335.181 445.152 335.309 445.184L335.949 445.35C336.157 445.401 336.371 445.471 336.591 445.558C336.81 445.645 337.014 445.76 337.201 445.903C337.389 446.046 337.54 446.223 337.655 446.434C337.772 446.645 337.831 446.897 337.831 447.191C337.831 447.562 337.735 447.891 337.543 448.179C337.354 448.466 337.078 448.693 336.716 448.859C336.355 449.026 335.92 449.109 335.408 449.109C334.918 449.109 334.494 449.031 334.136 448.875C333.778 448.72 333.498 448.499 333.296 448.214C333.093 447.926 332.982 447.585 332.96 447.191H333.951C333.97 447.428 334.047 447.625 334.181 447.782C334.317 447.938 334.491 448.054 334.702 448.131C334.915 448.205 335.148 448.243 335.402 448.243C335.681 448.243 335.929 448.199 336.147 448.112C336.366 448.022 336.539 447.898 336.664 447.741C336.79 447.581 336.853 447.395 336.853 447.181C336.853 446.988 336.798 446.829 336.687 446.705C336.578 446.582 336.43 446.479 336.243 446.398C336.057 446.317 335.847 446.246 335.613 446.184L334.839 445.973C334.315 445.831 333.9 445.621 333.593 445.344C333.288 445.067 333.136 444.7 333.136 444.244C333.136 443.867 333.238 443.538 333.443 443.257C333.647 442.975 333.924 442.757 334.274 442.602C334.623 442.444 335.017 442.365 335.456 442.365C335.9 442.365 336.29 442.443 336.629 442.598C336.97 442.754 337.239 442.968 337.435 443.241C337.631 443.511 337.733 443.822 337.741 444.174H336.789ZM341.226 444.091V444.858H338.544V444.091H341.226ZM339.264 442.915H340.219V447.559C340.219 447.744 340.247 447.884 340.302 447.977C340.358 448.069 340.429 448.132 340.516 448.166C340.606 448.198 340.703 448.214 340.807 448.214C340.884 448.214 340.951 448.208 341.009 448.198C341.066 448.187 341.111 448.179 341.143 448.172L341.315 448.962C341.26 448.983 341.181 449.004 341.079 449.026C340.977 449.049 340.849 449.062 340.695 449.064C340.444 449.068 340.21 449.023 339.992 448.93C339.775 448.836 339.599 448.691 339.465 448.495C339.331 448.299 339.264 448.053 339.264 447.757V442.915ZM343.712 449.109C343.401 449.109 343.119 449.051 342.868 448.936C342.616 448.819 342.417 448.65 342.27 448.428C342.125 448.206 342.053 447.935 342.053 447.613C342.053 447.336 342.106 447.108 342.213 446.929C342.319 446.75 342.463 446.608 342.644 446.504C342.825 446.4 343.028 446.321 343.251 446.267C343.475 446.214 343.703 446.174 343.935 446.146C344.229 446.112 344.468 446.084 344.651 446.063C344.835 446.039 344.968 446.002 345.051 445.951C345.134 445.9 345.175 445.817 345.175 445.702V445.679C345.175 445.4 345.097 445.184 344.939 445.031C344.783 444.877 344.551 444.8 344.242 444.8C343.92 444.8 343.667 444.872 343.482 445.015C343.298 445.155 343.172 445.312 343.101 445.484L342.203 445.28C342.31 444.982 342.465 444.741 342.67 444.558C342.876 444.372 343.114 444.238 343.382 444.155C343.651 444.07 343.933 444.027 344.229 444.027C344.425 444.027 344.633 444.05 344.853 444.097C345.074 444.142 345.281 444.225 345.473 444.347C345.667 444.468 345.825 444.642 345.949 444.868C346.072 445.091 346.134 445.382 346.134 445.74V449H345.201V448.329H345.163C345.101 448.452 345.008 448.574 344.885 448.693C344.761 448.812 344.602 448.912 344.408 448.99C344.214 449.069 343.982 449.109 343.712 449.109ZM343.919 448.342C344.184 448.342 344.409 448.289 344.597 448.185C344.787 448.081 344.93 447.944 345.028 447.776C345.129 447.605 345.179 447.423 345.179 447.229V446.597C345.145 446.631 345.078 446.663 344.98 446.692C344.885 446.72 344.775 446.745 344.651 446.766C344.528 446.785 344.407 446.803 344.29 446.82C344.173 446.835 344.075 446.848 343.996 446.859C343.811 446.882 343.641 446.922 343.488 446.977C343.337 447.032 343.215 447.112 343.124 447.217C343.034 447.319 342.989 447.455 342.989 447.626C342.989 447.862 343.077 448.041 343.251 448.163C343.426 448.282 343.649 448.342 343.919 448.342ZM347.407 449V444.091H348.331V444.871H348.382C348.471 444.607 348.629 444.399 348.855 444.248C349.083 444.094 349.341 444.017 349.628 444.017C349.688 444.017 349.758 444.02 349.839 444.024C349.922 444.028 349.987 444.033 350.034 444.04V444.954C349.996 444.943 349.928 444.931 349.83 444.919C349.732 444.904 349.634 444.896 349.536 444.896C349.31 444.896 349.108 444.944 348.932 445.04C348.757 445.134 348.618 445.265 348.516 445.433C348.414 445.599 348.363 445.789 348.363 446.002V449H347.407ZM353.443 444.091V444.858H350.761V444.091H353.443ZM351.48 442.915H352.436V447.559C352.436 447.744 352.464 447.884 352.519 447.977C352.574 448.069 352.646 448.132 352.733 448.166C352.823 448.198 352.92 448.214 353.024 448.214C353.101 448.214 353.168 448.208 353.225 448.198C353.283 448.187 353.328 448.179 353.36 448.172L353.532 448.962C353.477 448.983 353.398 449.004 353.296 449.026C353.193 449.049 353.066 449.062 352.912 449.064C352.661 449.068 352.426 449.023 352.209 448.93C351.992 448.836 351.816 448.691 351.682 448.495C351.547 448.299 351.48 448.053 351.48 447.757V442.915ZM359.173 444.091V444.858H356.492V444.091H359.173ZM357.211 442.915H358.166V447.559C358.166 447.744 358.194 447.884 358.25 447.977C358.305 448.069 358.376 448.132 358.464 448.166C358.553 448.198 358.65 448.214 358.755 448.214C358.831 448.214 358.898 448.208 358.956 448.198C359.013 448.187 359.058 448.179 359.09 448.172L359.263 448.962C359.207 448.983 359.128 449.004 359.026 449.026C358.924 449.049 358.796 449.062 358.643 449.064C358.391 449.068 358.157 449.023 357.94 448.93C357.722 448.836 357.546 448.691 357.412 448.495C357.278 448.299 357.211 448.053 357.211 447.757V442.915ZM360.23 449V444.091H361.186V449H360.23ZM360.713 443.333C360.547 443.333 360.404 443.278 360.285 443.167C360.167 443.054 360.109 442.92 360.109 442.765C360.109 442.607 360.167 442.473 360.285 442.362C360.404 442.249 360.547 442.192 360.713 442.192C360.879 442.192 361.021 442.249 361.138 442.362C361.257 442.473 361.317 442.607 361.317 442.765C361.317 442.92 361.257 443.054 361.138 443.167C361.021 443.278 360.879 443.333 360.713 443.333ZM362.472 449V444.091H363.389V444.89H363.449C363.552 444.619 363.719 444.408 363.951 444.257C364.184 444.104 364.462 444.027 364.785 444.027C365.114 444.027 365.388 444.104 365.61 444.257C365.834 444.411 365.999 444.621 366.105 444.89H366.157C366.274 444.628 366.46 444.419 366.716 444.263C366.972 444.106 367.276 444.027 367.63 444.027C368.075 444.027 368.438 444.167 368.72 444.446C369.003 444.725 369.145 445.146 369.145 445.708V449H368.189V445.798C368.189 445.465 368.099 445.224 367.918 445.075C367.736 444.926 367.52 444.852 367.269 444.852C366.958 444.852 366.716 444.947 366.543 445.139C366.371 445.329 366.284 445.573 366.284 445.871V449H365.332V445.737C365.332 445.471 365.249 445.256 365.083 445.094C364.916 444.933 364.7 444.852 364.434 444.852C364.253 444.852 364.085 444.9 363.932 444.995C363.781 445.089 363.658 445.22 363.565 445.388C363.473 445.557 363.427 445.752 363.427 445.973V449H362.472ZM372.541 449.099C372.058 449.099 371.641 448.996 371.292 448.789C370.944 448.58 370.676 448.287 370.486 447.91C370.299 447.531 370.205 447.087 370.205 446.577C370.205 446.075 370.299 445.631 370.486 445.248C370.676 444.864 370.94 444.565 371.279 444.35C371.62 444.135 372.018 444.027 372.474 444.027C372.751 444.027 373.02 444.073 373.28 444.164C373.54 444.256 373.773 444.4 373.98 444.596C374.186 444.792 374.349 445.047 374.469 445.36C374.588 445.671 374.648 446.049 374.648 446.494V446.833H370.745V446.117H373.711C373.711 445.866 373.66 445.643 373.558 445.449C373.455 445.253 373.312 445.099 373.126 444.986C372.943 444.873 372.728 444.816 372.481 444.816C372.212 444.816 371.978 444.882 371.778 445.015C371.579 445.145 371.426 445.315 371.317 445.526C371.211 445.735 371.157 445.962 371.157 446.207V446.766C371.157 447.094 371.215 447.373 371.33 447.603C371.447 447.833 371.61 448.009 371.819 448.131C372.028 448.25 372.272 448.31 372.551 448.31C372.732 448.31 372.897 448.284 373.046 448.233C373.195 448.18 373.324 448.101 373.433 447.996C373.542 447.892 373.625 447.763 373.682 447.61L374.587 447.773C374.514 448.039 374.384 448.272 374.197 448.473C374.012 448.671 373.778 448.825 373.497 448.936C373.218 449.045 372.899 449.099 372.541 449.099ZM375.708 449V444.091H376.631V444.871H376.683C376.772 444.607 376.93 444.399 377.156 444.248C377.384 444.094 377.641 444.017 377.929 444.017C377.989 444.017 378.059 444.02 378.14 444.024C378.223 444.028 378.288 444.033 378.335 444.04V444.954C378.297 444.943 378.228 444.931 378.13 444.919C378.032 444.904 377.934 444.896 377.836 444.896C377.611 444.896 377.409 444.944 377.232 445.04C377.058 445.134 376.919 445.265 376.817 445.433C376.715 445.599 376.663 445.789 376.663 446.002V449H375.708Z" fill="#F8F8FA"/>
</g>
<rect x="83" y="105" width="322" height="384" rx="11" stroke="white" stroke-opacity="0.24" stroke-width="12"/>
</g>
</g>
<defs>
<filter id="filter0_d_211_2494" x="37" y="77" width="414" height="476" filterUnits="userSpaceOnUse" color-interpolation-filters="sRGB">
<feFlood flood-opacity="0" result="BackgroundImageFix"/>
<feColorMatrix in="SourceAlpha" type="matrix" values="0 0 0 0 0 0 0 0 0 0 0 0 0 0 0 0 0 0 127 0" result="hardAlpha"/>
<feOffset dy="18"/>
<feGaussianBlur stdDeviation="20"/>
<feColorMatrix type="matrix" values="0 0 0 0 0.439216 0 0 0 0 0.564706 0 0 0 0 0.690196 0 0 0 0.32 0"/>
<feBlend mode="normal" in2="BackgroundImageFix" result="effect1_dropShadow_211_2494"/>
<feBlend mode="normal" in="SourceGraphic" in2="effect1_dropShadow_211_2494" result="shape"/>
</filter>
<clipPath id="clip0_211_2494">
<rect width="588" height="536" fill="white"/>
</clipPath>
<clipPath id="clip1_211_2494">
<rect x="89" y="111" width="310" height="372" rx="5" fill="white"/>
</clipPath>
</defs>
</svg>
