<svg width="100" height="100" viewBox="0 0 100 100" fill="none" xmlns="http://www.w3.org/2000/svg">
<circle opacity="0.22" cx="50" cy="50" r="50" fill="#FCA5A5"/>
<path d="M50.0061 11.1133C28.5625 11.1133 11.1172 28.5586 11.1172 50.0022C11.1172 71.4457 28.5625 88.8911 50.0061 88.8911C71.4497 88.8911 88.895 71.4457 88.895 50.0022C88.895 28.5586 71.4497 11.1133 50.0061 11.1133Z" fill="#DC2626"/>
<path d="M53.5138 46.994L64.2534 36.2778C64.7237 35.8074 64.9879 35.1695 64.9879 34.5043C64.9879 33.8391 64.7237 33.2011 64.2534 32.7307C63.7831 32.2603 63.1452 31.9961 62.4801 31.9961C61.815 31.9961 61.1771 32.2603 60.7068 32.7307L49.9922 43.4719L39.2775 32.7307C38.8072 32.2603 38.1694 31.9961 37.5043 31.9961C36.8391 31.9961 36.2013 32.2603 35.731 32.7307C35.2607 33.2011 34.9964 33.8391 34.9964 34.5043C34.9964 35.1695 35.2607 35.8074 35.731 36.2778L46.4706 46.994L35.731 57.7101C35.4969 57.9423 35.3111 58.2186 35.1843 58.523C35.0575 58.8274 34.9922 59.1539 34.9922 59.4837C34.9922 59.8134 35.0575 60.1399 35.1843 60.4443C35.3111 60.7487 35.4969 61.025 35.731 61.2572C35.9632 61.4913 36.2394 61.6772 36.5437 61.804C36.8481 61.9308 37.1745 61.9961 37.5043 61.9961C37.834 61.9961 38.1604 61.9308 38.4648 61.804C38.7691 61.6772 39.0454 61.4913 39.2775 61.2572L49.9922 50.5161L60.7068 61.2572C60.939 61.4913 61.2153 61.6772 61.5196 61.804C61.824 61.9308 62.1504 61.9961 62.4801 61.9961C62.8098 61.9961 63.1363 61.9308 63.4406 61.804C63.745 61.6772 64.0212 61.4913 64.2534 61.2572C64.4875 61.025 64.6733 60.7487 64.8001 60.4443C64.9269 60.1399 64.9922 59.8134 64.9922 59.4837C64.9922 59.1539 64.9269 58.8274 64.8001 58.523C64.6733 58.2186 64.4875 57.9423 64.2534 57.7101L53.5138 46.994Z" fill="white"/>
</svg>
