<svg width="413" height="316" viewBox="0 0 413 316" fill="none" xmlns="http://www.w3.org/2000/svg">
<g filter="url(#filter0_d_190_1603)">
<g clip-path="url(#clip0_190_1603)">
<rect x="4" width="405" height="308" rx="12" fill="#F8FAFC"/>
<g filter="url(#filter1_d_190_1603)">
<rect x="50.084" y="108.211" width="314.523" height="75.7886" rx="7.40463" fill="white" shape-rendering="crispEdges"/>
<rect x="50.584" y="108.711" width="313.523" height="74.7886" rx="6.90463" stroke="#00A0DC" stroke-opacity="0.53" shape-rendering="crispEdges"/>
<rect x="65.25" y="124.25" width="39.5" height="39.5" rx="4.75" fill="#F9FAFB" stroke="#DBE0E8" stroke-width="0.5"/>
<path d="M88.8438 149H81.0781V146.969H83.5312V140.82H81.0781V138.922C81.4531 138.922 81.8125 138.901 82.1562 138.859C82.5 138.812 82.7865 138.734 83.0156 138.625C83.2865 138.495 83.4896 138.326 83.625 138.117C83.7604 137.909 83.8385 137.648 83.8594 137.336H86.4453V146.969H88.8438V149Z" fill="#475569"/>
<circle cx="103" cy="160.914" r="10" fill="#EAB308"/>
<path d="M106.496 165.502H105.996V164.668C105.995 164.382 105.944 164.099 105.846 163.83C105.841 163.815 105.835 163.801 105.828 163.787C105.747 163.567 105.636 163.358 105.496 163.169L104.796 162.235C104.602 161.975 104.497 161.66 104.496 161.335V160.83C104.497 160.433 104.655 160.051 104.935 159.77L105.264 159.441C105.646 159.057 105.891 158.558 105.962 158.022C105.962 158.015 105.966 158.009 105.966 158.002L105.965 157.995C105.982 157.889 105.993 157.781 105.996 157.673V156.502H106.496C106.629 156.502 106.756 156.449 106.85 156.356C106.943 156.262 106.996 156.135 106.996 156.002C106.996 155.869 106.943 155.742 106.85 155.648C106.756 155.555 106.629 155.502 106.496 155.502H99.4961C99.3635 155.502 99.2363 155.555 99.1425 155.648C99.0488 155.742 98.9961 155.869 98.9961 156.002C98.9961 156.135 99.0488 156.262 99.1425 156.356C99.2363 156.449 99.3635 156.502 99.4961 156.502H99.9961V157.673C99.9997 157.781 100.01 157.889 100.028 157.995L100.026 158.002C100.026 158.009 100.03 158.015 100.03 158.022C100.101 158.558 100.346 159.057 100.728 159.441L101.057 159.77C101.337 160.051 101.495 160.433 101.496 160.83V161.335C101.495 161.659 101.39 161.975 101.196 162.235L100.496 163.169C100.356 163.358 100.245 163.567 100.164 163.788C100.157 163.801 100.151 163.815 100.146 163.829C100.048 164.098 99.9977 164.382 99.9961 164.668V165.502H99.4961C99.3635 165.502 99.2363 165.555 99.1425 165.648C99.0488 165.742 98.9961 165.869 98.9961 166.002C98.9961 166.135 99.0488 166.262 99.1425 166.356C99.2363 166.449 99.3635 166.502 99.4961 166.502H106.496C106.629 166.502 106.756 166.449 106.85 166.356C106.943 166.262 106.996 166.135 106.996 166.002C106.996 165.869 106.943 165.742 106.85 165.648C106.756 165.555 106.629 165.502 106.496 165.502ZM100.996 157.502V156.502H104.996V157.502H100.996ZM101.435 158.734C101.365 158.663 101.302 158.585 101.247 158.502H104.745C104.69 158.585 104.627 158.663 104.557 158.734L104.228 159.063C103.838 159.45 103.588 159.957 103.517 160.502H102.475C102.404 159.957 102.154 159.45 101.764 159.062L101.435 158.734ZM101.996 162.835C102.286 162.447 102.457 161.985 102.49 161.502H103.502C103.535 161.985 103.707 162.447 103.996 162.835L104.496 163.502H101.496L101.996 162.835ZM104.996 165.502H100.996V164.668C100.997 164.613 101.002 164.557 101.01 164.502H104.982C104.99 164.557 104.995 164.613 104.996 164.668V165.502Z" fill="white"/>
<rect x="130.596" y="127.162" width="81.4509" height="9.25579" rx="4.62789" fill="#E2E8F0"/>
<rect x="130.602" y="145.668" width="117.549" height="6.47905" rx="3.23953" fill="#F1F5F9"/>
<rect x="130.599" y="158.629" width="63.8649" height="6.47905" rx="3.23953" fill="#F1F5F9"/>
<g filter="url(#filter2_d_190_1603)">
<rect x="291.482" y="133.975" width="57.1445" height="23.6941" rx="3" fill="#F3E8FF"/>
<rect x="291.782" y="134.274" width="56.5463" height="23.0958" rx="2.70087" stroke="#7E22CE" stroke-width="0.598257"/>
<path d="M302.29 148.408C301.89 148.408 301.507 148.356 301.14 148.251C300.774 148.141 300.478 148.001 300.255 147.83L300.647 146.958C300.862 147.111 301.114 147.237 301.404 147.337C301.7 147.432 301.997 147.48 302.297 147.48C302.525 147.48 302.709 147.458 302.847 147.415C302.99 147.368 303.094 147.303 303.161 147.223C303.228 147.142 303.261 147.049 303.261 146.944C303.261 146.811 303.209 146.706 303.104 146.63C302.999 146.549 302.861 146.485 302.69 146.437C302.518 146.385 302.328 146.337 302.118 146.294C301.914 146.247 301.707 146.189 301.497 146.123C301.292 146.056 301.104 145.97 300.933 145.866C300.762 145.761 300.621 145.623 300.512 145.452C300.407 145.28 300.355 145.061 300.355 144.795C300.355 144.509 300.431 144.25 300.583 144.016C300.74 143.778 300.973 143.59 301.283 143.452C301.597 143.309 301.99 143.238 302.461 143.238C302.775 143.238 303.085 143.276 303.39 143.352C303.694 143.424 303.963 143.533 304.196 143.681L303.839 144.559C303.606 144.426 303.373 144.328 303.14 144.266C302.906 144.2 302.678 144.166 302.454 144.166C302.23 144.166 302.047 144.192 301.904 144.245C301.761 144.297 301.659 144.366 301.597 144.452C301.535 144.533 301.504 144.628 301.504 144.737C301.504 144.866 301.557 144.971 301.661 145.052C301.766 145.128 301.904 145.19 302.076 145.237C302.247 145.285 302.435 145.333 302.64 145.38C302.849 145.428 303.056 145.483 303.261 145.544C303.47 145.606 303.661 145.69 303.832 145.794C304.004 145.899 304.142 146.037 304.246 146.209C304.356 146.38 304.411 146.597 304.411 146.858C304.411 147.139 304.332 147.396 304.175 147.63C304.018 147.863 303.782 148.051 303.468 148.194C303.159 148.337 302.766 148.408 302.29 148.408ZM306.551 148.379C306.099 148.379 305.746 148.265 305.494 148.037C305.242 147.803 305.115 147.458 305.115 147.001V143.631H306.229V146.987C306.229 147.149 306.272 147.275 306.358 147.365C306.444 147.451 306.56 147.494 306.708 147.494C306.884 147.494 307.034 147.446 307.158 147.351L307.458 148.137C307.343 148.218 307.205 148.279 307.044 148.322C306.886 148.36 306.722 148.379 306.551 148.379ZM304.523 145.423V144.566H307.186V145.423H304.523ZM310.297 148.322V147.572L310.225 147.408V146.066C310.225 145.828 310.152 145.642 310.004 145.509C309.861 145.375 309.64 145.309 309.34 145.309C309.135 145.309 308.933 145.342 308.733 145.409C308.538 145.471 308.371 145.556 308.233 145.666L307.833 144.887C308.043 144.74 308.295 144.626 308.59 144.545C308.885 144.464 309.185 144.423 309.49 144.423C310.075 144.423 310.53 144.561 310.854 144.837C311.178 145.114 311.339 145.544 311.339 146.13V148.322H310.297ZM309.126 148.379C308.826 148.379 308.569 148.329 308.354 148.229C308.14 148.125 307.976 147.984 307.862 147.808C307.747 147.632 307.69 147.434 307.69 147.215C307.69 146.987 307.745 146.787 307.855 146.616C307.969 146.444 308.147 146.311 308.39 146.216C308.633 146.116 308.95 146.066 309.34 146.066H310.361V146.716H309.461C309.199 146.716 309.019 146.758 308.919 146.844C308.823 146.93 308.776 147.037 308.776 147.165C308.776 147.308 308.831 147.422 308.94 147.508C309.054 147.589 309.209 147.63 309.404 147.63C309.59 147.63 309.756 147.587 309.904 147.501C310.052 147.411 310.159 147.28 310.225 147.108L310.397 147.622C310.316 147.87 310.168 148.058 309.954 148.187C309.74 148.315 309.464 148.379 309.126 148.379ZM312.205 148.322V144.48H313.269V145.566L313.119 145.252C313.233 144.98 313.416 144.776 313.669 144.638C313.921 144.495 314.228 144.423 314.59 144.423V145.452C314.542 145.447 314.499 145.444 314.461 145.444C314.423 145.44 314.383 145.437 314.34 145.437C314.035 145.437 313.788 145.525 313.597 145.702C313.412 145.873 313.319 146.142 313.319 146.508V148.322H312.205ZM316.813 148.379C316.361 148.379 316.008 148.265 315.756 148.037C315.504 147.803 315.378 147.458 315.378 147.001V143.631H316.492V146.987C316.492 147.149 316.534 147.275 316.62 147.365C316.706 147.451 316.822 147.494 316.97 147.494C317.146 147.494 317.296 147.446 317.42 147.351L317.72 148.137C317.606 148.218 317.468 148.279 317.306 148.322C317.149 148.36 316.984 148.379 316.813 148.379ZM314.785 145.423V144.566H317.449V145.423H314.785ZM321.653 148.379C321.201 148.379 320.848 148.265 320.596 148.037C320.344 147.803 320.218 147.458 320.218 147.001V143.631H321.332V146.987C321.332 147.149 321.374 147.275 321.46 147.365C321.546 147.451 321.662 147.494 321.81 147.494C321.986 147.494 322.136 147.446 322.26 147.351L322.56 148.137C322.446 148.218 322.308 148.279 322.146 148.322C321.989 148.36 321.824 148.379 321.653 148.379ZM319.625 145.423V144.566H322.289V145.423H319.625ZM323.042 148.322V144.48H324.156V148.322H323.042ZM323.599 143.945C323.395 143.945 323.228 143.885 323.1 143.766C322.971 143.647 322.907 143.5 322.907 143.324C322.907 143.147 322.971 143 323.1 142.881C323.228 142.762 323.395 142.702 323.599 142.702C323.804 142.702 323.971 142.759 324.099 142.874C324.228 142.983 324.292 143.126 324.292 143.302C324.292 143.488 324.228 143.643 324.099 143.766C323.975 143.885 323.809 143.945 323.599 143.945ZM329.968 144.423C330.272 144.423 330.541 144.485 330.775 144.609C331.013 144.728 331.198 144.914 331.332 145.166C331.47 145.413 331.539 145.732 331.539 146.123V148.322H330.425V146.294C330.425 145.985 330.36 145.756 330.232 145.609C330.103 145.461 329.922 145.387 329.689 145.387C329.527 145.387 329.382 145.425 329.253 145.502C329.125 145.573 329.025 145.682 328.954 145.83C328.882 145.978 328.846 146.166 328.846 146.394V148.322H327.732V146.294C327.732 145.985 327.668 145.756 327.54 145.609C327.416 145.461 327.237 145.387 327.004 145.387C326.842 145.387 326.697 145.425 326.568 145.502C326.44 145.573 326.34 145.682 326.269 145.83C326.197 145.978 326.161 146.166 326.161 146.394V148.322H325.047V144.48H326.111V145.53L325.912 145.223C326.045 144.961 326.233 144.764 326.476 144.63C326.723 144.492 327.004 144.423 327.318 144.423C327.671 144.423 327.978 144.514 328.239 144.695C328.506 144.871 328.682 145.142 328.768 145.509L328.375 145.402C328.504 145.102 328.708 144.864 328.989 144.687C329.275 144.511 329.601 144.423 329.968 144.423ZM334.329 148.379C333.891 148.379 333.505 148.294 333.172 148.122C332.844 147.951 332.589 147.718 332.408 147.422C332.227 147.123 332.137 146.782 332.137 146.401C332.137 146.016 332.225 145.675 332.401 145.38C332.582 145.08 332.827 144.847 333.136 144.68C333.446 144.509 333.796 144.423 334.186 144.423C334.562 144.423 334.9 144.504 335.2 144.666C335.505 144.823 335.745 145.052 335.921 145.352C336.097 145.647 336.186 146.001 336.186 146.416C336.186 146.458 336.183 146.508 336.178 146.566C336.174 146.618 336.169 146.668 336.164 146.716H333.043V146.066H335.579L335.15 146.259C335.15 146.059 335.11 145.885 335.029 145.737C334.948 145.59 334.836 145.475 334.693 145.394C334.55 145.309 334.384 145.266 334.193 145.266C334.003 145.266 333.834 145.309 333.686 145.394C333.543 145.475 333.431 145.592 333.351 145.744C333.27 145.892 333.229 146.068 333.229 146.273V146.444C333.229 146.654 333.274 146.839 333.365 147.001C333.46 147.158 333.591 147.28 333.758 147.365C333.929 147.446 334.129 147.487 334.357 147.487C334.562 147.487 334.741 147.456 334.893 147.394C335.05 147.332 335.193 147.239 335.321 147.115L335.914 147.758C335.738 147.958 335.517 148.113 335.25 148.222C334.983 148.327 334.676 148.379 334.329 148.379ZM336.784 148.322V144.48H337.848V145.566L337.698 145.252C337.813 144.98 337.996 144.776 338.248 144.638C338.501 144.495 338.808 144.423 339.169 144.423V145.452C339.122 145.447 339.079 145.444 339.041 145.444C339.003 145.44 338.962 145.437 338.92 145.437C338.615 145.437 338.367 145.525 338.177 145.702C337.991 145.873 337.898 146.142 337.898 146.508V148.322H336.784Z" fill="#7E22CE"/>
</g>
<path d="M335.111 127.051C336.2 124.915 336.401 122.43 335.67 120.139C335.628 119.998 339.032 123.228 341.753 122.319C341.753 122.319 340.049 125.561 341.296 128.553C341.325 128.586 339.657 126.658 335.111 127.051Z" fill="#F3AC55"/>
<path d="M344.71 128.528C345.149 127.665 345.229 126.661 344.931 125.735C344.914 125.679 346.287 126.984 347.389 126.613C347.389 126.613 346.703 127.921 347.205 129.128C347.211 129.145 346.539 128.367 344.71 128.528Z" fill="#F3AC55"/>
<path d="M337.226 132.185C337.803 131.566 338.113 130.744 338.088 129.896C338.086 129.843 338.925 131.268 339.939 131.223C339.939 131.223 339.044 132.15 339.176 133.286C339.176 133.305 338.8 132.491 337.226 132.185Z" fill="#F3AC55"/>
<g filter="url(#filter3_d_190_1603)">
<mask id="path-17-outside-1_190_1603" maskUnits="userSpaceOnUse" x="334.194" y="131.193" width="33.3236" height="34.0289" fill="black">
<rect fill="white" x="334.194" y="131.193" width="33.3236" height="34.0289"/>
<path fill-rule="evenodd" clip-rule="evenodd" d="M348.906 152.245L346.916 151.562C345.558 151.095 343.966 151.777 343.358 153.083L343.5 152.779C343.349 153.103 343.478 153.518 343.79 153.706L347.58 155.986C348.18 156.347 349.258 156.682 349.965 156.721C349.965 156.721 354.127 156.85 354.738 157.636L355.511 158.631L359.616 155.443L359.048 152.594L361.668 153.849L362.694 153.052L361.921 152.057C361.31 151.271 360.935 147.592 360.935 147.592C360.846 146.889 360.425 145.857 359.988 145.294L356.772 141.153C356.042 140.251 354.686 140.113 353.724 140.86C353.243 141.234 353.142 141.908 353.498 142.366L353.756 142.698C353.044 141.781 351.688 141.644 350.726 142.39C350.245 142.764 350.144 143.438 350.5 143.897L350.758 144.228C350.046 143.312 348.69 143.174 347.728 143.921C347.247 144.294 347.146 144.968 347.502 145.427L347.76 145.759C347.646 145.611 347.539 145.506 347.436 145.437L343.85 141.368C343.365 140.818 342.529 140.747 341.962 141.187C341.391 141.63 341.293 142.443 341.733 143.01L344.921 147.115L348.906 152.245ZM355.31 145.626L356.336 144.829L359.524 148.933L358.498 149.73L355.31 145.626ZM353.258 147.22L354.284 146.423L357.472 150.527L356.446 151.324L353.258 147.22ZM351.206 148.814L352.232 148.017L355.42 152.121L354.394 152.918L351.206 148.814Z"/>
</mask>
<path fill-rule="evenodd" clip-rule="evenodd" d="M348.906 152.245L346.916 151.562C345.558 151.095 343.966 151.777 343.358 153.083L343.5 152.779C343.349 153.103 343.478 153.518 343.79 153.706L347.58 155.986C348.18 156.347 349.258 156.682 349.965 156.721C349.965 156.721 354.127 156.85 354.738 157.636L355.511 158.631L359.616 155.443L359.048 152.594L361.668 153.849L362.694 153.052L361.921 152.057C361.31 151.271 360.935 147.592 360.935 147.592C360.846 146.889 360.425 145.857 359.988 145.294L356.772 141.153C356.042 140.251 354.686 140.113 353.724 140.86C353.243 141.234 353.142 141.908 353.498 142.366L353.756 142.698C353.044 141.781 351.688 141.644 350.726 142.39C350.245 142.764 350.144 143.438 350.5 143.897L350.758 144.228C350.046 143.312 348.69 143.174 347.728 143.921C347.247 144.294 347.146 144.968 347.502 145.427L347.76 145.759C347.646 145.611 347.539 145.506 347.436 145.437L343.85 141.368C343.365 140.818 342.529 140.747 341.962 141.187C341.391 141.63 341.293 142.443 341.733 143.01L344.921 147.115L348.906 152.245ZM355.31 145.626L356.336 144.829L359.524 148.933L358.498 149.73L355.31 145.626ZM353.258 147.22L354.284 146.423L357.472 150.527L356.446 151.324L353.258 147.22ZM351.206 148.814L352.232 148.017L355.42 152.121L354.394 152.918L351.206 148.814Z" fill="white"/>
<path d="M348.906 152.245L348.484 153.474L352.605 154.89L349.932 151.448L348.906 152.245ZM346.916 151.562L347.339 150.333L346.916 151.562ZM343.79 153.706L343.12 154.819L343.79 153.706ZM347.58 155.986L348.249 154.872L347.58 155.986ZM349.965 156.721L349.894 158.018L349.91 158.019L349.925 158.019L349.965 156.721ZM354.738 157.636L355.764 156.839L354.738 157.636ZM355.511 158.631L354.485 159.428L355.282 160.454L356.308 159.657L355.511 158.631ZM359.616 155.443L360.413 156.469L361.047 155.977L360.89 155.189L359.616 155.443ZM359.048 152.594L359.609 151.422L357.266 150.299L357.774 152.848L359.048 152.594ZM361.668 153.849L361.107 155.021L361.831 155.368L362.465 154.875L361.668 153.849ZM362.694 153.052L363.491 154.078L364.517 153.281L363.72 152.255L362.694 153.052ZM360.935 147.592L362.228 147.46L362.226 147.444L362.224 147.429L360.935 147.592ZM356.772 141.153L357.798 140.356L357.79 140.346L357.782 140.336L356.772 141.153ZM353.498 142.366L352.472 143.163L353.498 142.366ZM350.5 143.897L351.526 143.1L350.5 143.897ZM347.502 145.427L348.529 144.63L347.502 145.427ZM347.436 145.437L346.462 146.296L346.572 146.421L346.71 146.514L347.436 145.437ZM343.85 141.368L342.875 142.227L343.85 141.368ZM341.733 143.01L340.706 143.807L341.733 143.01ZM344.921 147.115L345.947 146.318L344.921 147.115ZM356.336 144.829L357.363 144.032L356.566 143.006L355.539 143.803L356.336 144.829ZM359.524 148.933L360.321 149.959L361.348 149.162L360.551 148.136L359.524 148.933ZM358.498 149.73L357.472 150.527L358.269 151.553L359.295 150.756L358.498 149.73ZM354.284 146.423L355.31 145.626L354.513 144.6L353.487 145.397L354.284 146.423ZM357.472 150.527L358.269 151.553L359.295 150.756L358.498 149.73L357.472 150.527ZM356.446 151.324L355.42 152.121L356.217 153.147L357.243 152.35L356.446 151.324ZM352.232 148.017L353.258 147.22L352.461 146.194L351.435 146.991L352.232 148.017ZM355.42 152.121L356.217 153.147L357.243 152.35L356.446 151.324L355.42 152.121ZM354.394 152.918L353.368 153.715L354.165 154.741L355.191 153.944L354.394 152.918ZM349.328 151.016L347.339 150.333L346.494 152.791L348.484 153.474L349.328 151.016ZM347.339 150.333C345.347 149.649 343.067 150.63 342.18 152.535L344.536 153.631C344.865 152.924 345.769 152.542 346.494 152.791L347.339 150.333ZM344.536 153.631L344.678 153.327L342.322 152.231L342.18 152.535L344.536 153.631ZM342.322 152.231C341.884 153.17 342.251 154.297 343.12 154.819L344.459 152.592C344.6 152.677 344.678 152.798 344.711 152.906C344.745 153.014 344.753 153.166 344.678 153.327L342.322 152.231ZM343.12 154.819L346.91 157.099L348.249 154.872L344.459 152.592L343.12 154.819ZM346.91 157.099C347.69 157.569 348.973 157.967 349.894 158.018L350.036 155.423C349.543 155.396 348.671 155.126 348.249 154.872L346.91 157.099ZM349.965 156.721C349.925 158.019 349.925 158.019 349.925 158.019C349.925 158.019 349.925 158.019 349.925 158.019C349.925 158.019 349.925 158.019 349.925 158.019C349.925 158.019 349.925 158.019 349.926 158.019C349.927 158.019 349.93 158.019 349.933 158.019C349.94 158.02 349.95 158.02 349.964 158.021C349.992 158.022 350.034 158.023 350.088 158.026C350.197 158.03 350.354 158.038 350.546 158.05C350.931 158.073 351.445 158.112 351.972 158.174C352.507 158.236 353.018 158.318 353.411 158.419C353.608 158.47 353.74 158.517 353.817 158.552C353.921 158.6 353.827 158.581 353.712 158.433L355.764 156.839C355.497 156.494 355.139 156.299 354.898 156.189C354.63 156.067 354.338 155.975 354.059 155.903C353.5 155.759 352.855 155.661 352.274 155.593C351.684 155.524 351.119 155.481 350.704 155.456C350.496 155.443 350.324 155.435 350.202 155.43C350.142 155.427 350.094 155.425 350.06 155.424C350.044 155.423 350.031 155.423 350.021 155.422C350.017 155.422 350.013 155.422 350.01 155.422C350.009 155.422 350.008 155.422 350.007 155.422C350.007 155.422 350.007 155.422 350.006 155.422C350.006 155.422 350.006 155.422 350.006 155.422C350.006 155.422 350.006 155.422 349.965 156.721ZM353.712 158.433L354.485 159.428L356.537 157.834L355.764 156.839L353.712 158.433ZM356.308 159.657L360.413 156.469L358.819 154.417L354.714 157.605L356.308 159.657ZM360.89 155.189L360.322 152.34L357.774 152.848L358.341 155.697L360.89 155.189ZM358.486 153.766L361.107 155.021L362.229 152.677L359.609 151.422L358.486 153.766ZM362.465 154.875L363.491 154.078L361.897 152.026L360.871 152.823L362.465 154.875ZM363.72 152.255L362.947 151.26L360.895 152.854L361.668 153.849L363.72 152.255ZM362.947 151.26C362.976 151.296 362.89 151.163 362.765 150.694C362.659 150.295 362.563 149.806 362.481 149.315C362.399 148.829 362.336 148.363 362.293 148.017C362.271 147.845 362.255 147.704 362.244 147.607C362.238 147.558 362.234 147.52 362.232 147.495C362.23 147.483 362.229 147.474 362.229 147.468C362.228 147.465 362.228 147.462 362.228 147.461C362.228 147.461 362.228 147.46 362.228 147.46C362.228 147.46 362.228 147.46 362.228 147.46C362.228 147.46 362.228 147.46 362.228 147.46C362.228 147.46 362.228 147.46 360.935 147.592C359.643 147.724 359.643 147.724 359.643 147.724C359.643 147.724 359.643 147.724 359.643 147.724C359.643 147.724 359.643 147.725 359.643 147.725C359.643 147.726 359.643 147.727 359.643 147.728C359.643 147.73 359.644 147.733 359.644 147.737C359.645 147.745 359.646 147.756 359.648 147.771C359.651 147.8 359.655 147.843 359.661 147.896C359.673 148.003 359.691 148.155 359.714 148.34C359.76 148.709 359.829 149.212 359.918 149.744C360.006 150.271 360.118 150.849 360.254 151.361C360.371 151.803 360.561 152.424 360.895 152.854L362.947 151.26ZM362.224 147.429C362.161 146.928 361.993 146.38 361.794 145.897C361.596 145.414 361.328 144.901 361.014 144.497L358.962 146.091C359.085 146.249 359.247 146.534 359.39 146.884C359.534 147.234 359.621 147.552 359.646 147.755L362.224 147.429ZM361.014 144.497L357.798 140.356L355.746 141.95L358.962 146.091L361.014 144.497ZM357.782 140.336C356.58 138.851 354.414 138.68 352.927 139.834L354.521 141.886C354.958 141.547 355.503 141.651 355.762 141.971L357.782 140.336ZM352.927 139.834C351.926 140.612 351.64 142.093 352.472 143.163L354.524 141.569C354.579 141.64 354.59 141.719 354.582 141.774C354.574 141.827 354.548 141.866 354.521 141.886L352.927 139.834ZM352.472 143.163L352.73 143.495L354.782 141.901L354.524 141.569L352.472 143.163ZM354.782 141.901C353.594 140.372 351.411 140.214 349.929 141.364L351.523 143.417C351.965 143.074 352.493 143.191 352.73 143.495L354.782 141.901ZM349.929 141.364C348.928 142.142 348.642 143.623 349.474 144.694L351.526 143.1C351.581 143.17 351.592 143.25 351.584 143.304C351.576 143.358 351.55 143.396 351.523 143.417L349.929 141.364ZM349.474 144.694L349.732 145.025L351.784 143.431L351.526 143.1L349.474 144.694ZM351.784 143.431C350.596 141.902 348.413 141.744 346.931 142.895L348.525 144.947C348.967 144.604 349.495 144.721 349.732 145.025L351.784 143.431ZM346.931 142.895C345.93 143.672 345.645 145.153 346.476 146.224L348.529 144.63C348.583 144.7 348.595 144.78 348.586 144.835C348.578 144.888 348.552 144.926 348.525 144.947L346.931 142.895ZM346.476 146.224L346.734 146.556L348.786 144.962L348.529 144.63L346.476 146.224ZM348.786 144.962C348.621 144.749 348.417 144.532 348.163 144.36L346.71 146.514C346.682 146.496 346.673 146.485 346.679 146.492C346.686 146.498 346.704 146.518 346.734 146.556L348.786 144.962ZM348.411 144.578L344.825 140.509L342.875 142.227L346.462 146.296L348.411 144.578ZM344.825 140.509C343.883 139.44 342.27 139.303 341.165 140.161L342.759 142.213C342.768 142.206 342.787 142.197 342.817 142.2C342.846 142.202 342.863 142.214 342.875 142.227L344.825 140.509ZM341.165 140.161C340.025 141.046 339.828 142.676 340.706 143.807L342.759 142.213L342.759 142.213L341.165 140.161ZM340.706 143.807L343.895 147.912L345.947 146.318L342.759 142.213L340.706 143.807ZM343.895 147.912L347.88 153.042L349.932 151.448L345.947 146.318L343.895 147.912ZM356.107 146.652L357.133 145.855L355.539 143.803L354.513 144.6L356.107 146.652ZM355.31 145.626L358.498 149.73L360.551 148.136L357.363 144.032L355.31 145.626ZM358.727 147.907L357.701 148.704L359.295 150.756L360.321 149.959L358.727 147.907ZM359.524 148.933L356.336 144.829L354.284 146.423L357.472 150.527L359.524 148.933ZM354.055 148.246L355.081 147.449L353.487 145.397L352.461 146.194L354.055 148.246ZM353.258 147.22L356.446 151.324L358.498 149.73L355.31 145.626L353.258 147.22ZM356.675 149.501L355.649 150.298L357.243 152.35L358.269 151.553L356.675 149.501ZM357.472 150.527L354.284 146.423L352.232 148.017L355.42 152.121L357.472 150.527ZM352.003 149.84L353.029 149.043L351.435 146.991L350.409 147.788L352.003 149.84ZM351.206 148.814L354.394 152.918L356.446 151.324L353.258 147.22L351.206 148.814ZM354.623 151.095L353.597 151.892L355.191 153.944L356.217 153.147L354.623 151.095ZM355.42 152.121L352.232 148.017L350.18 149.611L353.368 153.715L355.42 152.121Z" fill="black" fill-opacity="0.8" mask="url(#path-17-outside-1_190_1603)"/>
</g>
</g>
<rect x="66.0109" y="-27.7079" width="282.667" height="61.5019" rx="6.25718" fill="white"/>
<rect x="66.0109" y="-27.7079" width="282.667" height="61.5019" rx="6.25718" stroke="#F0F6FA" stroke-width="0.834291"/>
<circle opacity="0.61" cx="97.5115" cy="6.36601" r="17.8562" fill="#F1F5F9"/>
<g opacity="0.61">
<rect x="138.168" y="2.2207" width="105.955" height="5.84003" rx="2.92002" fill="#F1F5F9"/>
<rect x="138.166" y="13.9023" width="57.5661" height="5.84003" rx="2.92002" fill="#F1F5F9"/>
</g>
<g opacity="0.61">
<g filter="url(#filter4_d_190_1603)">
<rect x="290.985" y="-3.80859" width="35.0257" height="13.7356" rx="6.86779" fill="#F1F5F9"/>
<rect x="291.2" y="-3.59398" width="34.5965" height="13.3063" rx="6.65317" stroke="#F1F5F9" stroke-width="0.429237"/>
<rect x="300.601" y="0.998047" width="15.7959" height="4.12067" rx="2.06034" fill="#E2E8F0"/>
</g>
</g>
<g opacity="0.93">
<rect x="66.0109" y="40.2921" width="282.667" height="61.5019" rx="6.25718" fill="white"/>
<rect x="66.0109" y="40.2921" width="282.667" height="61.5019" rx="6.25718" stroke="#F0F6FA" stroke-width="0.834291"/>
<circle opacity="0.61" cx="97.5115" cy="74.366" r="17.8562" fill="#F1F5F9"/>
<g opacity="0.61">
<rect x="138.164" y="53.5352" width="73.4176" height="8.34291" rx="4.17145" fill="#E2E8F0"/>
<rect x="138.168" y="70.2207" width="105.955" height="5.84003" rx="2.92002" fill="#F1F5F9"/>
<rect x="138.166" y="81.9023" width="57.5661" height="5.84003" rx="2.92002" fill="#F1F5F9"/>
</g>
<g opacity="0.61">
<g filter="url(#filter5_d_190_1603)">
<rect x="290.985" y="64.1914" width="35.0257" height="13.7356" rx="6.86779" fill="#F1F5F9"/>
<rect x="291.2" y="64.406" width="34.5965" height="13.3063" rx="6.65317" stroke="#F1F5F9" stroke-width="0.429237"/>
<rect x="300.601" y="68.998" width="15.7959" height="4.12067" rx="2.06034" fill="#E2E8F0"/>
</g>
</g>
</g>
<g opacity="0.7">
<rect x="66.0109" y="258.278" width="282.667" height="61.5019" rx="6.25718" fill="white"/>
<rect x="66.0109" y="258.278" width="282.667" height="61.5019" rx="6.25718" stroke="#F0F6FA" stroke-width="0.834291"/>
<circle opacity="0.61" cx="97.5115" cy="292.352" r="17.8562" fill="#F1F5F9"/>
<g opacity="0.61">
<rect x="138.164" y="271.521" width="73.4176" height="8.34291" rx="4.17145" fill="#E2E8F0"/>
<rect x="138.168" y="288.207" width="105.955" height="5.84003" rx="2.92002" fill="#F1F5F9"/>
<rect x="138.166" y="299.889" width="57.5661" height="5.84003" rx="2.92002" fill="#F1F5F9"/>
</g>
<g opacity="0.61">
<g filter="url(#filter6_d_190_1603)">
<rect x="290.985" y="282.178" width="35.0257" height="13.7356" rx="6.86779" fill="#F1F5F9"/>
<rect x="291.2" y="282.392" width="34.5965" height="13.3063" rx="6.65317" stroke="#F1F5F9" stroke-width="0.429237"/>
<rect x="300.601" y="286.984" width="15.7959" height="4.12067" rx="2.06034" fill="#E2E8F0"/>
</g>
</g>
</g>
<g opacity="0.93">
<rect x="66.0109" y="189.943" width="282.667" height="61.5019" rx="6.25718" fill="white"/>
<rect x="66.0109" y="189.943" width="282.667" height="61.5019" rx="6.25718" stroke="#F0F6FA" stroke-width="0.834291"/>
<circle opacity="0.61" cx="97.5115" cy="224.016" r="17.8562" fill="#F1F5F9"/>
<g opacity="0.61">
<rect x="138.164" y="203.186" width="73.4176" height="8.34291" rx="4.17145" fill="#E2E8F0"/>
<rect x="138.168" y="219.871" width="105.955" height="5.84003" rx="2.92002" fill="#F1F5F9"/>
<rect x="138.166" y="231.553" width="57.5661" height="5.84003" rx="2.92002" fill="#F1F5F9"/>
</g>
<g opacity="0.61">
<g filter="url(#filter7_d_190_1603)">
<rect x="290.985" y="213.842" width="35.0257" height="13.7356" rx="6.86779" fill="#F1F5F9"/>
<rect x="291.2" y="214.056" width="34.5965" height="13.3063" rx="6.65317" stroke="#F1F5F9" stroke-width="0.429237"/>
<rect x="300.601" y="218.648" width="15.7959" height="4.12067" rx="2.06034" fill="#E2E8F0"/>
</g>
</g>
</g>
<rect x="4" width="405" height="1" fill="url(#paint0_linear_190_1603)"/>
<rect width="405" height="96" transform="matrix(1 0 0 -1 4 308)" fill="url(#paint1_linear_190_1603)"/>
<rect x="4" width="405" height="86" fill="url(#paint2_linear_190_1603)"/>
</g>
</g>
<defs>
<filter id="filter0_d_190_1603" x="0" y="0" width="413" height="316" filterUnits="userSpaceOnUse" color-interpolation-filters="sRGB">
<feFlood flood-opacity="0" result="BackgroundImageFix"/>
<feColorMatrix in="SourceAlpha" type="matrix" values="0 0 0 0 0 0 0 0 0 0 0 0 0 0 0 0 0 0 127 0" result="hardAlpha"/>
<feOffset dy="4"/>
<feGaussianBlur stdDeviation="2"/>
<feComposite in2="hardAlpha" operator="out"/>
<feColorMatrix type="matrix" values="0 0 0 0 0 0 0 0 0 0 0 0 0 0 0 0 0 0 0.25 0"/>
<feBlend mode="normal" in2="BackgroundImageFix" result="effect1_dropShadow_190_1603"/>
<feBlend mode="normal" in="SourceGraphic" in2="effect1_dropShadow_190_1603" result="shape"/>
</filter>
<filter id="filter1_d_190_1603" x="-63.686" y="-5.55906" width="542.062" height="303.329" filterUnits="userSpaceOnUse" color-interpolation-filters="sRGB">
<feFlood flood-opacity="0" result="BackgroundImageFix"/>
<feColorMatrix in="SourceAlpha" type="matrix" values="0 0 0 0 0 0 0 0 0 0 0 0 0 0 0 0 0 0 127 0" result="hardAlpha"/>
<feOffset/>
<feGaussianBlur stdDeviation="56.885"/>
<feComposite in2="hardAlpha" operator="out"/>
<feColorMatrix type="matrix" values="0 0 0 0 0.853561 0 0 0 0 0.865192 0 0 0 0 0.876823 0 0 0 0.98 0"/>
<feBlend mode="normal" in2="BackgroundImageFix" result="effect1_dropShadow_190_1603"/>
<feBlend mode="normal" in="SourceGraphic" in2="effect1_dropShadow_190_1603" result="shape"/>
</filter>
<filter id="filter2_d_190_1603" x="290.286" y="133.376" width="59.5376" height="26.0864" filterUnits="userSpaceOnUse" color-interpolation-filters="sRGB">
<feFlood flood-opacity="0" result="BackgroundImageFix"/>
<feColorMatrix in="SourceAlpha" type="matrix" values="0 0 0 0 0 0 0 0 0 0 0 0 0 0 0 0 0 0 127 0" result="hardAlpha"/>
<feOffset dy="0.598257"/>
<feGaussianBlur stdDeviation="0.598257"/>
<feColorMatrix type="matrix" values="0 0 0 0 0.0627451 0 0 0 0 0.0941176 0 0 0 0 0.156863 0 0 0 0.05 0"/>
<feBlend mode="normal" in2="BackgroundImageFix" result="effect1_dropShadow_190_1603"/>
<feBlend mode="normal" in="SourceGraphic" in2="effect1_dropShadow_190_1603" result="shape"/>
</filter>
<filter id="filter3_d_190_1603" x="336.261" y="136.481" width="32.1542" height="29.1708" filterUnits="userSpaceOnUse" color-interpolation-filters="sRGB">
<feFlood flood-opacity="0" result="BackgroundImageFix"/>
<feColorMatrix in="SourceAlpha" type="matrix" values="0 0 0 0 0 0 0 0 0 0 0 0 0 0 0 0 0 0 127 0" result="hardAlpha"/>
<feOffset dy="1.2993"/>
<feGaussianBlur stdDeviation="1.94895"/>
<feColorMatrix type="matrix" values="0 0 0 0 0 0 0 0 0 0 0 0 0 0 0 0 0 0 0.2 0"/>
<feBlend mode="normal" in2="BackgroundImageFix" result="effect1_dropShadow_190_1603"/>
<feBlend mode="normal" in="SourceGraphic" in2="effect1_dropShadow_190_1603" result="shape"/>
</filter>
<filter id="filter4_d_190_1603" x="290.127" y="-4.23783" width="36.7423" height="15.4533" filterUnits="userSpaceOnUse" color-interpolation-filters="sRGB">
<feFlood flood-opacity="0" result="BackgroundImageFix"/>
<feColorMatrix in="SourceAlpha" type="matrix" values="0 0 0 0 0 0 0 0 0 0 0 0 0 0 0 0 0 0 127 0" result="hardAlpha"/>
<feOffset dy="0.429237"/>
<feGaussianBlur stdDeviation="0.429237"/>
<feColorMatrix type="matrix" values="0 0 0 0 0.0627451 0 0 0 0 0.0941176 0 0 0 0 0.156863 0 0 0 0.05 0"/>
<feBlend mode="normal" in2="BackgroundImageFix" result="effect1_dropShadow_190_1603"/>
<feBlend mode="normal" in="SourceGraphic" in2="effect1_dropShadow_190_1603" result="shape"/>
</filter>
<filter id="filter5_d_190_1603" x="290.127" y="63.7622" width="36.7423" height="15.4533" filterUnits="userSpaceOnUse" color-interpolation-filters="sRGB">
<feFlood flood-opacity="0" result="BackgroundImageFix"/>
<feColorMatrix in="SourceAlpha" type="matrix" values="0 0 0 0 0 0 0 0 0 0 0 0 0 0 0 0 0 0 127 0" result="hardAlpha"/>
<feOffset dy="0.429237"/>
<feGaussianBlur stdDeviation="0.429237"/>
<feColorMatrix type="matrix" values="0 0 0 0 0.0627451 0 0 0 0 0.0941176 0 0 0 0 0.156863 0 0 0 0.05 0"/>
<feBlend mode="normal" in2="BackgroundImageFix" result="effect1_dropShadow_190_1603"/>
<feBlend mode="normal" in="SourceGraphic" in2="effect1_dropShadow_190_1603" result="shape"/>
</filter>
<filter id="filter6_d_190_1603" x="290.127" y="281.748" width="36.7423" height="15.4533" filterUnits="userSpaceOnUse" color-interpolation-filters="sRGB">
<feFlood flood-opacity="0" result="BackgroundImageFix"/>
<feColorMatrix in="SourceAlpha" type="matrix" values="0 0 0 0 0 0 0 0 0 0 0 0 0 0 0 0 0 0 127 0" result="hardAlpha"/>
<feOffset dy="0.429237"/>
<feGaussianBlur stdDeviation="0.429237"/>
<feColorMatrix type="matrix" values="0 0 0 0 0.0627451 0 0 0 0 0.0941176 0 0 0 0 0.156863 0 0 0 0.05 0"/>
<feBlend mode="normal" in2="BackgroundImageFix" result="effect1_dropShadow_190_1603"/>
<feBlend mode="normal" in="SourceGraphic" in2="effect1_dropShadow_190_1603" result="shape"/>
</filter>
<filter id="filter7_d_190_1603" x="290.127" y="213.413" width="36.7423" height="15.4533" filterUnits="userSpaceOnUse" color-interpolation-filters="sRGB">
<feFlood flood-opacity="0" result="BackgroundImageFix"/>
<feColorMatrix in="SourceAlpha" type="matrix" values="0 0 0 0 0 0 0 0 0 0 0 0 0 0 0 0 0 0 127 0" result="hardAlpha"/>
<feOffset dy="0.429237"/>
<feGaussianBlur stdDeviation="0.429237"/>
<feColorMatrix type="matrix" values="0 0 0 0 0.0627451 0 0 0 0 0.0941176 0 0 0 0 0.156863 0 0 0 0.05 0"/>
<feBlend mode="normal" in2="BackgroundImageFix" result="effect1_dropShadow_190_1603"/>
<feBlend mode="normal" in="SourceGraphic" in2="effect1_dropShadow_190_1603" result="shape"/>
</filter>
<linearGradient id="paint0_linear_190_1603" x1="207" y1="-2.02941" x2="206.999" y2="1" gradientUnits="userSpaceOnUse">
<stop offset="0.0001" stop-color="#F8FAFC"/>
<stop offset="0.811283" stop-color="#F8FAFC" stop-opacity="0.79"/>
<stop offset="1" stop-color="#E7E9EA" stop-opacity="0"/>
</linearGradient>
<linearGradient id="paint1_linear_190_1603" x1="203" y1="-194.824" x2="195.394" y2="95.801" gradientUnits="userSpaceOnUse">
<stop offset="0.0001" stop-color="#171E28"/>
<stop offset="0.811283" stop-color="#F8FAFC" stop-opacity="0.69"/>
<stop offset="1" stop-color="#E7E9EA" stop-opacity="0"/>
</linearGradient>
<linearGradient id="paint2_linear_190_1603" x1="207" y1="-174.529" x2="200.895" y2="85.8569" gradientUnits="userSpaceOnUse">
<stop offset="0.0001" stop-color="#171E28"/>
<stop offset="0.811283" stop-color="#F8FAFC" stop-opacity="0.69"/>
<stop offset="1" stop-color="#E7E9EA" stop-opacity="0"/>
</linearGradient>
<clipPath id="clip0_190_1603">
<rect x="4" width="405" height="308" rx="12" fill="white"/>
</clipPath>
</defs>
</svg>
