<svg width="32" height="32" viewBox="0 0 32 32" fill="none" xmlns="http://www.w3.org/2000/svg">
<g clip-path="url(#clip0_1181_4693)">
<path d="M8.88889 4.44446H3.55556C2.61256 4.44446 1.70819 4.81906 1.0414 5.48586C0.374602 6.15265 0 7.05702 0 8.00001L0 13.3333H8.88889V4.44446ZM28.4444 4.44446H14.2222V13.3333H32V8.00001C32 7.05702 31.6254 6.15265 30.9586 5.48586C30.2918 4.81906 29.3874 4.44446 28.4444 4.44446ZM8.88889 27.5556H3.55556C2.61256 27.5556 1.70819 27.181 1.0414 26.5142C0.374602 25.8474 0 24.943 0 24V18.6667H8.88889V27.5556ZM28.4444 27.5556H14.2222V18.6667H32V24C32 24.943 31.6254 25.8474 30.9586 26.5142C30.2918 27.181 29.3874 27.5556 28.4444 27.5556Z" fill="#EF2B2D"/>
<path d="M12.8889 4.44446H10.272L10.2498 14.6667H0V17.3333H10.2444L10.2222 27.5556H12.8889V17.3333H32V14.6667H12.8889V4.44446Z" fill="#002868"/>
<path d="M12.8889 27.5556H14.2222V18.6667H32V17.3333H12.8889V27.5556ZM14.2222 4.44446H12.8889V14.6667H32V13.3333H14.2222V4.44446ZM10.2222 4.44446H8.88889V13.3333H0V14.6667H10.2222V4.44446ZM0 17.3333V18.6667H8.88889V27.5556H10.2222V17.3333H0Z" fill="#EEEEEE"/>
</g>
<defs>
<clipPath id="clip0_1181_4693">
<rect width="32" height="32" fill="white"/>
</clipPath>
</defs>
</svg>
