<svg width="33" height="32" viewBox="0 0 33 32" fill="none" xmlns="http://www.w3.org/2000/svg">
<g clip-path="url(#clip0_1181_4688)">
<path d="M0.5 8.05246V11.5556H5.50267L0.5 8.05246ZM4.64578 27.5556H12.0556V22.3671L4.64578 27.5556ZM20.9444 22.368V27.5556H28.3533L20.9444 22.368ZM0.5 20.4445V23.9476L5.50444 20.4445H0.5ZM28.3551 4.44446H20.9444V9.6329L28.3551 4.44446ZM32.5 23.9485V20.4445H27.4947L32.5 23.9485ZM32.5 11.5556V8.05246L27.4964 11.5556H32.5ZM12.0556 4.44446H4.64578L12.0556 9.6329V4.44446Z" fill="#00247D"/>
<path d="M22.8468 20.4445L31.4796 26.4898C31.9012 26.0555 32.2043 25.5202 32.3596 24.9351L25.9463 20.4445H22.8468ZM12.0556 20.4445H10.1525L1.52054 26.4889C1.98365 26.96 2.57743 27.2969 3.2432 27.4534L12.0556 21.2827V20.4445ZM20.9445 11.5556H22.8477L31.4796 5.51114C31.0086 5.03316 30.4115 4.69872 29.7579 4.54669L20.9445 10.7174V11.5556ZM10.1525 11.5556L1.52054 5.51114C1.09916 5.94578 0.795928 6.48095 0.639648 7.0658L7.05298 11.5556H10.1525Z" fill="#CF1B2B"/>
<path d="M32.5 18.6667H19.1667V27.5556H20.9444V22.368L28.3533 27.5556H28.9444C29.4167 27.5556 29.8842 27.4614 30.3195 27.2784C30.7548 27.0954 31.1492 26.8273 31.4796 26.4898L22.8467 20.4445H25.9462L32.3596 24.9351C32.4422 24.6356 32.5 24.3253 32.5 24V23.9485L27.4947 20.4445H32.5V18.6667ZM0.5 18.6667V20.4445H5.50444L0.5 23.9476V24C0.5 24.9698 0.890222 25.8471 1.52044 26.4889L10.1524 20.4445H12.0556V21.2827L3.24311 27.4525C3.50444 27.5147 3.77467 27.5556 4.05556 27.5556H4.64578L12.0556 22.3671V27.5556H13.8333V18.6667H0.5ZM32.5 8.00001C32.5005 7.06844 32.1339 6.17419 31.4796 5.51112L22.8476 11.5556H20.9444V10.7173L29.7578 4.54668C29.4915 4.48137 29.2186 4.44707 28.9444 4.44446H28.3551L20.9444 9.6329V4.44446H19.1667V13.3333H32.5V11.5556H27.4964L32.5 8.05246V8.00001ZM12.0556 4.44446V9.6329L4.64578 4.44446H4.05556C3.58322 4.44425 3.11561 4.53851 2.68025 4.7217C2.24488 4.90488 1.85055 5.17329 1.52044 5.51112L10.1524 11.5556H7.05289L0.639556 7.06579C0.55136 7.36953 0.504421 7.68376 0.5 8.00001L0.5 8.05246L5.50267 11.5556H0.5V13.3333H13.8333V4.44446H12.0556Z" fill="#EEEEEE"/>
<path d="M19.1667 13.3333V4.44446H13.8333V13.3333H0.5V18.6667H13.8333V27.5556H19.1667V18.6667H32.5V13.3333H19.1667Z" fill="#CF1B2B"/>
</g>
<defs>
<clipPath id="clip0_1181_4688">
<rect width="32" height="32" fill="white" transform="translate(0.5)"/>
</clipPath>
</defs>
</svg>
