<svg width="21" height="20" viewBox="0 0 21 20" fill="none" xmlns="http://www.w3.org/2000/svg">
<g clip-path="url(#clip0_191_3876)">
<path fill-rule="evenodd" clip-rule="evenodd" d="M10.6147 0C5.0804 0 0.606445 4.50694 0.606445 10.0826C0.606445 14.5396 3.47306 18.3123 7.44982 19.6476C7.94702 19.748 8.12914 19.4306 8.12914 19.1637C8.12914 18.93 8.11275 18.1288 8.11275 17.2939C5.32869 17.895 4.74894 16.092 4.74894 16.092C4.30152 14.9235 3.63859 14.6232 3.63859 14.6232C2.72737 14.0055 3.70497 14.0055 3.70497 14.0055C4.71575 14.0723 5.24614 15.0405 5.24614 15.0405C6.14076 16.5761 7.58237 16.1422 8.16233 15.8751C8.24509 15.224 8.51039 14.7733 8.79207 14.523C6.57159 14.2893 4.23535 13.4213 4.23535 9.54836C4.23535 8.44662 4.63278 7.54523 5.26252 6.8442C5.16317 6.59386 4.81511 5.5587 5.36209 4.17322C5.36209 4.17322 6.20714 3.90608 8.11255 5.20818C8.92832 4.98747 9.76962 4.8752 10.6147 4.87426C11.4598 4.87426 12.3212 4.99123 13.1167 5.20818C15.0223 3.90608 15.8674 4.17322 15.8674 4.17322C16.4143 5.5587 16.0661 6.59386 15.9667 6.8442C16.613 7.54523 16.9941 8.44662 16.9941 9.54836C16.9941 13.4213 14.6579 14.2725 12.4208 14.523C12.7854 14.8401 13.1001 15.441 13.1001 16.3926C13.1001 17.7446 13.0837 18.8298 13.0837 19.1635C13.0837 19.4306 13.266 19.748 13.763 19.6478C17.7398 18.3121 20.6064 14.5396 20.6064 10.0826C20.6228 4.50694 16.1324 0 10.6147 0Z" fill="#24292F"/>
</g>
<defs>
<clipPath id="clip0_191_3876">
<rect width="20" height="20" fill="white" transform="translate(0.606445)"/>
</clipPath>
</defs>
</svg>
