<svg width="21" height="20" viewBox="0 0 21 20" fill="none" xmlns="http://www.w3.org/2000/svg">
<g clip-path="url(#clip0_191_3872)">
<path d="M20.7066 10.2312C20.7066 9.55141 20.6515 8.86797 20.5339 8.19922H11.1016V12.05H16.503C16.2789 13.292 15.5587 14.3907 14.5041 15.0888V17.5874H17.7266C19.6189 15.8457 20.7066 13.2736 20.7066 10.2312Z" fill="#4285F4"/>
<path d="M11.1013 19.9998C13.7983 19.9998 16.0728 19.1143 17.73 17.5857L14.5075 15.0871C13.6109 15.697 12.4535 16.0424 11.105 16.0424C8.49611 16.0424 6.28409 14.2824 5.49041 11.916H2.16504V14.4918C3.86263 17.8686 7.32029 19.9998 11.1013 19.9998V19.9998Z" fill="#34A853"/>
<path d="M5.48701 11.9163C5.06812 10.6743 5.06812 9.32947 5.48701 8.0875V5.51172H2.16531C0.746979 8.33737 0.746979 11.6664 2.16531 14.4921L5.48701 11.9163V11.9163Z" fill="#FBBC04"/>
<path d="M11.1013 3.95805C12.527 3.936 13.9049 4.47247 14.9374 5.45722L17.7924 2.60218C15.9846 0.904587 13.5852 -0.0287217 11.1013 0.000673888C7.32028 0.000673888 3.86263 2.13185 2.16504 5.51234L5.48674 8.08813C6.27674 5.71811 8.49243 3.95805 11.1013 3.95805V3.95805Z" fill="#EA4335"/>
</g>
<defs>
<clipPath id="clip0_191_3872">
<rect width="20" height="20" fill="white" transform="translate(0.901367)"/>
</clipPath>
</defs>
</svg>
