<svg width="68" height="84" viewBox="0 0 68 84" fill="none" xmlns="http://www.w3.org/2000/svg">
<path d="M4.67188 1.25H50.2286C50.9577 1.25 51.6569 1.5395 52.1726 2.05485L65.6158 15.4898C66.1319 16.0056 66.4219 16.7053 66.4219 17.4349V80C66.4219 81.5188 65.1907 82.75 63.6719 82.75H4.67188C3.15309 82.75 1.92188 81.5188 1.92188 80V4C1.92188 2.48122 3.15309 1.25 4.67188 1.25Z" fill="white" stroke="#2C2353" stroke-width="2.5"/>
<path d="M50.6719 2.40234V13.9995C50.6719 15.6564 52.015 16.9995 53.6719 16.9995H61.6055" stroke="#2C2353" stroke-width="2.5" stroke-linecap="round" stroke-linejoin="round"/>
<path fill-rule="evenodd" clip-rule="evenodd" d="M12.8265 32.3866C12.8425 30.7298 14.1986 29.3757 15.8554 29.3621L53.1781 29.0561C54.8349 29.0426 56.1651 30.3746 56.149 32.0314L55.8776 60.0917C55.8616 61.7485 54.5055 63.1026 52.8487 63.1162L15.5259 63.4221C13.8691 63.4357 12.539 62.1036 12.555 60.4469L12.8265 32.3866Z" fill="white"/>
<path fill-rule="evenodd" clip-rule="evenodd" d="M17.1821 54.2172L22.0568 50.4447C23.5298 49.3048 25.5739 49.3076 27.0029 50.4515L30.8951 53.5669C31.2776 53.873 31.8314 53.8498 32.1984 53.5122L39.7722 46.5441C41.44 45.0097 44.0197 45.1268 45.4845 46.8034L51.7146 53.9341L52.7542 55.2122L52.8078 59.4823C52.8149 60.0451 52.3558 60.5111 51.7928 60.5127L16.5583 60.6094C16.0137 60.6109 15.5758 60.1762 15.5734 59.6317L15.5545 55.2936L17.1821 54.2172Z" fill="#E8F0FE"/>
<path fill-rule="evenodd" clip-rule="evenodd" d="M23.3916 43.1544C25.4721 43.1373 27.1738 41.5727 27.1923 39.6598C27.2108 37.7468 25.5391 36.2099 23.4586 36.2269C21.378 36.244 19.6764 37.8086 19.6579 39.7215C19.6394 41.6345 21.311 43.1714 23.3916 43.1544Z" fill="#E8F0FE" stroke="#2C2353" stroke-width="2.5"/>
<path d="M16.0153 55.2354C18.3123 53.4184 22.9062 49.7846 22.9062 49.7846C23.861 49.0457 25.2466 49.0467 26.1715 49.7871L31.1191 53.7473C31.366 53.9449 31.7407 53.9301 31.9763 53.7134L40.8171 45.5797C41.8063 44.6696 43.3965 44.6561 44.3688 45.5496C44.4316 45.6074 44.491 45.6682 44.5467 45.7319C44.5467 45.7319 51.0069 53.3074 52.5165 55.0775" stroke="#2C2353" stroke-width="2.5" stroke-linecap="round"/>
<path d="M15.8433 30.6121L53.1661 30.3061C54.1325 30.2982 54.9084 31.0752 54.8991 32.0417L54.6277 60.1019C54.6183 61.0684 53.8273 61.8583 52.8608 61.8662L15.538 62.1722C14.5716 62.1801 13.7957 61.4031 13.805 60.4366L14.0764 32.3763C14.0858 31.4099 14.8768 30.62 15.8433 30.6121Z" stroke="#2C2353" stroke-width="2.5"/>
</svg>
