<svg width="100" height="100" viewBox="0 0 100 100" fill="none" xmlns="http://www.w3.org/2000/svg">
<path d="M50 100C77.6142 100 100 77.6142 100 50C100 22.3858 77.6142 0 50 0C22.3858 0 0 22.3858 0 50C0 77.6142 22.3858 100 50 100Z" fill="#1E40AF" fill-opacity="0.22"/>
<path d="M49.9983 11.1094C28.5547 11.1094 11.1094 28.5547 11.1094 49.9983C11.1094 71.4419 28.5547 88.8872 49.9983 88.8872C71.4419 88.8872 88.8872 71.4419 88.8872 49.9983C88.8872 28.5547 71.4419 11.1094 49.9983 11.1094Z" fill="#1E40AF"/>
<path d="M52.7782 45.3715C52.7782 43.8374 51.5346 42.5938 50.0004 42.5938C48.4663 42.5938 47.2227 43.8374 47.2227 45.3715V62.0382C47.2227 63.5723 48.4663 64.816 50.0004 64.816C51.5346 64.816 52.7782 63.5723 52.7782 62.0382V45.3715Z" fill="white"/>
<path d="M50.0004 38.8876C51.5346 38.8876 52.7782 37.6439 52.7782 36.1098C52.7782 34.5757 51.5346 33.332 50.0004 33.332C48.4663 33.332 47.2227 34.5757 47.2227 36.1098C47.2227 37.6439 48.4663 38.8876 50.0004 38.8876Z" fill="white"/>
</svg>
