<?xml version="1.0" standalone="no"?>
<!DOCTYPE svg PUBLIC "-//W3C//DTD SVG 20010904//EN"
 "http://www.w3.org/TR/2001/REC-SVG-20010904/DTD/svg10.dtd">
<svg version="1.0" xmlns="http://www.w3.org/2000/svg"
 width="35px" height="35px" viewBox="0 0 512 512">

<g transform="translate(0.000000,512.000000) scale(0.100000,-0.100000)"
fill="#000000" stroke="none">
<path d="M627 3936 l-618 -613 178 -194 c934 -1018 1198 -1304 1203 -1304 5 0
282 303 575 631 147 164 404 449 715 794 152 168 318 352 369 410 52 58 151
168 221 245 70 77 176 194 235 260 59 66 161 180 227 253 l119 132 -1303 0
-1303 0 -618 -614z"/>
<path d="M3994 4223 c-49 -54 -107 -118 -129 -143 -93 -106 -204 -229 -256
-285 -31 -33 -242 -267 -470 -520 -385 -429 -518 -576 -964 -1070 -95 -104
-261 -289 -369 -409 l-196 -220 33 -35 c19 -20 111 -121 207 -224 95 -103 176
-187 180 -185 3 2 37 37 75 78 121 134 771 856 1089 1210 171 190 380 422 466
516 182 201 310 343 628 698 l233 260 -198 195 c-109 108 -208 204 -219 214
-21 17 -23 16 -110 -80z"/>
<path d="M4623 3519 c-123 -136 -290 -321 -843 -934 -129 -143 -279 -310 -334
-370 -56 -61 -193 -214 -306 -340 -113 -127 -275 -307 -360 -401 -126 -139
-427 -474 -513 -571 l-19 -22 152 -165 c84 -91 154 -166 156 -166 1 0 114 123
250 273 136 149 404 443 595 652 1675 1837 1693 1856 1687 1859 -2 0 -78 75
-169 165 l-166 163 -130 -143z"/>
</g>
</svg>
