<svg width="1440" height="1790" viewBox="0 0 1440 1790" fill="none" xmlns="http://www.w3.org/2000/svg">
<g clip-path="url(#clip0_298_1541)">
<path opacity="0.1" fill-rule="evenodd" clip-rule="evenodd" d="M429 -157H1452V738H429V-157ZM430.598 -155.402H555.277V-30.7411H430.598V-155.402ZM558.473 -155.402H683.152V-30.7411H558.473V-155.402ZM811.027 -155.402H686.348V-30.7411H811.027V-155.402ZM814.223 -155.402H938.902V-30.7411H814.223V-155.402ZM1066.78 -155.402H942.098V-30.7411H1066.78V-155.402ZM1069.97 -155.402H1194.65V-30.7411H1069.97V-155.402ZM1322.53 -155.402H1197.85V-30.7411H1322.53V-155.402ZM1325.72 -155.402H1450.4V-30.7411H1325.72V-155.402ZM555.277 -27.5446H430.598V97.1161H555.277V-27.5446ZM558.473 -27.5446H683.152V97.1161H558.473V-27.5446ZM811.027 -27.5446H686.348V97.1161H811.027V-27.5446ZM814.223 -27.5446H938.902V97.1161H814.223V-27.5446ZM1066.78 -27.5446H942.098V97.1161H1066.78V-27.5446ZM1069.97 -27.5446H1194.65V97.1161H1069.97V-27.5446ZM1322.53 -27.5446H1197.85V97.1161H1322.53V-27.5446ZM1325.72 -27.5446H1450.4V97.1161H1325.72V-27.5446ZM555.277 100.312H430.598V224.973H555.277V100.312ZM558.473 100.312H683.152V224.973H558.473V100.312ZM811.027 100.312H686.348V224.973H811.027V100.312ZM814.223 100.312H938.902V224.973H814.223V100.312ZM1066.78 100.312H942.098V224.973H1066.78V100.312ZM1069.97 100.312H1194.65V224.973H1069.97V100.312ZM1322.53 100.312H1197.85V224.973H1322.53V100.312ZM1325.72 100.312H1450.4V224.973H1325.72V100.312ZM555.277 228.17H430.598V352.83H555.277V228.17ZM558.473 228.17H683.152V352.83H558.473V228.17ZM811.027 228.17H686.348V352.83H811.027V228.17ZM814.223 228.17H938.902V352.83H814.223V228.17ZM1066.78 228.17H942.098V352.83H1066.78V228.17ZM1069.97 228.17H1194.65V352.83H1069.97V228.17ZM1322.53 228.17H1197.85V352.83H1322.53V228.17ZM1325.72 228.17H1450.4V352.83H1325.72V228.17ZM555.277 356.027H430.598V480.687H555.277V356.027ZM558.473 356.027H683.152V480.687H558.473V356.027ZM811.027 356.027H686.348V480.687H811.027V356.027ZM814.223 356.027H938.902V480.687H814.223V356.027ZM1066.78 356.027H942.098V480.687H1066.78V356.027ZM1069.97 356.027H1194.65V480.687H1069.97V356.027ZM1322.53 356.027H1197.85V480.687H1322.53V356.027ZM1325.72 356.027H1450.4V480.687H1325.72V356.027ZM555.277 483.884H430.598V608.545H555.277V483.884ZM558.473 483.884H683.152V608.545H558.473V483.884ZM811.027 483.884H686.348V608.545H811.027V483.884ZM814.223 483.884H938.902V608.545H814.223V483.884ZM1066.78 483.884H942.098V608.545H1066.78V483.884ZM1069.97 483.884H1194.65V608.545H1069.97V483.884ZM1322.53 483.884H1197.85V608.545H1322.53V483.884ZM1325.72 483.884H1450.4V608.545H1325.72V483.884ZM555.277 611.741H430.598V736.402H555.277V611.741ZM558.473 611.741H683.152V736.402H558.473V611.741ZM811.027 611.741H686.348V736.402H811.027V611.741ZM814.223 611.741H938.902V736.402H814.223V611.741ZM1066.78 611.741H942.098V736.402H1066.78V611.741ZM1069.97 611.741H1194.65V736.402H1069.97V611.741ZM1322.53 611.741H1197.85V736.402H1322.53V611.741ZM1325.72 611.741H1450.4V736.402H1325.72V611.741Z" fill="#D1D5DB"/>
<path opacity="0.1" fill-rule="evenodd" clip-rule="evenodd" d="M429 738H1452V1633H429V738ZM430.598 739.598H555.277V864.259H430.598V739.598ZM558.473 739.598H683.152V864.259H558.473V739.598ZM811.027 739.598H686.348V864.259H811.027V739.598ZM814.223 739.598H938.902V864.259H814.223V739.598ZM1066.78 739.598H942.098V864.259H1066.78V739.598ZM1069.97 739.598H1194.65V864.259H1069.97V739.598ZM1322.53 739.598H1197.85V864.259H1322.53V739.598ZM1325.72 739.598H1450.4V864.259H1325.72V739.598ZM555.277 867.455H430.598V992.116H555.277V867.455ZM558.473 867.455H683.152V992.116H558.473V867.455ZM811.027 867.455H686.348V992.116H811.027V867.455ZM814.223 867.455H938.902V992.116H814.223V867.455ZM1066.78 867.455H942.098V992.116H1066.78V867.455ZM1069.97 867.455H1194.65V992.116H1069.97V867.455ZM1322.53 867.455H1197.85V992.116H1322.53V867.455ZM1325.72 867.455H1450.4V992.116H1325.72V867.455ZM555.277 995.312H430.598V1119.97H555.277V995.312ZM558.473 995.312H683.152V1119.97H558.473V995.312ZM811.027 995.312H686.348V1119.97H811.027V995.312ZM814.223 995.312H938.902V1119.97H814.223V995.312ZM1066.78 995.312H942.098V1119.97H1066.78V995.312ZM1069.97 995.312H1194.65V1119.97H1069.97V995.312ZM1322.53 995.312H1197.85V1119.97H1322.53V995.312ZM1325.72 995.312H1450.4V1119.97H1325.72V995.312ZM555.277 1123.17H430.598V1247.83H555.277V1123.17ZM558.473 1123.17H683.152V1247.83H558.473V1123.17ZM811.027 1123.17H686.348V1247.83H811.027V1123.17ZM814.223 1123.17H938.902V1247.83H814.223V1123.17ZM1066.78 1123.17H942.098V1247.83H1066.78V1123.17ZM1069.97 1123.17H1194.65V1247.83H1069.97V1123.17ZM1322.53 1123.17H1197.85V1247.83H1322.53V1123.17ZM1325.72 1123.17H1450.4V1247.83H1325.72V1123.17ZM555.277 1251.03H430.598V1375.69H555.277V1251.03ZM558.473 1251.03H683.152V1375.69H558.473V1251.03ZM811.027 1251.03H686.348V1375.69H811.027V1251.03ZM814.223 1251.03H938.902V1375.69H814.223V1251.03ZM1066.78 1251.03H942.098V1375.69H1066.78V1251.03ZM1069.97 1251.03H1194.65V1375.69H1069.97V1251.03ZM1322.53 1251.03H1197.85V1375.69H1322.53V1251.03ZM1325.72 1251.03H1450.4V1375.69H1325.72V1251.03ZM555.277 1378.88H430.598V1503.54H555.277V1378.88ZM558.473 1378.88H683.152V1503.54H558.473V1378.88ZM811.027 1378.88H686.348V1503.54H811.027V1378.88ZM814.223 1378.88H938.902V1503.54H814.223V1378.88ZM1066.78 1378.88H942.098V1503.54H1066.78V1378.88ZM1069.97 1378.88H1194.65V1503.54H1069.97V1378.88ZM1322.53 1378.88H1197.85V1503.54H1322.53V1378.88ZM1325.72 1378.88H1450.4V1503.54H1325.72V1378.88ZM555.277 1506.74H430.598V1631.4H555.277V1506.74ZM558.473 1506.74H683.152V1631.4H558.473V1506.74ZM811.027 1506.74H686.348V1631.4H811.027V1506.74ZM814.223 1506.74H938.902V1631.4H814.223V1506.74ZM1066.78 1506.74H942.098V1631.4H1066.78V1506.74ZM1069.97 1506.74H1194.65V1631.4H1069.97V1506.74ZM1322.53 1506.74H1197.85V1631.4H1322.53V1506.74ZM1325.72 1506.74H1450.4V1631.4H1325.72V1506.74Z" fill="#D1D5DB"/>
</g>
<defs>
<clipPath id="clip0_298_1541">
<rect width="1440" height="1790" fill="white"/>
</clipPath>
</defs>
</svg>
