<svg width="910" height="1155" viewBox="0 0 910 1155" fill="none" xmlns="http://www.w3.org/2000/svg">
<path d="M201.25 1053.81L186.08 1068.98" stroke="white" stroke-opacity="0.3" stroke-miterlimit="10"/>
<path d="M201.25 1068.98L186.08 1053.81" stroke="white" stroke-opacity="0.3" stroke-miterlimit="10"/>
<path d="M96.7003 1028.73L81.5303 1043.9" stroke="white" stroke-opacity="0.3" stroke-miterlimit="10"/>
<path d="M96.7003 1043.9L81.5303 1028.73" stroke="white" stroke-opacity="0.3" stroke-miterlimit="10"/>
<path d="M60.8129 1024.36C62.1544 1018.68 58.6365 1012.99 52.9553 1011.64C47.274 1010.3 41.581 1013.82 40.2395 1019.5C38.898 1025.18 42.4161 1030.88 48.0973 1032.22C53.7785 1033.56 59.4714 1030.04 60.8129 1024.36Z" stroke="white" stroke-opacity="0.3" stroke-miterlimit="10" stroke-dasharray="5 5"/>
<path d="M194.29 894.141L89.1104 999.311" stroke="white" stroke-opacity="0.3" stroke-miterlimit="10"/>
<path d="M169.25 865L138.29 895.96" stroke="white" stroke-opacity="0.3" stroke-miterlimit="10"/>
<path d="M196.56 960.16L140.9 1015.82" stroke="white" stroke-opacity="0.3" stroke-miterlimit="10"/>
<path d="M157.86 941.949L118.03 981.789" stroke="white" stroke-opacity="0.3" stroke-miterlimit="10"/>
<path d="M165.801 1072.73L130.761 1107.76" stroke="white" stroke-opacity="0.3" stroke-miterlimit="10"/>
<path d="M165.801 1107.76L130.761 1072.73" stroke="white" stroke-opacity="0.3" stroke-miterlimit="10"/>
<path d="M52.74 1154.07C81.3152 1154.07 104.48 1130.91 104.48 1102.33C104.48 1073.75 81.3152 1050.59 52.74 1050.59C24.1648 1050.59 1 1073.75 1 1102.33C1 1130.91 24.1648 1154.07 52.74 1154.07Z" stroke="white" stroke-opacity="0.3" stroke-miterlimit="10" stroke-dasharray="5 5"/>
<path d="M821.67 228.174L806.5 243.344" stroke="white" stroke-opacity="0.3" stroke-miterlimit="10"/>
<path d="M821.67 243.344L806.5 228.174" stroke="white" stroke-opacity="0.3" stroke-miterlimit="10"/>
<path d="M657.04 117.904L622 152.944" stroke="white" stroke-opacity="0.3" stroke-miterlimit="10"/>
<path d="M657.04 152.944L622 117.904" stroke="white" stroke-opacity="0.3" stroke-miterlimit="10"/>
<path d="M858.172 218.923C868.229 214.816 873.053 203.333 868.945 193.275C864.838 183.218 853.355 178.395 843.297 182.502C833.24 186.61 828.417 198.093 832.524 208.15C836.632 218.207 848.114 223.031 858.172 218.923Z" stroke="white" stroke-opacity="0.3" stroke-miterlimit="10" stroke-dasharray="5 5"/>
<path d="M861.723 159.415C887.975 148.128 900.106 117.696 888.819 91.4441C877.532 65.1921 847.1 53.0607 820.848 64.3479C794.596 75.6351 782.465 106.067 793.752 132.319C805.039 158.571 835.471 170.702 861.723 159.415Z" stroke="white" stroke-opacity="0.3" stroke-miterlimit="10" stroke-dasharray="5 5"/>
<path d="M822.328 102.142C829.176 59.4264 800.1 19.2473 757.385 12.3991C714.669 5.551 674.49 34.6271 667.642 77.3425C660.794 120.058 689.87 160.237 732.585 167.085C775.301 173.933 815.48 144.857 822.328 102.142Z" stroke="white" stroke-opacity="0.3" stroke-miterlimit="10" stroke-dasharray="5 5"/>
<path d="M705.11 736.184L701.783 733.64C746.042 675.531 769.443 606.113 769.443 532.86C769.443 419.381 712.349 314.98 616.71 253.584L618.98 250.062C715.832 312.202 773.63 417.933 773.63 532.86C773.63 607.013 749.916 677.331 705.11 736.184Z" fill="white" fill-opacity="0.1"/>
<path d="M437.833 868.64C252.659 868.64 102 717.987 102 532.82C102 347.653 252.659 197 437.833 197V201.187C254.968 201.187 106.226 349.962 106.226 532.781C106.226 715.639 255.007 864.375 437.833 864.375C493.088 864.375 547.795 850.522 596.006 824.305L598.002 827.983C549.165 854.631 493.753 868.64 437.833 868.64Z" fill="white" fill-opacity="0.1"/>
<path d="M278.917 791.318C188.443 735.596 134.44 638.943 134.44 532.82H142.854C142.854 636.008 195.369 729.961 283.339 784.157L278.917 791.318Z" fill="white" fill-opacity="0.1"/>
<path d="M437.836 836.242C404.574 836.242 371.898 830.881 340.671 820.355L343.371 812.411C373.738 822.664 405.513 827.868 437.875 827.868C589.826 827.868 716.028 714.037 731.328 563.07L739.703 563.931C723.893 719.124 594.131 836.242 437.836 836.242Z" fill="white" fill-opacity="0.1"/>
<path d="M729.059 485.708C718.063 417.269 682.922 354.542 630.055 309.112C576.639 263.172 508.353 237.894 437.837 237.894C380.9 237.894 325.645 254.133 278.021 284.89C222.531 320.733 180.19 374.734 158.785 436.952L150.841 434.212C172.833 370.234 216.387 314.707 273.442 277.846C322.436 246.228 379.256 229.52 437.798 229.52C510.349 229.52 580.552 255.541 635.494 302.772C689.849 349.494 726.007 414.021 737.316 484.417L729.059 485.708Z" fill="white" fill-opacity="0.1"/>
<path d="M437.834 751.951C316.994 751.951 218.693 653.655 218.693 532.819C218.693 483.906 234.464 437.653 264.243 399.07L270.896 404.196C242.251 441.332 227.107 485.784 227.107 532.819C227.107 648.998 321.65 743.538 437.834 743.538C458.457 743.538 478.845 740.564 498.372 734.695L500.798 742.756C480.449 748.899 459.239 751.951 437.834 751.951Z" fill="white" fill-opacity="0.1"/>
<path d="M585.833 694.43L580.159 688.247C623.635 648.412 648.562 591.79 648.562 532.859C648.562 491.38 636.51 451.232 613.735 416.758L620.739 412.141C644.453 447.984 656.976 489.737 656.976 532.898C656.937 594.138 631.031 653.029 585.833 694.43Z" fill="white" fill-opacity="0.1"/>
<path d="M568.924 367.842C531.318 337.907 485.964 322.099 437.831 322.099C395.607 322.099 354.87 334.542 320.004 358.099L315.308 351.134C351.544 326.638 393.924 313.725 437.831 313.725C487.92 313.725 535.075 330.16 574.168 361.308L568.924 367.842Z" fill="white" fill-opacity="0.1"/>
<path d="M437.831 714.314C408.325 714.314 379.015 707.075 353.109 693.379L355.066 689.662C380.385 703.045 408.99 710.127 437.792 710.127C517.348 710.127 587.629 656.636 608.721 580.018L612.752 581.152C591.229 659.57 519.265 714.314 437.831 714.314Z" fill="white" fill-opacity="0.1"/>
<path d="M309.52 661.208C275.24 626.93 256.339 581.342 256.339 532.859C256.339 432.802 337.734 351.371 437.834 351.371C537.896 351.371 619.33 432.802 619.33 532.859H615.143C615.143 435.111 535.626 355.597 437.873 355.597C340.121 355.597 260.604 435.111 260.604 532.859C260.604 580.208 279.036 624.739 312.572 658.234L309.52 661.208Z" fill="white" fill-opacity="0.1"/>
<path d="M437.831 645.712C375.572 645.712 324.935 595.077 324.935 532.82C324.935 470.563 375.572 419.928 437.831 419.928V428.341C380.229 428.341 333.348 475.219 333.348 532.82C333.348 590.42 380.229 637.299 437.831 637.299C495.434 637.299 542.314 590.42 542.314 532.82H550.728C550.689 595.077 500.052 645.712 437.831 645.712Z" fill="white" fill-opacity="0.1"/>
<path d="M437.835 588.934C406.882 588.934 381.72 563.773 381.72 532.82H385.907C385.907 561.425 409.191 584.708 437.796 584.708C466.402 584.708 489.686 561.425 489.686 532.82C489.686 504.216 466.402 480.933 437.796 480.933C421.909 480.933 407.117 488.055 397.177 500.498L393.89 497.877C404.612 484.416 420.617 476.707 437.796 476.707C468.75 476.707 493.912 501.868 493.912 532.82C493.912 563.773 468.75 588.934 437.835 588.934Z" fill="white" fill-opacity="0.1"/>
</svg>
