<svg width="122" height="30" viewBox="0 0 122 30" fill="none" xmlns="http://www.w3.org/2000/svg">
<path d="M12.78 6.32C12.38 5.74 11.84 5.32 11.16 5.06C10.5 4.78 9.8 4.64 9.06 4.64C8.62 4.64 8.19 4.69 7.77 4.79C7.37 4.89 7 5.05 6.66 5.27C6.34 5.49 6.08 5.78 5.88 6.14C5.68 6.48 5.58 6.89 5.58 7.37C5.58 8.09 5.83 8.64 6.33 9.02C6.83 9.4 7.45 9.73 8.19 10.01C8.93 10.29 9.74 10.56 10.62 10.82C11.5 11.08 12.31 11.44 13.05 11.9C13.79 12.36 14.41 12.97 14.91 13.73C15.41 14.49 15.66 15.5 15.66 16.76C15.66 17.9 15.45 18.9 15.03 19.76C14.61 20.6 14.04 21.3 13.32 21.86C12.62 22.42 11.8 22.84 10.86 23.12C9.92 23.4 8.93 23.54 7.89 23.54C6.57 23.54 5.3 23.32 4.08 22.88C2.86 22.44 1.81 21.7 0.93 20.66L3.78 17.9C4.24 18.6 4.84 19.15 5.58 19.55C6.34 19.93 7.14 20.12 7.98 20.12C8.42 20.12 8.86 20.06 9.3 19.94C9.74 19.82 10.14 19.64 10.5 19.4C10.86 19.16 11.15 18.86 11.37 18.5C11.59 18.12 11.7 17.69 11.7 17.21C11.7 16.43 11.45 15.83 10.95 15.41C10.45 14.99 9.83 14.64 9.09 14.36C8.35 14.06 7.54 13.78 6.66 13.52C5.78 13.26 4.97 12.91 4.23 12.47C3.49 12.01 2.87 11.41 2.37 10.67C1.87 9.91 1.62 8.9 1.62 7.64C1.62 6.54 1.84 5.59 2.28 4.79C2.74 3.99 3.33 3.33 4.05 2.81C4.79 2.27 5.63 1.87 6.57 1.61C7.51 1.35 8.47 1.22 9.45 1.22C10.57 1.22 11.65 1.39 12.69 1.73C13.75 2.07 14.7 2.63 15.54 3.41L12.78 6.32ZM17.5866 11.66V8.6H20.5566V4.43H24.1566V8.6H28.1166V11.66H24.1566V17.96C24.1566 18.68 24.2866 19.25 24.5466 19.67C24.8266 20.09 25.3666 20.3 26.1666 20.3C26.4866 20.3 26.8366 20.27 27.2166 20.21C27.5966 20.13 27.8966 20.01 28.1166 19.85V22.88C27.7366 23.06 27.2666 23.18 26.7066 23.24C26.1666 23.32 25.6866 23.36 25.2666 23.36C24.3066 23.36 23.5166 23.25 22.8966 23.03C22.2966 22.83 21.8166 22.52 21.4566 22.1C21.1166 21.66 20.8766 21.12 20.7366 20.48C20.6166 19.84 20.5566 19.1 20.5566 18.26V11.66H17.5866ZM33.8067 17.06C33.9267 18.14 34.3467 18.98 35.0667 19.58C35.7867 20.18 36.6567 20.48 37.6767 20.48C38.5767 20.48 39.3267 20.3 39.9267 19.94C40.5467 19.56 41.0867 19.09 41.5467 18.53L44.1267 20.48C43.2867 21.52 42.3467 22.26 41.3067 22.7C40.2667 23.14 39.1767 23.36 38.0367 23.36C36.9567 23.36 35.9367 23.18 34.9767 22.82C34.0167 22.46 33.1867 21.95 32.4867 21.29C31.7867 20.63 31.2267 19.84 30.8067 18.92C30.4067 17.98 30.2067 16.94 30.2067 15.8C30.2067 14.66 30.4067 13.63 30.8067 12.71C31.2267 11.77 31.7867 10.97 32.4867 10.31C33.1867 9.65 34.0167 9.14 34.9767 8.78C35.9367 8.42 36.9567 8.24 38.0367 8.24C39.0367 8.24 39.9467 8.42 40.7667 8.78C41.6067 9.12 42.3167 9.62 42.8967 10.28C43.4967 10.94 43.9567 11.76 44.2767 12.74C44.6167 13.7 44.7867 14.81 44.7867 16.07V17.06H33.8067ZM41.1867 14.36C41.1667 13.3 40.8367 12.47 40.1967 11.87C39.5567 11.25 38.6667 10.94 37.5267 10.94C36.4467 10.94 35.5867 11.25 34.9467 11.87C34.3267 12.49 33.9467 13.32 33.8067 14.36H41.1867ZM48.0033 8.6H51.4233V10.85H51.4833C51.8033 10.17 52.3133 9.57 53.0133 9.05C53.7333 8.51 54.6933 8.24 55.8933 8.24C58.1533 8.24 59.6533 9.13 60.3933 10.91C60.9133 9.99 61.5633 9.32 62.3433 8.9C63.1233 8.46 64.0533 8.24 65.1333 8.24C66.0933 8.24 66.9033 8.4 67.5633 8.72C68.2233 9.04 68.7533 9.48 69.1533 10.04C69.5733 10.6 69.8733 11.26 70.0533 12.02C70.2333 12.76 70.3233 13.56 70.3233 14.42V23H66.7233V14.84C66.7233 14.4 66.6833 13.98 66.6033 13.58C66.5233 13.16 66.3833 12.8 66.1833 12.5C65.9833 12.18 65.7133 11.93 65.3733 11.75C65.0333 11.57 64.5933 11.48 64.0533 11.48C63.4933 11.48 63.0133 11.59 62.6133 11.81C62.2333 12.01 61.9133 12.29 61.6533 12.65C61.4133 12.99 61.2333 13.39 61.1133 13.85C61.0133 14.29 60.9633 14.74 60.9633 15.2V23H57.3633V14.42C57.3633 13.52 57.1733 12.81 56.7933 12.29C56.4133 11.75 55.7833 11.48 54.9033 11.48C54.3033 11.48 53.7933 11.58 53.3733 11.78C52.9733 11.98 52.6333 12.25 52.3533 12.59C52.0933 12.93 51.9033 13.32 51.7833 13.76C51.6633 14.2 51.6033 14.66 51.6033 15.14V23H48.0033V8.6ZM74.2568 8.6H77.6768V10.76H77.7368C78.2568 9.88 78.9568 9.24 79.8368 8.84C80.7168 8.44 81.6668 8.24 82.6868 8.24C83.7868 8.24 84.7768 8.44 85.6568 8.84C86.5368 9.22 87.2868 9.75 87.9068 10.43C88.5268 11.11 88.9968 11.91 89.3168 12.83C89.6368 13.75 89.7968 14.74 89.7968 15.8C89.7968 16.86 89.6268 17.85 89.2868 18.77C88.9468 19.69 88.4668 20.49 87.8468 21.17C87.2468 21.85 86.5168 22.39 85.6568 22.79C84.7968 23.17 83.8568 23.36 82.8368 23.36C82.1568 23.36 81.5568 23.29 81.0368 23.15C80.5168 23.01 80.0568 22.83 79.6568 22.61C79.2568 22.39 78.9168 22.16 78.6368 21.92C78.3568 21.66 78.1268 21.41 77.9468 21.17H77.8568V29.84H74.2568V8.6ZM86.1968 15.8C86.1968 15.24 86.0968 14.7 85.8968 14.18C85.7168 13.66 85.4368 13.2 85.0568 12.8C84.6968 12.4 84.2568 12.08 83.7368 11.84C83.2168 11.6 82.6268 11.48 81.9668 11.48C81.3068 11.48 80.7168 11.6 80.1968 11.84C79.6768 12.08 79.2268 12.4 78.8468 12.8C78.4868 13.2 78.2068 13.66 78.0068 14.18C77.8268 14.7 77.7368 15.24 77.7368 15.8C77.7368 16.36 77.8268 16.9 78.0068 17.42C78.2068 17.94 78.4868 18.4 78.8468 18.8C79.2268 19.2 79.6768 19.52 80.1968 19.76C80.7168 20 81.3068 20.12 81.9668 20.12C82.6268 20.12 83.2168 20 83.7368 19.76C84.2568 19.52 84.6968 19.2 85.0568 18.8C85.4368 18.4 85.7168 17.94 85.8968 17.42C86.0968 16.9 86.1968 16.36 86.1968 15.8ZM93.2133 0.319999H96.8133V23H93.2133V0.319999ZM101.036 8.6H104.636V23H101.036V8.6ZM100.526 3.71C100.526 3.13 100.736 2.63 101.156 2.21C101.596 1.77 102.146 1.55 102.806 1.55C103.466 1.55 104.016 1.76 104.456 2.18C104.916 2.58 105.146 3.09 105.146 3.71C105.146 4.33 104.916 4.85 104.456 5.27C104.016 5.67 103.466 5.87 102.806 5.87C102.146 5.87 101.596 5.66 101.156 5.24C100.736 4.8 100.526 4.29 100.526 3.71ZM108.769 8.6H112.189V10.91H112.249C112.589 10.19 113.109 9.57 113.809 9.05C114.509 8.51 115.459 8.24 116.659 8.24C117.619 8.24 118.429 8.4 119.089 8.72C119.769 9.04 120.319 9.46 120.739 9.98C121.159 10.5 121.459 11.1 121.639 11.78C121.819 12.46 121.909 13.17 121.909 13.91V23H118.309V15.71C118.309 15.31 118.289 14.87 118.249 14.39C118.209 13.89 118.099 13.43 117.919 13.01C117.759 12.57 117.499 12.21 117.139 11.93C116.779 11.63 116.289 11.48 115.669 11.48C115.069 11.48 114.559 11.58 114.139 11.78C113.739 11.98 113.399 12.25 113.119 12.59C112.859 12.93 112.669 13.32 112.549 13.76C112.429 14.2 112.369 14.66 112.369 15.14V23H108.769V8.6Z" fill="#282661"/>
</svg>
