<svg width="164" height="48" viewBox="0 0 164 48" fill="none" xmlns="http://www.w3.org/2000/svg">
<path d="M52.78 16.32C52.38 15.74 51.84 15.32 51.16 15.06C50.5 14.78 49.8 14.64 49.06 14.64C48.62 14.64 48.19 14.69 47.77 14.79C47.37 14.89 47 15.05 46.66 15.27C46.34 15.49 46.08 15.78 45.88 16.14C45.68 16.48 45.58 16.89 45.58 17.37C45.58 18.09 45.83 18.64 46.33 19.02C46.83 19.4 47.45 19.73 48.19 20.01C48.93 20.29 49.74 20.56 50.62 20.82C51.5 21.08 52.31 21.44 53.05 21.9C53.79 22.36 54.41 22.97 54.91 23.73C55.41 24.49 55.66 25.5 55.66 26.76C55.66 27.9 55.45 28.9 55.03 29.76C54.61 30.6 54.04 31.3 53.32 31.86C52.62 32.42 51.8 32.84 50.86 33.12C49.92 33.4 48.93 33.54 47.89 33.54C46.57 33.54 45.3 33.32 44.08 32.88C42.86 32.44 41.81 31.7 40.93 30.66L43.78 27.9C44.24 28.6 44.84 29.15 45.58 29.55C46.34 29.93 47.14 30.12 47.98 30.12C48.42 30.12 48.86 30.06 49.3 29.94C49.74 29.82 50.14 29.64 50.5 29.4C50.86 29.16 51.15 28.86 51.37 28.5C51.59 28.12 51.7 27.69 51.7 27.21C51.7 26.43 51.45 25.83 50.95 25.41C50.45 24.99 49.83 24.64 49.09 24.36C48.35 24.06 47.54 23.78 46.66 23.52C45.78 23.26 44.97 22.91 44.23 22.47C43.49 22.01 42.87 21.41 42.37 20.67C41.87 19.91 41.62 18.9 41.62 17.64C41.62 16.54 41.84 15.59 42.28 14.79C42.74 13.99 43.33 13.33 44.05 12.81C44.79 12.27 45.63 11.87 46.57 11.61C47.51 11.35 48.47 11.22 49.45 11.22C50.57 11.22 51.65 11.39 52.69 11.73C53.75 12.07 54.7 12.63 55.54 13.41L52.78 16.32ZM57.5866 21.66V18.6H60.5566V14.43H64.1566V18.6H68.1166V21.66H64.1566V27.96C64.1566 28.68 64.2866 29.25 64.5466 29.67C64.8266 30.09 65.3666 30.3 66.1666 30.3C66.4866 30.3 66.8366 30.27 67.2166 30.21C67.5966 30.13 67.8966 30.01 68.1166 29.85V32.88C67.7366 33.06 67.2666 33.18 66.7066 33.24C66.1666 33.32 65.6866 33.36 65.2666 33.36C64.3066 33.36 63.5166 33.25 62.8966 33.03C62.2966 32.83 61.8166 32.52 61.4566 32.1C61.1166 31.66 60.8766 31.12 60.7366 30.48C60.6166 29.84 60.5566 29.1 60.5566 28.26V21.66H57.5866ZM73.8067 27.06C73.9267 28.14 74.3467 28.98 75.0667 29.58C75.7867 30.18 76.6567 30.48 77.6767 30.48C78.5767 30.48 79.3267 30.3 79.9267 29.94C80.5467 29.56 81.0867 29.09 81.5467 28.53L84.1267 30.48C83.2867 31.52 82.3467 32.26 81.3067 32.7C80.2667 33.14 79.1767 33.36 78.0367 33.36C76.9567 33.36 75.9367 33.18 74.9767 32.82C74.0167 32.46 73.1867 31.95 72.4867 31.29C71.7867 30.63 71.2267 29.84 70.8067 28.92C70.4067 27.98 70.2067 26.94 70.2067 25.8C70.2067 24.66 70.4067 23.63 70.8067 22.71C71.2267 21.77 71.7867 20.97 72.4867 20.31C73.1867 19.65 74.0167 19.14 74.9767 18.78C75.9367 18.42 76.9567 18.24 78.0367 18.24C79.0367 18.24 79.9467 18.42 80.7667 18.78C81.6067 19.12 82.3167 19.62 82.8967 20.28C83.4967 20.94 83.9567 21.76 84.2767 22.74C84.6167 23.7 84.7867 24.81 84.7867 26.07V27.06H73.8067ZM81.1867 24.36C81.1667 23.3 80.8367 22.47 80.1967 21.87C79.5567 21.25 78.6667 20.94 77.5267 20.94C76.4467 20.94 75.5867 21.25 74.9467 21.87C74.3267 22.49 73.9467 23.32 73.8067 24.36H81.1867ZM88.0033 18.6H91.4233V20.85H91.4833C91.8033 20.17 92.3133 19.57 93.0133 19.05C93.7333 18.51 94.6933 18.24 95.8933 18.24C98.1533 18.24 99.6533 19.13 100.393 20.91C100.913 19.99 101.563 19.32 102.343 18.9C103.123 18.46 104.053 18.24 105.133 18.24C106.093 18.24 106.903 18.4 107.563 18.72C108.223 19.04 108.753 19.48 109.153 20.04C109.573 20.6 109.873 21.26 110.053 22.02C110.233 22.76 110.323 23.56 110.323 24.42V33H106.723V24.84C106.723 24.4 106.683 23.98 106.603 23.58C106.523 23.16 106.383 22.8 106.183 22.5C105.983 22.18 105.713 21.93 105.373 21.75C105.033 21.57 104.593 21.48 104.053 21.48C103.493 21.48 103.013 21.59 102.613 21.81C102.233 22.01 101.913 22.29 101.653 22.65C101.413 22.99 101.233 23.39 101.113 23.85C101.013 24.29 100.963 24.74 100.963 25.2V33H97.3633V24.42C97.3633 23.52 97.1733 22.81 96.7933 22.29C96.4133 21.75 95.7833 21.48 94.9033 21.48C94.3033 21.48 93.7933 21.58 93.3733 21.78C92.9733 21.98 92.6333 22.25 92.3533 22.59C92.0933 22.93 91.9033 23.32 91.7833 23.76C91.6633 24.2 91.6033 24.66 91.6033 25.14V33H88.0033V18.6ZM114.257 18.6H117.677V20.76H117.737C118.257 19.88 118.957 19.24 119.837 18.84C120.717 18.44 121.667 18.24 122.687 18.24C123.787 18.24 124.777 18.44 125.657 18.84C126.537 19.22 127.287 19.75 127.907 20.43C128.527 21.11 128.997 21.91 129.317 22.83C129.637 23.75 129.797 24.74 129.797 25.8C129.797 26.86 129.627 27.85 129.287 28.77C128.947 29.69 128.467 30.49 127.847 31.17C127.247 31.85 126.517 32.39 125.657 32.79C124.797 33.17 123.857 33.36 122.837 33.36C122.157 33.36 121.557 33.29 121.037 33.15C120.517 33.01 120.057 32.83 119.657 32.61C119.257 32.39 118.917 32.16 118.637 31.92C118.357 31.66 118.127 31.41 117.947 31.17H117.857V39.84H114.257V18.6ZM126.197 25.8C126.197 25.24 126.097 24.7 125.897 24.18C125.717 23.66 125.437 23.2 125.057 22.8C124.697 22.4 124.257 22.08 123.737 21.84C123.217 21.6 122.627 21.48 121.967 21.48C121.307 21.48 120.717 21.6 120.197 21.84C119.677 22.08 119.227 22.4 118.847 22.8C118.487 23.2 118.207 23.66 118.007 24.18C117.827 24.7 117.737 25.24 117.737 25.8C117.737 26.36 117.827 26.9 118.007 27.42C118.207 27.94 118.487 28.4 118.847 28.8C119.227 29.2 119.677 29.52 120.197 29.76C120.717 30 121.307 30.12 121.967 30.12C122.627 30.12 123.217 30 123.737 29.76C124.257 29.52 124.697 29.2 125.057 28.8C125.437 28.4 125.717 27.94 125.897 27.42C126.097 26.9 126.197 26.36 126.197 25.8ZM133.213 10.32H136.813V33H133.213V10.32ZM141.036 18.6H144.636V33H141.036V18.6ZM140.526 13.71C140.526 13.13 140.736 12.63 141.156 12.21C141.596 11.77 142.146 11.55 142.806 11.55C143.466 11.55 144.016 11.76 144.456 12.18C144.916 12.58 145.146 13.09 145.146 13.71C145.146 14.33 144.916 14.85 144.456 15.27C144.016 15.67 143.466 15.87 142.806 15.87C142.146 15.87 141.596 15.66 141.156 15.24C140.736 14.8 140.526 14.29 140.526 13.71ZM148.769 18.6H152.189V20.91H152.249C152.589 20.19 153.109 19.57 153.809 19.05C154.509 18.51 155.459 18.24 156.659 18.24C157.619 18.24 158.429 18.4 159.089 18.72C159.769 19.04 160.319 19.46 160.739 19.98C161.159 20.5 161.459 21.1 161.639 21.78C161.819 22.46 161.909 23.17 161.909 23.91V33H158.309V25.71C158.309 25.31 158.289 24.87 158.249 24.39C158.209 23.89 158.099 23.43 157.919 23.01C157.759 22.57 157.499 22.21 157.139 21.93C156.779 21.63 156.289 21.48 155.669 21.48C155.069 21.48 154.559 21.58 154.139 21.78C153.739 21.98 153.399 22.25 153.119 22.59C152.859 22.93 152.669 23.32 152.549 23.76C152.429 24.2 152.369 24.66 152.369 25.14V33H148.769V18.6Z" fill="white"/>
<path fill-rule="evenodd" clip-rule="evenodd" d="M2.67173 23.7297H13.6957L24.7197 0H13.6957L2.67173 23.7297ZM24.7189 47.46H13.6949L2.6709 23.7302H13.6949L24.7189 47.46Z" fill="white" fill-opacity="0.6"/>
<path fill-rule="evenodd" clip-rule="evenodd" d="M22.0488 23.7297H11.0247L0.000743455 0H11.0247L22.0488 23.7297ZM0 47.46H11.024L22.048 23.7303H11.024L0 47.46Z" fill="white"/>
</svg>
