<svg width="100" height="100" viewBox="0 0 100 100" fill="none" xmlns="http://www.w3.org/2000/svg">
<path d="M50 100C77.6142 100 100 77.6142 100 50C100 22.3858 77.6142 0 50 0C22.3858 0 0 22.3858 0 50C0 77.6142 22.3858 100 50 100Z" fill="#55AC7D" fill-opacity="0.22"/>
<path d="M49.9983 11.1094C28.5547 11.1094 11.1094 28.5547 11.1094 49.9983C11.1094 71.4419 28.5547 88.8872 49.9983 88.8872C71.4419 88.8872 88.8872 71.4419 88.8872 49.9983C88.8872 28.5547 71.4419 11.1094 49.9983 11.1094Z" fill="#55AC7D"/>
<path d="M69.4205 37.214C68.2234 35.9516 66.2275 35.896 64.9631 37.0962L44.8334 56.1866L35.2321 46.3287C34.0161 45.081 32.0222 45.0537 30.7735 46.2699C29.5259 47.4849 29.4996 49.4808 30.7146 50.7284L42.4864 62.8145C43.1033 63.4483 43.9231 63.7678 44.7452 63.7678C45.5251 63.7678 46.305 63.4797 46.9156 62.9028L69.303 41.6716C70.5663 40.4733 70.6198 38.4774 69.4205 37.214Z" fill="white"/>
</svg>
