<svg width="167" height="102" viewBox="0 0 167 102" fill="none" xmlns="http://www.w3.org/2000/svg">
<path fill-rule="evenodd" clip-rule="evenodd" d="M106.673 14.0007L115.975 81.8434L116.811 88.6497C117.08 90.8424 115.521 92.8382 113.328 93.1074L54.7679 100.298C52.5753 100.567 50.5795 99.0076 50.3103 96.815L41.2945 23.3874C41.1599 22.2911 41.9395 21.2932 43.0359 21.1586C43.0428 21.1578 43.0497 21.1569 43.0567 21.1562L47.915 20.6112M51.8436 20.1705L56.4306 19.656Z" fill="white"/>
<path d="M107.912 13.8309C107.818 13.1469 107.187 12.6685 106.503 12.7623C105.82 12.856 105.341 13.4865 105.435 14.1705L107.912 13.8309ZM115.975 81.8434L117.216 81.6911L117.215 81.6823L117.214 81.6736L115.975 81.8434ZM116.811 88.6497L118.052 88.4974L116.811 88.6497ZM113.328 93.1074L113.481 94.3481L113.328 93.1074ZM54.7679 100.298L54.9203 101.538L54.7679 100.298ZM50.3103 96.815L51.551 96.6626L50.3103 96.815ZM41.2945 23.3874L42.5352 23.2351L41.2945 23.3874ZM43.0567 21.1562L43.196 22.3984L43.0567 21.1562ZM48.0544 21.8534C48.7404 21.7764 49.2342 21.1579 49.1572 20.4718C49.0803 19.7858 48.4617 19.292 47.7757 19.369L48.0544 21.8534ZM51.7042 18.9283C51.0182 19.0053 50.5244 19.6238 50.6014 20.3098C50.6783 20.9959 51.2969 21.4897 51.9829 21.4127L51.7042 18.9283ZM56.57 20.8982C57.256 20.8212 57.7498 20.2027 57.6728 19.5166C57.5959 18.8306 56.9773 18.3368 56.2913 18.4137L56.57 20.8982ZM105.435 14.1705L114.737 82.0132L117.214 81.6736L107.912 13.8309L105.435 14.1705ZM114.734 81.9957L115.57 88.8021L118.052 88.4974L117.216 81.6911L114.734 81.9957ZM115.57 88.8021C115.755 90.3095 114.683 91.6816 113.176 91.8667L113.481 94.3481C116.358 93.9947 118.405 91.3753 118.052 88.4974L115.57 88.8021ZM113.176 91.8667L54.6156 99.057L54.9203 101.538L113.481 94.3481L113.176 91.8667ZM54.6156 99.057C53.1081 99.2421 51.7361 98.1701 51.551 96.6626L49.0696 96.9673C49.423 99.8452 52.0424 101.892 54.9203 101.538L54.6156 99.057ZM51.551 96.6626L42.5352 23.2351L40.0538 23.5398L49.0696 96.9673L51.551 96.6626ZM42.5352 23.2351C42.4847 22.824 42.7771 22.4498 43.1882 22.3993L42.8835 19.9179C41.102 20.1367 39.8351 21.7582 40.0538 23.5398L42.5352 23.2351ZM43.1882 22.3993C43.1908 22.399 43.1934 22.3987 43.196 22.3984L42.9173 19.914C42.9061 19.9152 42.8948 19.9165 42.8835 19.9179L43.1882 22.3993ZM43.196 22.3984L48.0544 21.8534L47.7757 19.369L42.9173 19.914L43.196 22.3984ZM51.9829 21.4127L56.57 20.8982L56.2913 18.4137L51.7042 18.9283L51.9829 21.4127Z" fill="#2C2353"/>
<path fill-rule="evenodd" clip-rule="evenodd" d="M104.141 18.2686L112.56 79.7523L113.318 85.9205C113.562 87.9077 112.168 89.714 110.204 89.9551L57.762 96.3941C55.7984 96.6352 54.0088 95.2198 53.7648 93.2327L45.6148 26.8562C45.4802 25.7599 46.2598 24.762 47.3562 24.6274L53.8438 23.8308" fill="#E8F0FE"/>
<path d="M63.6719 1.25H109.229C109.958 1.25 110.657 1.5395 111.173 2.05485L124.616 15.4898C125.132 16.0056 125.422 16.7053 125.422 17.4349V80C125.422 81.5188 124.191 82.75 122.672 82.75H63.6719C62.1531 82.75 60.9219 81.5188 60.9219 80V4C60.9219 2.48122 62.1531 1.25 63.6719 1.25Z" fill="white" stroke="#2C2353" stroke-width="2.5"/>
<path d="M109.672 2.40234V13.9995C109.672 15.6564 111.015 16.9995 112.672 16.9995H120.605" stroke="#2C2353" stroke-width="2.5" stroke-linecap="round" stroke-linejoin="round"/>
<path d="M102.65 34.839C101.733 32.5564 100.151 30.6626 98.1454 29.4476C96.1402 28.2326 93.8227 27.7635 91.5479 28.1122C89.2731 28.4609 87.1666 29.6081 85.5512 31.3781C83.9357 33.148 82.9004 35.4431 82.6039 37.9116C81.1734 38.2828 79.9185 39.2103 79.0776 40.5179C78.2366 41.8256 77.8681 43.4223 78.0422 45.005C78.2162 46.5876 78.9206 48.0459 80.0215 49.1028C81.1225 50.1598 82.5434 50.7419 84.0143 50.7385C84.4123 50.7385 84.7939 50.5673 85.0753 50.2624C85.3567 49.9575 85.5148 49.544 85.5148 49.1128C85.5148 48.6817 85.3567 48.2681 85.0753 47.9633C84.7939 47.6584 84.4123 47.4871 84.0143 47.4871C83.2185 47.4871 82.4552 47.1445 81.8924 46.5348C81.3297 45.925 81.0135 45.098 81.0135 44.2356C81.0135 43.3733 81.3297 42.5463 81.8924 41.9365C82.4552 41.3268 83.2185 40.9842 84.0143 40.9842C84.4123 40.9842 84.7939 40.8129 85.0753 40.508C85.3567 40.2032 85.5148 39.7896 85.5148 39.3585C85.5186 37.4357 86.1514 35.5766 87.3007 34.1116C88.45 32.6465 90.0414 31.6703 91.7922 31.3564C93.5429 31.0426 95.3397 31.4113 96.8633 32.3971C98.3869 33.383 99.5386 34.9221 100.114 36.7411C100.2 37.0204 100.354 37.2693 100.56 37.4611C100.766 37.653 101.016 37.7806 101.284 37.8303C102.284 38.0349 103.19 38.6002 103.854 39.4341C104.519 40.268 104.904 41.3213 104.946 42.4224C104.988 43.5235 104.684 44.6074 104.084 45.4976C103.485 46.3878 102.625 47.0317 101.644 47.3245C101.258 47.4323 100.928 47.7018 100.725 48.0738C100.522 48.4458 100.465 48.8897 100.564 49.3079C100.663 49.7261 100.912 50.0844 101.256 50.3039C101.599 50.5235 102.009 50.5862 102.395 50.4784C103.974 50.0263 105.373 49.0283 106.381 47.6358C107.389 46.2433 107.95 44.5325 107.979 42.7632C108.008 40.9938 107.503 39.2626 106.541 37.8324C105.579 36.4023 104.213 35.3512 102.65 34.839V34.839ZM94.0822 38.2042C93.9395 38.0562 93.7712 37.9402 93.587 37.8628C93.2217 37.7002 92.812 37.7002 92.4467 37.8628C92.2625 37.9402 92.0943 38.0562 91.9516 38.2042L87.4503 43.0814C87.1678 43.3875 87.009 43.8027 87.009 44.2356C87.009 44.6686 87.1678 45.0838 87.4503 45.3899C87.7328 45.696 88.116 45.868 88.5156 45.868C88.9152 45.868 89.2984 45.696 89.5809 45.3899L91.5165 43.2765V52.3643C91.5165 52.7954 91.6745 53.209 91.9559 53.5138C92.2373 53.8187 92.6189 53.99 93.0169 53.99C93.4148 53.99 93.7964 53.8187 94.0778 53.5138C94.3592 53.209 94.5173 52.7954 94.5173 52.3643V43.2765L96.4528 45.3899C96.5923 45.5423 96.7583 45.6632 96.9411 45.7458C97.124 45.8283 97.3201 45.8708 97.5181 45.8708C97.7162 45.8708 97.9123 45.8283 98.0952 45.7458C98.278 45.6632 98.444 45.5423 98.5834 45.3899C98.7241 45.2388 98.8357 45.059 98.9119 44.8609C98.988 44.6628 99.0273 44.4503 99.0273 44.2356C99.0273 44.021 98.988 43.8085 98.9119 43.6104C98.8357 43.4123 98.7241 43.2325 98.5834 43.0814L94.0822 38.2042Z" fill="#2C2353"/>
</svg>
