<svg width="112" height="112" viewBox="0 0 112 112" fill="none" xmlns="http://www.w3.org/2000/svg">
<circle opacity="0.22" cx="56" cy="56" r="54" fill="#F8BE5F"/>
<path d="M56 14C32.8409 14 14 32.8409 14 56C14 79.1591 32.8409 98 56 98C79.1591 98 98 79.1591 98 56C98 32.8409 79.1591 14 56 14Z" fill="#F7B345"/>
<path d="M56.0009 58.6668C55.6218 58.6668 55.2512 58.7792 54.936 58.9898C54.6208 59.2004 54.3752 59.4997 54.2301 59.85C54.085 60.2002 54.0471 60.5856 54.121 60.9574C54.195 61.3292 54.3775 61.6707 54.6456 61.9387C54.9136 62.2068 55.2552 62.3893 55.627 62.4633C55.9987 62.5372 56.3841 62.4993 56.7344 62.3542C57.0846 62.2091 57.3839 61.9635 57.5945 61.6483C57.8051 61.3331 57.9175 60.9625 57.9175 60.5834C57.9175 60.0751 57.7156 59.5876 57.3562 59.2282C56.9967 58.8687 56.5092 58.6668 56.0009 58.6668ZM76.4517 61.4843L61.0225 34.6509C60.5238 33.7569 59.7955 33.0121 58.9127 32.4937C58.0299 31.9752 57.0246 31.7019 56.0009 31.7019C54.9771 31.7019 53.9719 31.9752 53.0891 32.4937C52.2063 33.0121 51.4779 33.7569 50.9792 34.6509L35.6459 61.4843C35.1299 62.3545 34.8526 63.3454 34.8421 64.357C34.8316 65.3686 35.0881 66.3651 35.5859 67.2459C36.0836 68.1266 36.8049 68.8605 37.6769 69.3733C38.549 69.8862 39.5409 70.1599 40.5525 70.1668H71.4492C72.469 70.1768 73.4731 69.9155 74.3585 69.4095C75.244 68.9036 75.979 68.1712 76.4881 67.2876C76.9972 66.404 77.2622 65.4008 77.2558 64.381C77.2494 63.3612 76.9719 62.3615 76.4517 61.4843V61.4843ZM73.1359 65.3176C72.9679 65.6165 72.7228 65.8649 72.4261 66.0368C72.1294 66.2087 71.7921 66.2979 71.4492 66.2951H40.5525C40.2097 66.2979 39.8723 66.2087 39.5756 66.0368C39.279 65.8649 39.0339 65.6165 38.8659 65.3176C38.6977 65.0262 38.6091 64.6957 38.6091 64.3593C38.6091 64.0228 38.6977 63.6923 38.8659 63.4009L54.1992 36.5676C54.3601 36.2537 54.6044 35.9902 54.9054 35.8062C55.2064 35.6222 55.5523 35.5249 55.905 35.5249C56.2578 35.5249 56.6037 35.6222 56.9047 35.8062C57.2057 35.9902 57.45 36.2537 57.6109 36.5676L73.04 63.4009C73.2302 63.6881 73.3395 64.0213 73.3563 64.3653C73.3732 64.7093 73.297 65.0515 73.1359 65.3559V65.3176ZM56.0009 43.3334C55.4925 43.3334 55.005 43.5354 54.6456 43.8948C54.2861 44.2543 54.0842 44.7418 54.0842 45.2501V52.9168C54.0842 53.4251 54.2861 53.9126 54.6456 54.2721C55.005 54.6315 55.4925 54.8334 56.0009 54.8334C56.5092 54.8334 56.9967 54.6315 57.3562 54.2721C57.7156 53.9126 57.9175 53.4251 57.9175 52.9168V45.2501C57.9175 44.7418 57.7156 44.2543 57.3562 43.8948C56.9967 43.5354 56.5092 43.3334 56.0009 43.3334Z" fill="white"/>
</svg>


