<svg width="588" height="536" viewBox="0 0 588 536" fill="none" xmlns="http://www.w3.org/2000/svg">
<g clip-path="url(#clip0_303_1692)">
<g filter="url(#filter0_d_303_1692)">
<rect x="83" y="105" width="601.604" height="446" rx="11" stroke="white" stroke-opacity="0.24" stroke-width="12" shape-rendering="crispEdges"/>
<rect x="89" y="111" width="589" height="434" rx="5" fill="white"/>
<rect x="510" y="150" width="30" height="30" rx="3" fill="#EEEEEE"/>
<path d="M160.816 162.104C160.603 161.795 160.315 161.571 159.952 161.432C159.6 161.283 159.227 161.208 158.832 161.208C158.597 161.208 158.368 161.235 158.144 161.288C157.931 161.341 157.733 161.427 157.552 161.544C157.381 161.661 157.243 161.816 157.136 162.008C157.029 162.189 156.976 162.408 156.976 162.664C156.976 163.048 157.109 163.341 157.376 163.544C157.643 163.747 157.973 163.923 158.368 164.072C158.763 164.221 159.195 164.365 159.664 164.504C160.133 164.643 160.565 164.835 160.96 165.08C161.355 165.325 161.685 165.651 161.952 166.056C162.219 166.461 162.352 167 162.352 167.672C162.352 168.28 162.24 168.813 162.016 169.272C161.792 169.72 161.488 170.093 161.104 170.392C160.731 170.691 160.293 170.915 159.792 171.064C159.291 171.213 158.763 171.288 158.208 171.288C157.504 171.288 156.827 171.171 156.176 170.936C155.525 170.701 154.965 170.307 154.496 169.752L156.016 168.28C156.261 168.653 156.581 168.947 156.976 169.16C157.381 169.363 157.808 169.464 158.256 169.464C158.491 169.464 158.725 169.432 158.96 169.368C159.195 169.304 159.408 169.208 159.6 169.08C159.792 168.952 159.947 168.792 160.064 168.6C160.181 168.397 160.24 168.168 160.24 167.912C160.24 167.496 160.107 167.176 159.84 166.952C159.573 166.728 159.243 166.541 158.848 166.392C158.453 166.232 158.021 166.083 157.552 165.944C157.083 165.805 156.651 165.619 156.256 165.384C155.861 165.139 155.531 164.819 155.264 164.424C154.997 164.019 154.864 163.48 154.864 162.808C154.864 162.221 154.981 161.715 155.216 161.288C155.461 160.861 155.776 160.509 156.16 160.232C156.555 159.944 157.003 159.731 157.504 159.592C158.005 159.453 158.517 159.384 159.04 159.384C159.637 159.384 160.213 159.475 160.768 159.656C161.333 159.837 161.84 160.136 162.288 160.552L160.816 162.104ZM163.38 164.952V163.32H164.964V161.096H166.884V163.32H168.996V164.952H166.884V168.312C166.884 168.696 166.953 169 167.092 169.224C167.241 169.448 167.529 169.56 167.956 169.56C168.126 169.56 168.313 169.544 168.516 169.512C168.718 169.469 168.878 169.405 168.996 169.32V170.936C168.793 171.032 168.542 171.096 168.244 171.128C167.956 171.171 167.7 171.192 167.476 171.192C166.964 171.192 166.542 171.133 166.212 171.016C165.892 170.909 165.636 170.744 165.444 170.52C165.262 170.285 165.134 169.997 165.06 169.656C164.996 169.315 164.964 168.92 164.964 168.472V164.952H163.38ZM172.03 167.832C172.094 168.408 172.318 168.856 172.702 169.176C173.086 169.496 173.55 169.656 174.094 169.656C174.574 169.656 174.974 169.56 175.294 169.368C175.625 169.165 175.913 168.915 176.158 168.616L177.534 169.656C177.086 170.211 176.585 170.605 176.03 170.84C175.476 171.075 174.894 171.192 174.286 171.192C173.71 171.192 173.166 171.096 172.654 170.904C172.142 170.712 171.7 170.44 171.326 170.088C170.953 169.736 170.654 169.315 170.43 168.824C170.217 168.323 170.11 167.768 170.11 167.16C170.11 166.552 170.217 166.003 170.43 165.512C170.654 165.011 170.953 164.584 171.326 164.232C171.7 163.88 172.142 163.608 172.654 163.416C173.166 163.224 173.71 163.128 174.286 163.128C174.82 163.128 175.305 163.224 175.742 163.416C176.19 163.597 176.569 163.864 176.878 164.216C177.198 164.568 177.444 165.005 177.614 165.528C177.796 166.04 177.886 166.632 177.886 167.304V167.832H172.03ZM175.966 166.392C175.956 165.827 175.78 165.384 175.438 165.064C175.097 164.733 174.622 164.568 174.014 164.568C173.438 164.568 172.98 164.733 172.638 165.064C172.308 165.395 172.105 165.837 172.03 166.392H175.966ZM179.602 163.32H181.426V164.52H181.458C181.628 164.157 181.9 163.837 182.274 163.56C182.658 163.272 183.17 163.128 183.81 163.128C185.015 163.128 185.815 163.603 186.21 164.552C186.487 164.061 186.834 163.704 187.25 163.48C187.666 163.245 188.162 163.128 188.738 163.128C189.25 163.128 189.682 163.213 190.034 163.384C190.386 163.555 190.668 163.789 190.882 164.088C191.106 164.387 191.266 164.739 191.362 165.144C191.458 165.539 191.506 165.965 191.506 166.424V171H189.586V166.648C189.586 166.413 189.564 166.189 189.522 165.976C189.479 165.752 189.404 165.56 189.298 165.4C189.191 165.229 189.047 165.096 188.866 165C188.684 164.904 188.45 164.856 188.162 164.856C187.863 164.856 187.607 164.915 187.394 165.032C187.191 165.139 187.02 165.288 186.882 165.48C186.754 165.661 186.658 165.875 186.594 166.12C186.54 166.355 186.514 166.595 186.514 166.84V171H184.594V166.424C184.594 165.944 184.492 165.565 184.29 165.288C184.087 165 183.751 164.856 183.282 164.856C182.962 164.856 182.69 164.909 182.466 165.016C182.252 165.123 182.071 165.267 181.922 165.448C181.783 165.629 181.682 165.837 181.618 166.072C181.554 166.307 181.522 166.552 181.522 166.808V171H179.602V163.32ZM193.604 163.32H195.428V164.472H195.46C195.737 164.003 196.11 163.661 196.58 163.448C197.049 163.235 197.556 163.128 198.1 163.128C198.686 163.128 199.214 163.235 199.684 163.448C200.153 163.651 200.553 163.933 200.884 164.296C201.214 164.659 201.465 165.085 201.636 165.576C201.806 166.067 201.892 166.595 201.892 167.16C201.892 167.725 201.801 168.253 201.62 168.744C201.438 169.235 201.182 169.661 200.852 170.024C200.532 170.387 200.142 170.675 199.684 170.888C199.225 171.091 198.724 171.192 198.18 171.192C197.817 171.192 197.497 171.155 197.22 171.08C196.942 171.005 196.697 170.909 196.484 170.792C196.27 170.675 196.089 170.552 195.94 170.424C195.79 170.285 195.668 170.152 195.572 170.024H195.524V174.648H193.604V163.32ZM199.972 167.16C199.972 166.861 199.918 166.573 199.812 166.296C199.716 166.019 199.566 165.773 199.364 165.56C199.172 165.347 198.937 165.176 198.66 165.048C198.382 164.92 198.068 164.856 197.716 164.856C197.364 164.856 197.049 164.92 196.772 165.048C196.494 165.176 196.254 165.347 196.052 165.56C195.86 165.773 195.71 166.019 195.604 166.296C195.508 166.573 195.46 166.861 195.46 167.16C195.46 167.459 195.508 167.747 195.604 168.024C195.71 168.301 195.86 168.547 196.052 168.76C196.254 168.973 196.494 169.144 196.772 169.272C197.049 169.4 197.364 169.464 197.716 169.464C198.068 169.464 198.382 169.4 198.66 169.272C198.937 169.144 199.172 168.973 199.364 168.76C199.566 168.547 199.716 168.301 199.812 168.024C199.918 167.747 199.972 167.459 199.972 167.16ZM203.714 158.904H205.634V171H203.714V158.904ZM207.886 163.32H209.806V171H207.886V163.32ZM207.614 160.712C207.614 160.403 207.726 160.136 207.95 159.912C208.184 159.677 208.478 159.56 208.83 159.56C209.182 159.56 209.475 159.672 209.71 159.896C209.955 160.109 210.078 160.381 210.078 160.712C210.078 161.043 209.955 161.32 209.71 161.544C209.475 161.757 209.182 161.864 208.83 161.864C208.478 161.864 208.184 161.752 207.95 161.528C207.726 161.293 207.614 161.021 207.614 160.712ZM212.01 163.32H213.834V164.552H213.866C214.047 164.168 214.325 163.837 214.698 163.56C215.071 163.272 215.578 163.128 216.218 163.128C216.73 163.128 217.162 163.213 217.514 163.384C217.877 163.555 218.17 163.779 218.394 164.056C218.618 164.333 218.778 164.653 218.874 165.016C218.97 165.379 219.018 165.757 219.018 166.152V171H217.098V167.112C217.098 166.899 217.087 166.664 217.066 166.408C217.045 166.141 216.986 165.896 216.89 165.672C216.805 165.437 216.666 165.245 216.474 165.096C216.282 164.936 216.021 164.856 215.69 164.856C215.37 164.856 215.098 164.909 214.874 165.016C214.661 165.123 214.479 165.267 214.33 165.448C214.191 165.629 214.09 165.837 214.026 166.072C213.962 166.307 213.93 166.552 213.93 166.808V171H212.01V163.32Z" fill="#282661"/>
<path fill-rule="evenodd" clip-rule="evenodd" d="M128.945 167H136.972L144.999 152H136.972L128.945 167ZM144.999 182H136.972L128.944 167H136.972L144.999 182Z" fill="#282661" fill-opacity="0.6"/>
<path fill-rule="evenodd" clip-rule="evenodd" d="M143.055 167H135.028L127.001 152H135.028L143.055 167ZM127 182H135.027L143.055 167H135.027L127 182Z" fill="#282661"/>
<rect x="237" y="147" width="2" height="40" rx="1" fill="url(#paint0_linear_303_1692)"/>
<rect x="323" y="191" width="75" height="2" rx="1" fill="#1E56A0"/>
<path d="M327.012 169L324.264 160.6H326.28L328.668 168.04H327.66L330.156 160.6H331.956L334.356 168.04H333.384L335.832 160.6H337.692L334.944 169H332.856L330.732 162.472H331.284L329.1 169H327.012ZM341.237 169.096C340.549 169.096 339.937 168.952 339.401 168.664C338.873 168.376 338.453 167.984 338.141 167.488C337.837 166.984 337.685 166.412 337.685 165.772C337.685 165.124 337.837 164.552 338.141 164.056C338.453 163.552 338.873 163.16 339.401 162.88C339.937 162.592 340.549 162.448 341.237 162.448C341.917 162.448 342.525 162.592 343.061 162.88C343.597 163.16 344.017 163.548 344.321 164.044C344.625 164.54 344.777 165.116 344.777 165.772C344.777 166.412 344.625 166.984 344.321 167.488C344.017 167.984 343.597 168.376 343.061 168.664C342.525 168.952 341.917 169.096 341.237 169.096ZM341.237 167.56C341.549 167.56 341.829 167.488 342.077 167.344C342.325 167.2 342.521 166.996 342.665 166.732C342.809 166.46 342.881 166.14 342.881 165.772C342.881 165.396 342.809 165.076 342.665 164.812C342.521 164.548 342.325 164.344 342.077 164.2C341.829 164.056 341.549 163.984 341.237 163.984C340.925 163.984 340.645 164.056 340.397 164.2C340.149 164.344 339.949 164.548 339.797 164.812C339.653 165.076 339.581 165.396 339.581 165.772C339.581 166.14 339.653 166.46 339.797 166.732C339.949 166.996 340.149 167.2 340.397 167.344C340.645 167.488 340.925 167.56 341.237 167.56ZM346.028 169V162.544H347.816V164.368L347.564 163.84C347.756 163.384 348.064 163.04 348.488 162.808C348.912 162.568 349.428 162.448 350.036 162.448V164.176C349.956 164.168 349.884 164.164 349.82 164.164C349.756 164.156 349.688 164.152 349.616 164.152C349.104 164.152 348.688 164.3 348.368 164.596C348.056 164.884 347.9 165.336 347.9 165.952V169H346.028ZM352.709 167.68L352.757 165.4L355.769 162.544H358.001L355.109 165.484L354.137 166.276L352.709 167.68ZM351.161 169V160.096H353.033V169H351.161ZM355.973 169L353.789 166.288L354.965 164.836L358.241 169H355.973ZM361.044 169.096C360.492 169.096 359.96 169.032 359.448 168.904C358.944 168.768 358.544 168.6 358.248 168.4L358.872 167.056C359.168 167.24 359.516 167.392 359.916 167.512C360.324 167.624 360.724 167.68 361.116 167.68C361.548 167.68 361.852 167.628 362.028 167.524C362.212 167.42 362.304 167.276 362.304 167.092C362.304 166.94 362.232 166.828 362.088 166.756C361.952 166.676 361.768 166.616 361.536 166.576C361.304 166.536 361.048 166.496 360.768 166.456C360.496 166.416 360.22 166.364 359.94 166.3C359.66 166.228 359.404 166.124 359.172 165.988C358.94 165.852 358.752 165.668 358.608 165.436C358.472 165.204 358.404 164.904 358.404 164.536C358.404 164.128 358.52 163.768 358.752 163.456C358.992 163.144 359.336 162.9 359.784 162.724C360.232 162.54 360.768 162.448 361.392 162.448C361.832 162.448 362.28 162.496 362.736 162.592C363.192 162.688 363.572 162.828 363.876 163.012L363.252 164.344C362.94 164.16 362.624 164.036 362.304 163.972C361.992 163.9 361.688 163.864 361.392 163.864C360.976 163.864 360.672 163.92 360.48 164.032C360.288 164.144 360.192 164.288 360.192 164.464C360.192 164.624 360.26 164.744 360.396 164.824C360.54 164.904 360.728 164.968 360.96 165.016C361.192 165.064 361.444 165.108 361.716 165.148C361.996 165.18 362.276 165.232 362.556 165.304C362.836 165.376 363.088 165.48 363.312 165.616C363.544 165.744 363.732 165.924 363.876 166.156C364.02 166.38 364.092 166.676 364.092 167.044C364.092 167.444 363.972 167.8 363.732 168.112C363.492 168.416 363.144 168.656 362.688 168.832C362.24 169.008 361.692 169.096 361.044 169.096ZM369.063 169.096C368.519 169.096 368.043 168.976 367.635 168.736C367.227 168.496 366.907 168.132 366.675 167.644C366.451 167.148 366.339 166.524 366.339 165.772C366.339 165.012 366.447 164.388 366.663 163.9C366.879 163.412 367.191 163.048 367.599 162.808C368.007 162.568 368.495 162.448 369.063 162.448C369.671 162.448 370.215 162.588 370.695 162.868C371.183 163.14 371.567 163.524 371.847 164.02C372.135 164.516 372.279 165.1 372.279 165.772C372.279 166.452 372.135 167.04 371.847 167.536C371.567 168.032 371.183 168.416 370.695 168.688C370.215 168.96 369.671 169.096 369.063 169.096ZM365.247 171.328V162.544H367.035V163.864L366.999 165.784L367.119 167.692V171.328H365.247ZM368.739 167.56C369.051 167.56 369.327 167.488 369.567 167.344C369.815 167.2 370.011 166.996 370.155 166.732C370.307 166.46 370.383 166.14 370.383 165.772C370.383 165.396 370.307 165.076 370.155 164.812C370.011 164.548 369.815 164.344 369.567 164.2C369.327 164.056 369.051 163.984 368.739 163.984C368.427 163.984 368.147 164.056 367.899 164.2C367.651 164.344 367.455 164.548 367.311 164.812C367.167 165.076 367.095 165.396 367.095 165.772C367.095 166.14 367.167 166.46 367.311 166.732C367.455 166.996 367.651 167.2 367.899 167.344C368.147 167.488 368.427 167.56 368.739 167.56ZM377.387 169V167.74L377.267 167.464V165.208C377.267 164.808 377.143 164.496 376.895 164.272C376.655 164.048 376.283 163.936 375.779 163.936C375.435 163.936 375.095 163.992 374.759 164.104C374.431 164.208 374.151 164.352 373.919 164.536L373.247 163.228C373.599 162.98 374.023 162.788 374.519 162.652C375.015 162.516 375.519 162.448 376.031 162.448C377.015 162.448 377.779 162.68 378.323 163.144C378.867 163.608 379.139 164.332 379.139 165.316V169H377.387ZM375.419 169.096C374.915 169.096 374.483 169.012 374.123 168.844C373.763 168.668 373.487 168.432 373.295 168.136C373.103 167.84 373.007 167.508 373.007 167.14C373.007 166.756 373.099 166.42 373.283 166.132C373.475 165.844 373.775 165.62 374.183 165.46C374.591 165.292 375.123 165.208 375.779 165.208H377.495V166.3H375.983C375.543 166.3 375.239 166.372 375.071 166.516C374.911 166.66 374.831 166.84 374.831 167.056C374.831 167.296 374.923 167.488 375.107 167.632C375.299 167.768 375.559 167.836 375.887 167.836C376.199 167.836 376.479 167.764 376.727 167.62C376.975 167.468 377.155 167.248 377.267 166.96L377.555 167.824C377.419 168.24 377.171 168.556 376.811 168.772C376.451 168.988 375.987 169.096 375.419 169.096ZM384 169.096C383.304 169.096 382.684 168.956 382.14 168.676C381.596 168.388 381.168 167.992 380.856 167.488C380.552 166.984 380.4 166.412 380.4 165.772C380.4 165.124 380.552 164.552 380.856 164.056C381.168 163.552 381.596 163.16 382.14 162.88C382.684 162.592 383.304 162.448 384 162.448C384.68 162.448 385.272 162.592 385.776 162.88C386.28 163.16 386.652 163.564 386.892 164.092L385.44 164.872C385.272 164.568 385.06 164.344 384.804 164.2C384.556 164.056 384.284 163.984 383.988 163.984C383.668 163.984 383.38 164.056 383.124 164.2C382.868 164.344 382.664 164.548 382.512 164.812C382.368 165.076 382.296 165.396 382.296 165.772C382.296 166.148 382.368 166.468 382.512 166.732C382.664 166.996 382.868 167.2 383.124 167.344C383.38 167.488 383.668 167.56 383.988 167.56C384.284 167.56 384.556 167.492 384.804 167.356C385.06 167.212 385.272 166.984 385.44 166.672L386.892 167.464C386.652 167.984 386.28 168.388 385.776 168.676C385.272 168.956 384.68 169.096 384 169.096ZM391.091 169.096C390.355 169.096 389.707 168.952 389.147 168.664C388.595 168.376 388.167 167.984 387.863 167.488C387.559 166.984 387.407 166.412 387.407 165.772C387.407 165.124 387.555 164.552 387.851 164.056C388.155 163.552 388.567 163.16 389.087 162.88C389.607 162.592 390.195 162.448 390.851 162.448C391.483 162.448 392.051 162.584 392.555 162.856C393.067 163.12 393.471 163.504 393.767 164.008C394.063 164.504 394.211 165.1 394.211 165.796C394.211 165.868 394.207 165.952 394.199 166.048C394.191 166.136 394.183 166.22 394.175 166.3H388.931V165.208H393.191L392.471 165.532C392.471 165.196 392.403 164.904 392.267 164.656C392.131 164.408 391.943 164.216 391.703 164.08C391.463 163.936 391.183 163.864 390.863 163.864C390.543 163.864 390.259 163.936 390.011 164.08C389.771 164.216 389.583 164.412 389.447 164.668C389.311 164.916 389.243 165.212 389.243 165.556V165.844C389.243 166.196 389.319 166.508 389.471 166.78C389.631 167.044 389.851 167.248 390.131 167.392C390.419 167.528 390.755 167.596 391.139 167.596C391.483 167.596 391.783 167.544 392.039 167.44C392.303 167.336 392.543 167.18 392.759 166.972L393.755 168.052C393.459 168.388 393.087 168.648 392.639 168.832C392.191 169.008 391.675 169.096 391.091 169.096Z" fill="#1E56A0"/>
<path opacity="0.5" d="M274.07 162H275.07V169H274.07V162ZM270.05 169H269.05V162H270.05V169ZM274.16 165.88H269.95V165.01H274.16V165.88ZM279.295 169.06C278.762 169.06 278.289 168.943 277.875 168.71C277.462 168.477 277.135 168.157 276.895 167.75C276.655 167.337 276.535 166.87 276.535 166.35C276.535 165.823 276.655 165.357 276.895 164.95C277.135 164.543 277.462 164.227 277.875 164C278.289 163.767 278.762 163.65 279.295 163.65C279.822 163.65 280.292 163.767 280.705 164C281.125 164.227 281.452 164.543 281.685 164.95C281.925 165.35 282.045 165.817 282.045 166.35C282.045 166.877 281.925 167.343 281.685 167.75C281.452 168.157 281.125 168.477 280.705 168.71C280.292 168.943 279.822 169.06 279.295 169.06ZM279.295 168.22C279.635 168.22 279.939 168.143 280.205 167.99C280.479 167.837 280.692 167.62 280.845 167.34C280.999 167.053 281.075 166.723 281.075 166.35C281.075 165.97 280.999 165.643 280.845 165.37C280.692 165.09 280.479 164.873 280.205 164.72C279.939 164.567 279.635 164.49 279.295 164.49C278.955 164.49 278.652 164.567 278.385 164.72C278.119 164.873 277.905 165.09 277.745 165.37C277.585 165.643 277.505 165.97 277.505 166.35C277.505 166.723 277.585 167.053 277.745 167.34C277.905 167.62 278.119 167.837 278.385 167.99C278.652 168.143 278.955 168.22 279.295 168.22ZM290.003 163.65C290.43 163.65 290.806 163.733 291.133 163.9C291.46 164.067 291.713 164.32 291.893 164.66C292.08 165 292.173 165.43 292.173 165.95V169H291.213V166.06C291.213 165.547 291.093 165.16 290.853 164.9C290.613 164.64 290.276 164.51 289.843 164.51C289.523 164.51 289.243 164.577 289.003 164.71C288.763 164.843 288.576 165.04 288.443 165.3C288.316 165.56 288.253 165.883 288.253 166.27V169H287.293V166.06C287.293 165.547 287.173 165.16 286.933 164.9C286.7 164.64 286.363 164.51 285.923 164.51C285.61 164.51 285.333 164.577 285.093 164.71C284.853 164.843 284.666 165.04 284.533 165.3C284.4 165.56 284.333 165.883 284.333 166.27V169H283.373V163.7H284.293V165.11L284.143 164.75C284.31 164.403 284.566 164.133 284.913 163.94C285.26 163.747 285.663 163.65 286.123 163.65C286.63 163.65 287.066 163.777 287.433 164.03C287.8 164.277 288.04 164.653 288.153 165.16L287.763 165C287.923 164.593 288.203 164.267 288.603 164.02C289.003 163.773 289.47 163.65 290.003 163.65ZM296.299 169.06C295.733 169.06 295.233 168.943 294.799 168.71C294.373 168.477 294.039 168.157 293.799 167.75C293.566 167.343 293.449 166.877 293.449 166.35C293.449 165.823 293.563 165.357 293.789 164.95C294.023 164.543 294.339 164.227 294.739 164C295.146 163.767 295.603 163.65 296.109 163.65C296.623 163.65 297.076 163.763 297.469 163.99C297.863 164.217 298.169 164.537 298.389 164.95C298.616 165.357 298.729 165.833 298.729 166.38C298.729 166.42 298.726 166.467 298.719 166.52C298.719 166.573 298.716 166.623 298.709 166.67H294.199V165.98H298.209L297.819 166.22C297.826 165.88 297.756 165.577 297.609 165.31C297.463 165.043 297.259 164.837 296.999 164.69C296.746 164.537 296.449 164.46 296.109 164.46C295.776 164.46 295.479 164.537 295.219 164.69C294.959 164.837 294.756 165.047 294.609 165.32C294.463 165.587 294.389 165.893 294.389 166.24V166.4C294.389 166.753 294.469 167.07 294.629 167.35C294.796 167.623 295.026 167.837 295.319 167.99C295.613 168.143 295.949 168.22 296.329 168.22C296.643 168.22 296.926 168.167 297.179 168.06C297.439 167.953 297.666 167.793 297.859 167.58L298.389 168.2C298.149 168.48 297.849 168.693 297.489 168.84C297.136 168.987 296.739 169.06 296.299 169.06Z" fill="#9CA3AF"/>
<path opacity="0.5" d="M416.05 169V162H418.78C419.393 162 419.917 162.097 420.35 162.29C420.783 162.483 421.117 162.763 421.35 163.13C421.583 163.497 421.7 163.933 421.7 164.44C421.7 164.947 421.583 165.383 421.35 165.75C421.117 166.11 420.783 166.387 420.35 166.58C419.917 166.773 419.393 166.87 418.78 166.87H416.6L417.05 166.41V169H416.05ZM420.73 169L418.95 166.46H420.02L421.82 169H420.73ZM417.05 166.51L416.6 166.02H418.75C419.39 166.02 419.873 165.883 420.2 165.61C420.533 165.33 420.7 164.94 420.7 164.44C420.7 163.94 420.533 163.553 420.2 163.28C419.873 163.007 419.39 162.87 418.75 162.87H416.6L417.05 162.37V166.51ZM425.536 169.06C424.969 169.06 424.469 168.943 424.036 168.71C423.609 168.477 423.276 168.157 423.036 167.75C422.802 167.343 422.686 166.877 422.686 166.35C422.686 165.823 422.799 165.357 423.026 164.95C423.259 164.543 423.576 164.227 423.976 164C424.382 163.767 424.839 163.65 425.346 163.65C425.859 163.65 426.312 163.763 426.706 163.99C427.099 164.217 427.406 164.537 427.626 164.95C427.852 165.357 427.966 165.833 427.966 166.38C427.966 166.42 427.962 166.467 427.956 166.52C427.956 166.573 427.952 166.623 427.946 166.67H423.436V165.98H427.446L427.056 166.22C427.062 165.88 426.992 165.577 426.846 165.31C426.699 165.043 426.496 164.837 426.236 164.69C425.982 164.537 425.686 164.46 425.346 164.46C425.012 164.46 424.716 164.537 424.456 164.69C424.196 164.837 423.992 165.047 423.846 165.32C423.699 165.587 423.626 165.893 423.626 166.24V166.4C423.626 166.753 423.706 167.07 423.866 167.35C424.032 167.623 424.262 167.837 424.556 167.99C424.849 168.143 425.186 168.22 425.566 168.22C425.879 168.22 426.162 168.167 426.416 168.06C426.676 167.953 426.902 167.793 427.096 167.58L427.626 168.2C427.386 168.48 427.086 168.693 426.726 168.84C426.372 168.987 425.976 169.06 425.536 169.06ZM432.109 169.06C431.669 169.06 431.265 168.96 430.899 168.76C430.539 168.553 430.249 168.25 430.029 167.85C429.815 167.45 429.709 166.95 429.709 166.35C429.709 165.75 429.812 165.25 430.019 164.85C430.232 164.45 430.519 164.15 430.879 163.95C431.245 163.75 431.655 163.65 432.109 163.65C432.629 163.65 433.089 163.763 433.489 163.99C433.889 164.217 434.205 164.533 434.439 164.94C434.672 165.34 434.789 165.81 434.789 166.35C434.789 166.89 434.672 167.363 434.439 167.77C434.205 168.177 433.889 168.493 433.489 168.72C433.089 168.947 432.629 169.06 432.109 169.06ZM429.299 170.94V163.7H430.219V165.13L430.159 166.36L430.259 167.59V170.94H429.299ZM432.029 168.22C432.369 168.22 432.672 168.143 432.939 167.99C433.212 167.837 433.425 167.62 433.579 167.34C433.739 167.053 433.819 166.723 433.819 166.35C433.819 165.97 433.739 165.643 433.579 165.37C433.425 165.09 433.212 164.873 432.939 164.72C432.672 164.567 432.369 164.49 432.029 164.49C431.695 164.49 431.392 164.567 431.119 164.72C430.852 164.873 430.639 165.09 430.479 165.37C430.325 165.643 430.249 165.97 430.249 166.35C430.249 166.723 430.325 167.053 430.479 167.34C430.639 167.62 430.852 167.837 431.119 167.99C431.392 168.143 431.695 168.22 432.029 168.22ZM438.385 169.06C437.852 169.06 437.378 168.943 436.965 168.71C436.552 168.477 436.225 168.157 435.985 167.75C435.745 167.337 435.625 166.87 435.625 166.35C435.625 165.823 435.745 165.357 435.985 164.95C436.225 164.543 436.552 164.227 436.965 164C437.378 163.767 437.852 163.65 438.385 163.65C438.912 163.65 439.382 163.767 439.795 164C440.215 164.227 440.542 164.543 440.775 164.95C441.015 165.35 441.135 165.817 441.135 166.35C441.135 166.877 441.015 167.343 440.775 167.75C440.542 168.157 440.215 168.477 439.795 168.71C439.382 168.943 438.912 169.06 438.385 169.06ZM438.385 168.22C438.725 168.22 439.028 168.143 439.295 167.99C439.568 167.837 439.782 167.62 439.935 167.34C440.088 167.053 440.165 166.723 440.165 166.35C440.165 165.97 440.088 165.643 439.935 165.37C439.782 165.09 439.568 164.873 439.295 164.72C439.028 164.567 438.725 164.49 438.385 164.49C438.045 164.49 437.742 164.567 437.475 164.72C437.208 164.873 436.995 165.09 436.835 165.37C436.675 165.643 436.595 165.97 436.595 166.35C436.595 166.723 436.675 167.053 436.835 167.34C436.995 167.62 437.208 167.837 437.475 167.99C437.742 168.143 438.045 168.22 438.385 168.22ZM442.463 169V163.7H443.383V165.14L443.293 164.78C443.439 164.413 443.686 164.133 444.033 163.94C444.379 163.747 444.806 163.65 445.313 163.65V164.58C445.273 164.573 445.233 164.57 445.193 164.57C445.159 164.57 445.126 164.57 445.093 164.57C444.579 164.57 444.173 164.723 443.873 165.03C443.573 165.337 443.423 165.78 443.423 166.36V169H442.463ZM448.531 169.06C447.997 169.06 447.584 168.917 447.291 168.63C446.997 168.343 446.851 167.933 446.851 167.4V162.54H447.811V167.36C447.811 167.647 447.881 167.867 448.021 168.02C448.167 168.173 448.374 168.25 448.641 168.25C448.941 168.25 449.191 168.167 449.391 168L449.691 168.69C449.544 168.817 449.367 168.91 449.161 168.97C448.961 169.03 448.751 169.06 448.531 169.06ZM445.951 164.49V163.7H449.331V164.49H445.951ZM452.371 169.06C451.931 169.06 451.511 169 451.111 168.88C450.718 168.76 450.408 168.613 450.181 168.44L450.581 167.68C450.808 167.833 451.088 167.963 451.421 168.07C451.755 168.177 452.095 168.23 452.441 168.23C452.888 168.23 453.208 168.167 453.401 168.04C453.601 167.913 453.701 167.737 453.701 167.51C453.701 167.343 453.641 167.213 453.521 167.12C453.401 167.027 453.241 166.957 453.041 166.91C452.848 166.863 452.631 166.823 452.391 166.79C452.151 166.75 451.911 166.703 451.671 166.65C451.431 166.59 451.211 166.51 451.011 166.41C450.811 166.303 450.651 166.16 450.531 165.98C450.411 165.793 450.351 165.547 450.351 165.24C450.351 164.92 450.441 164.64 450.621 164.4C450.801 164.16 451.055 163.977 451.381 163.85C451.715 163.717 452.108 163.65 452.561 163.65C452.908 163.65 453.258 163.693 453.611 163.78C453.971 163.86 454.265 163.977 454.491 164.13L454.081 164.89C453.841 164.73 453.591 164.62 453.331 164.56C453.071 164.5 452.811 164.47 452.551 164.47C452.131 164.47 451.818 164.54 451.611 164.68C451.405 164.813 451.301 164.987 451.301 165.2C451.301 165.38 451.361 165.52 451.481 165.62C451.608 165.713 451.768 165.787 451.961 165.84C452.161 165.893 452.381 165.94 452.621 165.98C452.861 166.013 453.101 166.06 453.341 166.12C453.581 166.173 453.798 166.25 453.991 166.35C454.191 166.45 454.351 166.59 454.471 166.77C454.598 166.95 454.661 167.19 454.661 167.49C454.661 167.81 454.568 168.087 454.381 168.32C454.195 168.553 453.931 168.737 453.591 168.87C453.251 168.997 452.845 169.06 452.371 169.06Z" fill="#9CA3AF"/>
<rect x="546" y="167" width="86" height="9" rx="3" fill="#F6F6F6"/>
<rect x="546" y="152" width="93" height="12" rx="3" fill="#EEEEEE"/>
<path d="M129.14 218.01L127.25 211H128.39L129.78 216.8L131.38 211H132.55L134.1 216.8L135.49 211H136.63L134.71 218H133.47L131.94 212.51L130.36 218L129.14 218.01ZM139.365 218.12C138.892 218.12 138.465 218.013 138.085 217.8C137.712 217.58 137.415 217.277 137.195 216.89C136.975 216.497 136.865 216.04 136.865 215.52C136.865 215 136.975 214.547 137.195 214.16C137.422 213.767 137.725 213.463 138.105 213.25C138.485 213.03 138.908 212.92 139.375 212.92C139.848 212.92 140.272 213.03 140.645 213.25C141.025 213.463 141.325 213.767 141.545 214.16C141.772 214.547 141.885 215 141.885 215.52C141.885 216.04 141.772 216.497 141.545 216.89C141.325 217.277 141.025 217.58 140.645 217.8C140.265 218.013 139.838 218.12 139.365 218.12ZM139.365 217.21C139.618 217.21 139.852 217.147 140.065 217.02C140.285 216.893 140.462 216.707 140.595 216.46C140.728 216.207 140.795 215.893 140.795 215.52C140.795 215.147 140.728 214.837 140.595 214.59C140.468 214.337 140.295 214.147 140.075 214.02C139.862 213.893 139.628 213.83 139.375 213.83C139.122 213.83 138.885 213.893 138.665 214.02C138.452 214.147 138.278 214.337 138.145 214.59C138.012 214.837 137.945 215.147 137.945 215.52C137.945 215.893 138.012 216.207 138.145 216.46C138.278 216.707 138.452 216.893 138.665 217.02C138.878 217.147 139.112 217.21 139.365 217.21ZM143.031 218V213.04H143.981L144.071 213.98C144.245 213.653 144.485 213.397 144.791 213.21C145.105 213.017 145.481 212.92 145.921 212.92V214.03H145.631C145.338 214.03 145.075 214.08 144.841 214.18C144.615 214.273 144.431 214.437 144.291 214.67C144.158 214.897 144.091 215.213 144.091 215.62V218H143.031ZM146.83 218V210.8H147.89V215.09L149.79 213.04H151.06L148.95 215.29L151.37 218H150.03L147.89 215.46V218H146.83ZM153.908 218.12C153.281 218.12 152.764 217.967 152.358 217.66C151.951 217.353 151.718 216.947 151.658 216.44H152.728C152.781 216.667 152.908 216.863 153.108 217.03C153.308 217.19 153.571 217.27 153.898 217.27C154.218 217.27 154.451 217.203 154.598 217.07C154.744 216.937 154.818 216.783 154.818 216.61C154.818 216.357 154.714 216.187 154.508 216.1C154.308 216.007 154.028 215.923 153.668 215.85C153.388 215.79 153.108 215.71 152.828 215.61C152.554 215.51 152.324 215.37 152.138 215.19C151.958 215.003 151.868 214.753 151.868 214.44C151.868 214.007 152.034 213.647 152.368 213.36C152.701 213.067 153.168 212.92 153.768 212.92C154.321 212.92 154.768 213.053 155.108 213.32C155.454 213.587 155.658 213.963 155.718 214.45H154.698C154.664 214.237 154.564 214.07 154.398 213.95C154.238 213.83 154.021 213.77 153.748 213.77C153.481 213.77 153.274 213.827 153.128 213.94C152.981 214.047 152.908 214.187 152.908 214.36C152.908 214.533 153.008 214.67 153.208 214.77C153.414 214.87 153.684 214.96 154.018 215.04C154.351 215.113 154.658 215.2 154.938 215.3C155.224 215.393 155.454 215.533 155.628 215.72C155.801 215.907 155.888 216.18 155.888 216.54C155.894 216.993 155.718 217.37 155.358 217.67C155.004 217.97 154.521 218.12 153.908 218.12ZM157.045 220.2V213.04H157.995L158.105 213.81C158.265 213.577 158.485 213.37 158.765 213.19C159.045 213.01 159.405 212.92 159.845 212.92C160.325 212.92 160.748 213.033 161.115 213.26C161.482 213.487 161.768 213.797 161.975 214.19C162.188 214.583 162.295 215.03 162.295 215.53C162.295 216.03 162.188 216.477 161.975 216.87C161.768 217.257 161.482 217.563 161.115 217.79C160.748 218.01 160.322 218.12 159.835 218.12C159.448 218.12 159.105 218.043 158.805 217.89C158.512 217.737 158.278 217.52 158.105 217.24V220.2H157.045ZM159.655 217.2C160.108 217.2 160.482 217.047 160.775 216.74C161.068 216.427 161.215 216.02 161.215 215.52C161.215 215.193 161.148 214.903 161.015 214.65C160.882 214.397 160.698 214.2 160.465 214.06C160.232 213.913 159.962 213.84 159.655 213.84C159.202 213.84 158.828 213.997 158.535 214.31C158.248 214.623 158.105 215.027 158.105 215.52C158.105 216.02 158.248 216.427 158.535 216.74C158.828 217.047 159.202 217.2 159.655 217.2ZM165.121 218.12C164.701 218.12 164.355 218.05 164.081 217.91C163.808 217.77 163.605 217.587 163.471 217.36C163.338 217.127 163.271 216.873 163.271 216.6C163.271 216.12 163.458 215.74 163.831 215.46C164.205 215.18 164.738 215.04 165.431 215.04H166.731V214.95C166.731 214.563 166.625 214.273 166.411 214.08C166.205 213.887 165.935 213.79 165.601 213.79C165.308 213.79 165.051 213.863 164.831 214.01C164.618 214.15 164.488 214.36 164.441 214.64H163.381C163.415 214.28 163.535 213.973 163.741 213.72C163.955 213.46 164.221 213.263 164.541 213.13C164.868 212.99 165.225 212.92 165.611 212.92C166.305 212.92 166.841 213.103 167.221 213.47C167.601 213.83 167.791 214.323 167.791 214.95V218H166.871L166.781 217.15C166.641 217.423 166.438 217.653 166.171 217.84C165.905 218.027 165.555 218.12 165.121 218.12ZM165.331 217.26C165.618 217.26 165.858 217.193 166.051 217.06C166.251 216.92 166.405 216.737 166.511 216.51C166.625 216.283 166.695 216.033 166.721 215.76H165.541C165.121 215.76 164.821 215.833 164.641 215.98C164.468 216.127 164.381 216.31 164.381 216.53C164.381 216.757 164.465 216.937 164.631 217.07C164.805 217.197 165.038 217.26 165.331 217.26ZM171.377 218.12C170.891 218.12 170.454 218.01 170.067 217.79C169.687 217.57 169.387 217.267 169.167 216.88C168.954 216.487 168.847 216.033 168.847 215.52C168.847 215.007 168.954 214.557 169.167 214.17C169.387 213.777 169.687 213.47 170.067 213.25C170.454 213.03 170.891 212.92 171.377 212.92C171.991 212.92 172.504 213.08 172.917 213.4C173.337 213.72 173.607 214.153 173.727 214.7H172.617C172.551 214.427 172.404 214.213 172.177 214.06C171.951 213.907 171.684 213.83 171.377 213.83C171.117 213.83 170.877 213.897 170.657 214.03C170.437 214.157 170.261 214.347 170.127 214.6C169.994 214.847 169.927 215.153 169.927 215.52C169.927 215.887 169.994 216.197 170.127 216.45C170.261 216.697 170.437 216.887 170.657 217.02C170.877 217.153 171.117 217.22 171.377 217.22C171.684 217.22 171.951 217.143 172.177 216.99C172.404 216.837 172.551 216.62 172.617 216.34H173.727C173.614 216.873 173.347 217.303 172.927 217.63C172.507 217.957 171.991 218.12 171.377 218.12ZM177.197 218.12C176.71 218.12 176.277 218.013 175.897 217.8C175.524 217.58 175.23 217.277 175.017 216.89C174.804 216.503 174.697 216.053 174.697 215.54C174.697 215.02 174.8 214.563 175.007 214.17C175.22 213.777 175.514 213.47 175.887 213.25C176.267 213.03 176.707 212.92 177.207 212.92C177.694 212.92 178.117 213.03 178.477 213.25C178.837 213.463 179.117 213.75 179.317 214.11C179.517 214.47 179.617 214.867 179.617 215.3C179.617 215.367 179.614 215.44 179.607 215.52C179.607 215.593 179.604 215.677 179.597 215.77H175.737C175.77 216.25 175.927 216.617 176.207 216.87C176.494 217.117 176.824 217.24 177.197 217.24C177.497 217.24 177.747 217.173 177.947 217.04C178.154 216.9 178.307 216.713 178.407 216.48H179.467C179.334 216.947 179.067 217.337 178.667 217.65C178.274 217.963 177.784 218.12 177.197 218.12ZM177.197 213.79C176.844 213.79 176.53 213.897 176.257 214.11C175.984 214.317 175.817 214.63 175.757 215.05H178.557C178.537 214.663 178.4 214.357 178.147 214.13C177.894 213.903 177.577 213.79 177.197 213.79Z" fill="#434343"/>
<rect x="123.255" y="237.255" width="518.49" height="236.49" rx="9.94449" fill="white" fill-opacity="0.04" stroke="#E7E8EA" stroke-width="0.509974"/>
<line x1="272.604" y1="283.5" x2="632.604" y2="283.5" stroke="#E2E8F0"/>
<path d="M123 246C123 241.029 127.029 237 132 237H254V474H132C127.029 474 123 469.971 123 465V246Z" fill="#F5F6FF"/>
<path d="M144.401 291.36C144.656 291.129 144.86 290.843 145 290.523C145.14 290.202 145.213 289.853 145.213 289.5C145.213 288.837 144.961 288.201 144.513 287.732C144.065 287.263 143.457 287 142.823 287C142.19 287 141.582 287.263 141.134 287.732C140.686 288.201 140.434 288.837 140.434 289.5C140.434 289.853 140.506 290.202 140.647 290.523C140.787 290.843 140.991 291.129 141.246 291.36C140.577 291.677 140.01 292.189 139.611 292.834C139.213 293.48 139.001 294.232 139 295C139 295.133 139.05 295.26 139.14 295.354C139.23 295.447 139.351 295.5 139.478 295.5C139.605 295.5 139.726 295.447 139.816 295.354C139.905 295.26 139.956 295.133 139.956 295C139.956 294.204 140.258 293.441 140.796 292.879C141.333 292.316 142.063 292 142.823 292C143.584 292 144.313 292.316 144.851 292.879C145.389 293.441 145.691 294.204 145.691 295C145.691 295.133 145.741 295.26 145.831 295.354C145.921 295.447 146.042 295.5 146.169 295.5C146.296 295.5 146.417 295.447 146.507 295.354C146.596 295.26 146.647 295.133 146.647 295C146.646 294.232 146.434 293.48 146.035 292.834C145.637 292.189 145.07 291.677 144.401 291.36V291.36ZM142.823 291C142.54 291 142.263 290.912 142.027 290.747C141.791 290.582 141.607 290.348 141.499 290.074C141.39 289.8 141.362 289.498 141.417 289.207C141.472 288.916 141.609 288.649 141.81 288.439C142.01 288.23 142.266 288.087 142.544 288.029C142.822 287.971 143.11 288.001 143.372 288.114C143.634 288.228 143.858 288.42 144.016 288.667C144.173 288.913 144.257 289.203 144.257 289.5C144.257 289.898 144.106 290.279 143.837 290.561C143.568 290.842 143.204 291 142.823 291ZM147.478 291.16C147.784 290.8 147.984 290.355 148.054 289.878C148.123 289.402 148.06 288.915 147.871 288.475C147.682 288.035 147.376 287.662 146.989 287.401C146.602 287.139 146.152 287 145.691 287C145.564 287 145.443 287.053 145.353 287.146C145.263 287.24 145.213 287.367 145.213 287.5C145.213 287.633 145.263 287.76 145.353 287.854C145.443 287.947 145.564 288 145.691 288C146.071 288 146.436 288.158 146.705 288.439C146.974 288.721 147.125 289.102 147.125 289.5C147.124 289.763 147.057 290.02 146.932 290.248C146.806 290.475 146.625 290.664 146.408 290.795C146.337 290.838 146.278 290.899 146.236 290.972C146.194 291.046 146.171 291.129 146.169 291.215C146.167 291.3 146.186 291.384 146.223 291.459C146.261 291.534 146.316 291.598 146.384 291.645L146.57 291.775L146.632 291.81C147.208 292.096 147.694 292.548 148.033 293.113C148.372 293.678 148.549 294.333 148.544 295C148.544 295.133 148.594 295.26 148.684 295.354C148.774 295.447 148.895 295.5 149.022 295.5C149.149 295.5 149.27 295.447 149.36 295.354C149.45 295.26 149.5 295.133 149.5 295C149.504 294.233 149.32 293.477 148.966 292.805C148.612 292.133 148.1 291.567 147.478 291.16V291.16Z" fill="#2B3674"/>
<path d="M155.888 294V289.28H154.032V288.4H158.784V289.28H156.928V294H155.888ZM160.879 294.056C160.404 294.056 159.988 293.963 159.631 293.776C159.279 293.584 159.004 293.323 158.807 292.992C158.615 292.661 158.519 292.285 158.519 291.864C158.519 291.437 158.612 291.061 158.799 290.736C158.991 290.405 159.252 290.147 159.583 289.96C159.919 289.773 160.3 289.68 160.727 289.68C161.143 289.68 161.514 289.771 161.839 289.952C162.164 290.133 162.42 290.389 162.607 290.72C162.794 291.051 162.887 291.44 162.887 291.888C162.887 291.931 162.884 291.979 162.879 292.032C162.879 292.085 162.876 292.136 162.871 292.184H159.311V291.52H162.343L161.951 291.728C161.956 291.483 161.906 291.267 161.799 291.08C161.692 290.893 161.546 290.747 161.359 290.64C161.178 290.533 160.967 290.48 160.727 290.48C160.482 290.48 160.266 290.533 160.079 290.64C159.898 290.747 159.754 290.896 159.647 291.088C159.546 291.275 159.495 291.496 159.495 291.752V291.912C159.495 292.168 159.554 292.395 159.671 292.592C159.788 292.789 159.954 292.941 160.167 293.048C160.38 293.155 160.626 293.208 160.903 293.208C161.143 293.208 161.359 293.171 161.551 293.096C161.743 293.021 161.914 292.904 162.063 292.744L162.599 293.36C162.407 293.584 162.164 293.757 161.871 293.88C161.583 293.997 161.252 294.056 160.879 294.056ZM166.202 294V293.136L166.146 292.952V291.44C166.146 291.147 166.058 290.92 165.882 290.76C165.706 290.595 165.44 290.512 165.082 290.512C164.842 290.512 164.605 290.549 164.37 290.624C164.141 290.699 163.946 290.803 163.786 290.936L163.394 290.208C163.624 290.032 163.896 289.901 164.21 289.816C164.53 289.725 164.861 289.68 165.202 289.68C165.821 289.68 166.298 289.829 166.634 290.128C166.976 290.421 167.146 290.877 167.146 291.496V294H166.202ZM164.858 294.056C164.538 294.056 164.258 294.003 164.018 293.896C163.778 293.784 163.592 293.632 163.458 293.44C163.33 293.243 163.266 293.021 163.266 292.776C163.266 292.536 163.322 292.32 163.434 292.128C163.552 291.936 163.741 291.784 164.002 291.672C164.264 291.56 164.61 291.504 165.042 291.504H166.282V292.168H165.114C164.773 292.168 164.544 292.224 164.426 292.336C164.309 292.443 164.25 292.576 164.25 292.736C164.25 292.917 164.322 293.061 164.466 293.168C164.61 293.275 164.81 293.328 165.066 293.328C165.312 293.328 165.53 293.272 165.722 293.16C165.92 293.048 166.061 292.883 166.146 292.664L166.314 293.264C166.218 293.515 166.045 293.709 165.794 293.848C165.549 293.987 165.237 294.056 164.858 294.056ZM173.662 289.68C174.003 289.68 174.304 289.747 174.566 289.88C174.832 290.013 175.04 290.219 175.19 290.496C175.339 290.768 175.414 291.12 175.414 291.552V294H174.414V291.68C174.414 291.301 174.331 291.019 174.166 290.832C174 290.645 173.763 290.552 173.454 290.552C173.235 290.552 173.04 290.6 172.87 290.696C172.704 290.792 172.574 290.933 172.478 291.12C172.387 291.307 172.342 291.544 172.342 291.832V294H171.342V291.68C171.342 291.301 171.259 291.019 171.094 290.832C170.928 290.645 170.691 290.552 170.382 290.552C170.163 290.552 169.968 290.6 169.798 290.696C169.632 290.792 169.502 290.933 169.406 291.12C169.315 291.307 169.27 291.544 169.27 291.832V294H168.27V289.728H169.222V290.864L169.054 290.528C169.198 290.251 169.406 290.04 169.678 289.896C169.955 289.752 170.27 289.68 170.622 289.68C171.022 289.68 171.368 289.779 171.662 289.976C171.96 290.173 172.158 290.472 172.254 290.872L171.862 290.736C172 290.416 172.23 290.16 172.55 289.968C172.87 289.776 173.24 289.68 173.662 289.68ZM183.975 289.68C184.316 289.68 184.617 289.747 184.879 289.88C185.145 290.013 185.353 290.219 185.503 290.496C185.652 290.768 185.727 291.12 185.727 291.552V294H184.727V291.68C184.727 291.301 184.644 291.019 184.479 290.832C184.313 290.645 184.076 290.552 183.767 290.552C183.548 290.552 183.353 290.6 183.183 290.696C183.017 290.792 182.887 290.933 182.791 291.12C182.7 291.307 182.655 291.544 182.655 291.832V294H181.655V291.68C181.655 291.301 181.572 291.019 181.407 290.832C181.241 290.645 181.004 290.552 180.695 290.552C180.476 290.552 180.281 290.6 180.111 290.696C179.945 290.792 179.815 290.933 179.719 291.12C179.628 291.307 179.583 291.544 179.583 291.832V294H178.583V289.728H179.535V290.864L179.367 290.528C179.511 290.251 179.719 290.04 179.991 289.896C180.268 289.752 180.583 289.68 180.935 289.68C181.335 289.68 181.681 289.779 181.975 289.976C182.273 290.173 182.471 290.472 182.567 290.872L182.175 290.736C182.313 290.416 182.543 290.16 182.863 289.968C183.183 289.776 183.553 289.68 183.975 289.68ZM188.86 294.056C188.386 294.056 187.97 293.963 187.612 293.776C187.26 293.584 186.986 293.323 186.788 292.992C186.596 292.661 186.5 292.285 186.5 291.864C186.5 291.437 186.594 291.061 186.78 290.736C186.972 290.405 187.234 290.147 187.564 289.96C187.9 289.773 188.282 289.68 188.708 289.68C189.124 289.68 189.495 289.771 189.82 289.952C190.146 290.133 190.402 290.389 190.588 290.72C190.775 291.051 190.868 291.44 190.868 291.888C190.868 291.931 190.866 291.979 190.86 292.032C190.86 292.085 190.858 292.136 190.852 292.184H187.292V291.52H190.324L189.932 291.728C189.938 291.483 189.887 291.267 189.78 291.08C189.674 290.893 189.527 290.747 189.34 290.64C189.159 290.533 188.948 290.48 188.708 290.48C188.463 290.48 188.247 290.533 188.06 290.64C187.879 290.747 187.735 290.896 187.628 291.088C187.527 291.275 187.476 291.496 187.476 291.752V291.912C187.476 292.168 187.535 292.395 187.652 292.592C187.77 292.789 187.935 292.941 188.148 293.048C188.362 293.155 188.607 293.208 188.884 293.208C189.124 293.208 189.34 293.171 189.532 293.096C189.724 293.021 189.895 292.904 190.044 292.744L190.58 293.36C190.388 293.584 190.146 293.757 189.852 293.88C189.564 293.997 189.234 294.056 188.86 294.056ZM197.061 289.68C197.402 289.68 197.703 289.747 197.965 289.88C198.231 290.013 198.439 290.219 198.589 290.496C198.738 290.768 198.813 291.12 198.813 291.552V294H197.813V291.68C197.813 291.301 197.73 291.019 197.565 290.832C197.399 290.645 197.162 290.552 196.853 290.552C196.634 290.552 196.439 290.6 196.269 290.696C196.103 290.792 195.973 290.933 195.877 291.12C195.786 291.307 195.741 291.544 195.741 291.832V294H194.741V291.68C194.741 291.301 194.658 291.019 194.493 290.832C194.327 290.645 194.09 290.552 193.781 290.552C193.562 290.552 193.367 290.6 193.197 290.696C193.031 290.792 192.901 290.933 192.805 291.12C192.714 291.307 192.669 291.544 192.669 291.832V294H191.669V289.728H192.621V290.864L192.453 290.528C192.597 290.251 192.805 290.04 193.077 289.896C193.354 289.752 193.669 289.68 194.021 289.68C194.421 289.68 194.767 289.779 195.061 289.976C195.359 290.173 195.557 290.472 195.653 290.872L195.261 290.736C195.399 290.416 195.629 290.16 195.949 289.968C196.269 289.776 196.639 289.68 197.061 289.68ZM202.299 294.056C201.936 294.056 201.613 293.976 201.331 293.816C201.048 293.656 200.824 293.416 200.659 293.096C200.499 292.771 200.419 292.36 200.419 291.864C200.419 291.363 200.501 290.952 200.667 290.632C200.837 290.312 201.064 290.075 201.347 289.92C201.635 289.76 201.952 289.68 202.299 289.68C202.72 289.68 203.091 289.771 203.411 289.952C203.736 290.133 203.992 290.387 204.179 290.712C204.371 291.037 204.467 291.421 204.467 291.864C204.467 292.307 204.371 292.691 204.179 293.016C203.992 293.341 203.736 293.597 203.411 293.784C203.091 293.965 202.72 294.056 202.299 294.056ZM199.931 294V288.064H200.931V290.72L200.851 291.856L200.883 292.992V294H199.931ZM202.187 293.2C202.427 293.2 202.64 293.147 202.827 293.04C203.019 292.933 203.171 292.779 203.283 292.576C203.395 292.373 203.451 292.136 203.451 291.864C203.451 291.587 203.395 291.349 203.283 291.152C203.171 290.949 203.019 290.795 202.827 290.688C202.64 290.581 202.427 290.528 202.187 290.528C201.947 290.528 201.731 290.581 201.539 290.688C201.347 290.795 201.195 290.949 201.083 291.152C200.971 291.349 200.915 291.587 200.915 291.864C200.915 292.136 200.971 292.373 201.083 292.576C201.195 292.779 201.347 292.933 201.539 293.04C201.731 293.147 201.947 293.2 202.187 293.2ZM207.263 294.056C206.788 294.056 206.372 293.963 206.015 293.776C205.663 293.584 205.388 293.323 205.191 292.992C204.999 292.661 204.903 292.285 204.903 291.864C204.903 291.437 204.996 291.061 205.183 290.736C205.375 290.405 205.636 290.147 205.967 289.96C206.303 289.773 206.684 289.68 207.111 289.68C207.527 289.68 207.898 289.771 208.223 289.952C208.548 290.133 208.804 290.389 208.991 290.72C209.178 291.051 209.271 291.44 209.271 291.888C209.271 291.931 209.268 291.979 209.263 292.032C209.263 292.085 209.26 292.136 209.255 292.184H205.695V291.52H208.727L208.335 291.728C208.34 291.483 208.29 291.267 208.183 291.08C208.076 290.893 207.93 290.747 207.743 290.64C207.562 290.533 207.351 290.48 207.111 290.48C206.866 290.48 206.65 290.533 206.463 290.64C206.282 290.747 206.138 290.896 206.031 291.088C205.93 291.275 205.879 291.496 205.879 291.752V291.912C205.879 292.168 205.938 292.395 206.055 292.592C206.172 292.789 206.338 292.941 206.551 293.048C206.764 293.155 207.01 293.208 207.287 293.208C207.527 293.208 207.743 293.171 207.935 293.096C208.127 293.021 208.298 292.904 208.447 292.744L208.983 293.36C208.791 293.584 208.548 293.757 208.255 293.88C207.967 293.997 207.636 294.056 207.263 294.056ZM210.072 294V289.728H211.024V290.904L210.912 290.56C211.04 290.272 211.24 290.053 211.512 289.904C211.789 289.755 212.133 289.68 212.544 289.68V290.632C212.501 290.621 212.461 290.616 212.424 290.616C212.386 290.611 212.349 290.608 212.312 290.608C211.933 290.608 211.632 290.72 211.408 290.944C211.184 291.163 211.072 291.491 211.072 291.928V294H210.072ZM214.591 294.056C214.234 294.056 213.89 294.011 213.559 293.92C213.234 293.824 212.975 293.709 212.783 293.576L213.167 292.816C213.359 292.939 213.588 293.04 213.855 293.12C214.122 293.2 214.388 293.24 214.655 293.24C214.97 293.24 215.196 293.197 215.335 293.112C215.479 293.027 215.551 292.912 215.551 292.768C215.551 292.651 215.503 292.563 215.407 292.504C215.311 292.44 215.186 292.392 215.031 292.36C214.876 292.328 214.703 292.299 214.511 292.272C214.324 292.245 214.135 292.211 213.943 292.168C213.756 292.12 213.586 292.053 213.431 291.968C213.276 291.877 213.151 291.757 213.055 291.608C212.959 291.459 212.911 291.261 212.911 291.016C212.911 290.744 212.988 290.509 213.143 290.312C213.298 290.109 213.514 289.955 213.791 289.848C214.074 289.736 214.407 289.68 214.791 289.68C215.079 289.68 215.37 289.712 215.663 289.776C215.956 289.84 216.199 289.931 216.391 290.048L216.007 290.808C215.804 290.685 215.599 290.603 215.391 290.56C215.188 290.512 214.986 290.488 214.783 290.488C214.479 290.488 214.252 290.533 214.103 290.624C213.959 290.715 213.887 290.829 213.887 290.968C213.887 291.096 213.935 291.192 214.031 291.256C214.127 291.32 214.252 291.371 214.407 291.408C214.562 291.445 214.732 291.477 214.919 291.504C215.111 291.525 215.3 291.56 215.487 291.608C215.674 291.656 215.844 291.723 215.999 291.808C216.159 291.888 216.287 292.003 216.383 292.152C216.479 292.301 216.527 292.496 216.527 292.736C216.527 293.003 216.447 293.235 216.287 293.432C216.132 293.629 215.911 293.784 215.623 293.896C215.335 294.003 214.991 294.056 214.591 294.056Z" fill="#2B3674"/>
<path d="M272.544 260V254.4H274.616C275.064 254.4 275.435 254.475 275.728 254.624C276.021 254.773 276.24 254.979 276.384 255.24C276.528 255.501 276.6 255.795 276.6 256.12C276.6 256.429 276.531 256.715 276.392 256.976C276.253 257.232 276.037 257.44 275.744 257.6C275.451 257.755 275.075 257.832 274.616 257.832H273.568V260H272.544ZM273.568 257H274.552C274.909 257 275.165 256.923 275.32 256.768C275.48 256.608 275.56 256.392 275.56 256.12C275.56 255.843 275.48 255.627 275.32 255.472C275.165 255.312 274.909 255.232 274.552 255.232H273.568V257ZM277.379 260V256.032H278.291L278.387 256.776C278.531 256.52 278.726 256.317 278.971 256.168C279.222 256.013 279.515 255.936 279.851 255.936V257.016H279.563C279.339 257.016 279.139 257.051 278.963 257.12C278.787 257.189 278.649 257.309 278.547 257.48C278.451 257.651 278.403 257.888 278.403 258.192V260H277.379ZM282.385 260.096C282.001 260.096 281.654 260.008 281.345 259.832C281.041 259.656 280.798 259.413 280.617 259.104C280.441 258.789 280.353 258.427 280.353 258.016C280.353 257.605 280.444 257.245 280.625 256.936C280.806 256.621 281.049 256.376 281.353 256.2C281.662 256.024 282.009 255.936 282.393 255.936C282.772 255.936 283.113 256.024 283.417 256.2C283.726 256.376 283.969 256.621 284.145 256.936C284.326 257.245 284.417 257.605 284.417 258.016C284.417 258.427 284.326 258.789 284.145 259.104C283.969 259.413 283.726 259.656 283.417 259.832C283.108 260.008 282.764 260.096 282.385 260.096ZM282.385 259.208C282.652 259.208 282.884 259.109 283.081 258.912C283.278 258.709 283.377 258.411 283.377 258.016C283.377 257.621 283.278 257.325 283.081 257.128C282.884 256.925 282.654 256.824 282.393 256.824C282.121 256.824 281.886 256.925 281.689 257.128C281.497 257.325 281.401 257.621 281.401 258.016C281.401 258.411 281.497 258.709 281.689 258.912C281.886 259.109 282.118 259.208 282.385 259.208ZM285.901 255.416C285.714 255.416 285.559 255.36 285.437 255.248C285.319 255.136 285.261 254.995 285.261 254.824C285.261 254.653 285.319 254.515 285.437 254.408C285.559 254.296 285.714 254.24 285.901 254.24C286.087 254.24 286.239 254.296 286.357 254.408C286.479 254.515 286.541 254.653 286.541 254.824C286.541 254.995 286.479 255.136 286.357 255.248C286.239 255.36 286.087 255.416 285.901 255.416ZM284.58 261.76V260.888H284.893C285.069 260.888 285.194 260.853 285.269 260.784C285.343 260.715 285.381 260.597 285.381 260.432V256.032H286.405V260.432C286.405 260.912 286.282 261.253 286.037 261.456C285.797 261.659 285.469 261.76 285.053 261.76H284.58ZM289.401 260.096C289.001 260.096 288.646 260.011 288.337 259.84C288.028 259.669 287.785 259.429 287.609 259.12C287.433 258.811 287.345 258.453 287.345 258.048C287.345 257.637 287.43 257.272 287.601 256.952C287.777 256.632 288.017 256.384 288.321 256.208C288.63 256.027 288.993 255.936 289.409 255.936C289.798 255.936 290.142 256.021 290.441 256.192C290.74 256.363 290.972 256.597 291.137 256.896C291.308 257.189 291.393 257.517 291.393 257.88C291.393 257.939 291.39 258 291.385 258.064C291.385 258.128 291.382 258.195 291.377 258.264H288.361C288.382 258.573 288.489 258.816 288.681 258.992C288.878 259.168 289.116 259.256 289.393 259.256C289.601 259.256 289.774 259.211 289.913 259.12C290.057 259.024 290.164 258.901 290.233 258.752H291.273C291.198 259.003 291.073 259.232 290.897 259.44C290.726 259.643 290.513 259.803 290.257 259.92C290.006 260.037 289.721 260.096 289.401 260.096ZM289.409 256.768C289.158 256.768 288.937 256.84 288.745 256.984C288.553 257.123 288.43 257.336 288.377 257.624H290.353C290.337 257.363 290.241 257.155 290.065 257C289.889 256.845 289.67 256.768 289.409 256.768ZM294.198 260.096C293.793 260.096 293.436 260.008 293.126 259.832C292.817 259.656 292.572 259.411 292.39 259.096C292.214 258.781 292.126 258.421 292.126 258.016C292.126 257.611 292.214 257.251 292.39 256.936C292.572 256.621 292.817 256.376 293.126 256.2C293.436 256.024 293.793 255.936 294.198 255.936C294.705 255.936 295.132 256.069 295.478 256.336C295.825 256.597 296.046 256.96 296.142 257.424H295.062C295.009 257.232 294.902 257.083 294.742 256.976C294.588 256.864 294.404 256.808 294.19 256.808C293.908 256.808 293.668 256.915 293.47 257.128C293.273 257.341 293.174 257.637 293.174 258.016C293.174 258.395 293.273 258.691 293.47 258.904C293.668 259.117 293.908 259.224 294.19 259.224C294.404 259.224 294.588 259.171 294.742 259.064C294.902 258.957 295.009 258.805 295.062 258.608H296.142C296.046 259.056 295.825 259.416 295.478 259.688C295.132 259.96 294.705 260.096 294.198 260.096ZM298.765 260C298.349 260 298.015 259.899 297.765 259.696C297.514 259.493 297.389 259.133 297.389 258.616V256.888H296.709V256.032H297.389L297.509 254.968H298.413V256.032H299.485V256.888H298.413V258.624C298.413 258.816 298.453 258.949 298.533 259.024C298.618 259.093 298.762 259.128 298.965 259.128H299.461V260H298.765ZM302.004 260.096C301.652 260.096 301.342 260.04 301.076 259.928C300.809 259.811 300.596 259.651 300.436 259.448C300.276 259.245 300.18 259.011 300.148 258.744H301.18C301.212 258.899 301.297 259.032 301.436 259.144C301.58 259.251 301.764 259.304 301.988 259.304C302.212 259.304 302.374 259.259 302.476 259.168C302.582 259.077 302.636 258.973 302.636 258.856C302.636 258.685 302.561 258.571 302.412 258.512C302.262 258.448 302.054 258.387 301.788 258.328C301.617 258.291 301.444 258.245 301.268 258.192C301.092 258.139 300.929 258.072 300.78 257.992C300.636 257.907 300.518 257.8 300.428 257.672C300.337 257.539 300.292 257.376 300.292 257.184C300.292 256.832 300.43 256.536 300.708 256.296C300.99 256.056 301.385 255.936 301.892 255.936C302.361 255.936 302.734 256.045 303.012 256.264C303.294 256.483 303.462 256.784 303.516 257.168H302.548C302.489 256.875 302.268 256.728 301.884 256.728C301.692 256.728 301.542 256.765 301.436 256.84C301.334 256.915 301.284 257.008 301.284 257.12C301.284 257.237 301.361 257.331 301.516 257.4C301.67 257.469 301.876 257.533 302.132 257.592C302.409 257.656 302.662 257.728 302.892 257.808C303.126 257.883 303.313 257.997 303.452 258.152C303.59 258.301 303.66 258.517 303.66 258.8C303.665 259.045 303.601 259.267 303.468 259.464C303.334 259.661 303.142 259.816 302.892 259.928C302.641 260.04 302.345 260.096 302.004 260.096Z" fill="#434343"/>
<rect x="131.43" y="250.096" width="100" height="25" rx="5" fill="#D2D5EE"/>
<path d="M141 264.25C140.901 264.25 140.804 264.279 140.722 264.334C140.64 264.389 140.576 264.467 140.538 264.559C140.5 264.65 140.49 264.751 140.51 264.848C140.529 264.945 140.577 265.034 140.646 265.104C140.716 265.173 140.805 265.221 140.902 265.24C140.999 265.26 141.1 265.25 141.191 265.212C141.283 265.174 141.361 265.11 141.416 265.028C141.471 264.946 141.5 264.849 141.5 264.75C141.5 264.617 141.447 264.49 141.354 264.396C141.26 264.303 141.133 264.25 141 264.25V264.25ZM143 257C141 257 139 257.685 139 259V265C139 266.315 141 267 143 267C145 267 147 266.315 147 265V259C147 257.685 145 257 143 257ZM146 265C146 265.355 144.86 266 143 266C141.14 266 140 265.355 140 265V263.365C140.936 263.81 141.964 264.028 143 264C144.036 264.028 145.064 263.81 146 263.365V265ZM146 262C146 262.355 144.86 263 143 263C141.14 263 140 262.355 140 262V260.365C140.936 260.81 141.964 261.028 143 261C144.036 261.028 145.064 260.81 146 260.365V262ZM143 260C141.14 260 140 259.355 140 259C140 258.645 141.14 258 143 258C144.86 258 146 258.645 146 259C146 259.355 144.86 260 143 260ZM141 261.25C140.901 261.25 140.804 261.279 140.722 261.334C140.64 261.389 140.576 261.467 140.538 261.559C140.5 261.65 140.49 261.751 140.51 261.848C140.529 261.945 140.577 262.034 140.646 262.104C140.716 262.173 140.805 262.221 140.902 262.24C140.999 262.26 141.1 262.25 141.191 262.212C141.283 262.174 141.361 262.11 141.416 262.028C141.471 261.946 141.5 261.849 141.5 261.75C141.5 261.617 141.447 261.49 141.354 261.396C141.26 261.303 141.133 261.25 141 261.25V261.25Z" fill="#1E56A0"/>
<path d="M154.752 265V259.4H157.056C157.552 259.4 157.976 259.48 158.328 259.64C158.685 259.8 158.96 260.029 159.152 260.328C159.344 260.627 159.44 260.981 159.44 261.392C159.44 261.803 159.344 262.157 159.152 262.456C158.96 262.755 158.685 262.984 158.328 263.144C157.976 263.304 157.552 263.384 157.056 263.384H155.328L155.792 262.896V265H154.752ZM155.792 263.008L155.328 262.504H157.008C157.467 262.504 157.811 262.408 158.04 262.216C158.275 262.019 158.392 261.744 158.392 261.392C158.392 261.035 158.275 260.76 158.04 260.568C157.811 260.376 157.467 260.28 157.008 260.28H155.328L155.792 259.768V263.008ZM160.184 265V260.728H161.136V261.904L161.024 261.56C161.152 261.272 161.352 261.053 161.624 260.904C161.901 260.755 162.245 260.68 162.656 260.68V261.632C162.613 261.621 162.573 261.616 162.536 261.616C162.498 261.611 162.461 261.608 162.424 261.608C162.045 261.608 161.744 261.72 161.52 261.944C161.296 262.163 161.184 262.491 161.184 262.928V265H160.184ZM165.225 265.056C164.787 265.056 164.398 264.963 164.057 264.776C163.715 264.584 163.446 264.323 163.249 263.992C163.051 263.661 162.953 263.285 162.953 262.864C162.953 262.437 163.051 262.061 163.249 261.736C163.446 261.405 163.715 261.147 164.057 260.96C164.398 260.773 164.787 260.68 165.225 260.68C165.667 260.68 166.059 260.773 166.401 260.96C166.747 261.147 167.017 261.403 167.209 261.728C167.406 262.053 167.505 262.432 167.505 262.864C167.505 263.285 167.406 263.661 167.209 263.992C167.017 264.323 166.747 264.584 166.401 264.776C166.059 264.963 165.667 265.056 165.225 265.056ZM165.225 264.2C165.47 264.2 165.689 264.147 165.881 264.04C166.073 263.933 166.222 263.779 166.329 263.576C166.441 263.373 166.497 263.136 166.497 262.864C166.497 262.587 166.441 262.349 166.329 262.152C166.222 261.949 166.073 261.795 165.881 261.688C165.689 261.581 165.473 261.528 165.233 261.528C164.987 261.528 164.769 261.581 164.577 261.688C164.39 261.795 164.241 261.949 164.129 262.152C164.017 262.349 163.961 262.587 163.961 262.864C163.961 263.136 164.017 263.373 164.129 263.576C164.241 263.779 164.39 263.933 164.577 264.04C164.769 264.147 164.985 264.2 165.225 264.2ZM167.861 266.608C167.674 266.608 167.498 266.587 167.333 266.544C167.162 266.507 167.018 266.445 166.901 266.36L167.189 265.616C167.344 265.728 167.538 265.784 167.773 265.784C167.954 265.784 168.096 265.725 168.197 265.608C168.298 265.496 168.349 265.328 168.349 265.104V260.728H169.349V265.08C169.349 265.549 169.218 265.92 168.957 266.192C168.701 266.469 168.336 266.608 167.861 266.608ZM168.845 260.024C168.658 260.024 168.504 259.965 168.381 259.848C168.264 259.731 168.205 259.589 168.205 259.424C168.205 259.253 168.264 259.112 168.381 259C168.504 258.883 168.658 258.824 168.845 258.824C169.032 258.824 169.184 258.88 169.301 258.992C169.424 259.099 169.485 259.235 169.485 259.4C169.485 259.576 169.426 259.725 169.309 259.848C169.192 259.965 169.037 260.024 168.845 260.024ZM172.508 265.056C172.034 265.056 171.618 264.963 171.26 264.776C170.908 264.584 170.634 264.323 170.436 263.992C170.244 263.661 170.148 263.285 170.148 262.864C170.148 262.437 170.242 262.061 170.428 261.736C170.62 261.405 170.882 261.147 171.212 260.96C171.548 260.773 171.93 260.68 172.356 260.68C172.772 260.68 173.143 260.771 173.468 260.952C173.794 261.133 174.05 261.389 174.236 261.72C174.423 262.051 174.516 262.44 174.516 262.888C174.516 262.931 174.514 262.979 174.508 263.032C174.508 263.085 174.506 263.136 174.5 263.184H170.94V262.52H173.972L173.58 262.728C173.586 262.483 173.535 262.267 173.428 262.08C173.322 261.893 173.175 261.747 172.988 261.64C172.807 261.533 172.596 261.48 172.356 261.48C172.111 261.48 171.895 261.533 171.708 261.64C171.527 261.747 171.383 261.896 171.276 262.088C171.175 262.275 171.124 262.496 171.124 262.752V262.912C171.124 263.168 171.183 263.395 171.3 263.592C171.418 263.789 171.583 263.941 171.796 264.048C172.01 264.155 172.255 264.208 172.532 264.208C172.772 264.208 172.988 264.171 173.18 264.096C173.372 264.021 173.543 263.904 173.692 263.744L174.228 264.36C174.036 264.584 173.794 264.757 173.5 264.88C173.212 264.997 172.882 265.056 172.508 265.056ZM177.277 265.056C176.829 265.056 176.429 264.963 176.077 264.776C175.73 264.584 175.458 264.323 175.261 263.992C175.064 263.661 174.965 263.285 174.965 262.864C174.965 262.437 175.064 262.061 175.261 261.736C175.458 261.405 175.73 261.147 176.077 260.96C176.429 260.773 176.829 260.68 177.277 260.68C177.693 260.68 178.058 260.765 178.373 260.936C178.693 261.101 178.936 261.347 179.101 261.672L178.333 262.12C178.205 261.917 178.048 261.768 177.861 261.672C177.68 261.576 177.482 261.528 177.269 261.528C177.024 261.528 176.802 261.581 176.605 261.688C176.408 261.795 176.253 261.949 176.141 262.152C176.029 262.349 175.973 262.587 175.973 262.864C175.973 263.141 176.029 263.381 176.141 263.584C176.253 263.781 176.408 263.933 176.605 264.04C176.802 264.147 177.024 264.2 177.269 264.2C177.482 264.2 177.68 264.152 177.861 264.056C178.048 263.96 178.205 263.811 178.333 263.608L179.101 264.056C178.936 264.376 178.693 264.624 178.373 264.8C178.058 264.971 177.693 265.056 177.277 265.056ZM181.468 265.056C180.999 265.056 180.636 264.936 180.38 264.696C180.124 264.451 179.996 264.091 179.996 263.616V259.784H180.996V263.592C180.996 263.795 181.047 263.952 181.148 264.064C181.255 264.176 181.401 264.232 181.588 264.232C181.812 264.232 181.999 264.173 182.148 264.056L182.428 264.768C182.311 264.864 182.167 264.936 181.996 264.984C181.825 265.032 181.649 265.056 181.468 265.056ZM179.292 261.56V260.76H182.14V261.56H179.292ZM184.411 265.056C184.053 265.056 183.709 265.011 183.379 264.92C183.053 264.824 182.795 264.709 182.603 264.576L182.987 263.816C183.179 263.939 183.408 264.04 183.675 264.12C183.941 264.2 184.208 264.24 184.475 264.24C184.789 264.24 185.016 264.197 185.155 264.112C185.299 264.027 185.371 263.912 185.371 263.768C185.371 263.651 185.323 263.563 185.227 263.504C185.131 263.44 185.005 263.392 184.851 263.36C184.696 263.328 184.523 263.299 184.331 263.272C184.144 263.245 183.955 263.211 183.763 263.168C183.576 263.12 183.405 263.053 183.251 262.968C183.096 262.877 182.971 262.757 182.875 262.608C182.779 262.459 182.731 262.261 182.731 262.016C182.731 261.744 182.808 261.509 182.963 261.312C183.117 261.109 183.333 260.955 183.611 260.848C183.893 260.736 184.227 260.68 184.611 260.68C184.899 260.68 185.189 260.712 185.483 260.776C185.776 260.84 186.019 260.931 186.211 261.048L185.827 261.808C185.624 261.685 185.419 261.603 185.211 261.56C185.008 261.512 184.805 261.488 184.603 261.488C184.299 261.488 184.072 261.533 183.923 261.624C183.779 261.715 183.707 261.829 183.707 261.968C183.707 262.096 183.755 262.192 183.851 262.256C183.947 262.32 184.072 262.371 184.227 262.408C184.381 262.445 184.552 262.477 184.739 262.504C184.931 262.525 185.12 262.56 185.307 262.608C185.493 262.656 185.664 262.723 185.819 262.808C185.979 262.888 186.107 263.003 186.203 263.152C186.299 263.301 186.347 263.496 186.347 263.736C186.347 264.003 186.267 264.235 186.107 264.432C185.952 264.629 185.731 264.784 185.443 264.896C185.155 265.003 184.811 265.056 184.411 265.056Z" fill="#1E56A0"/>
<g filter="url(#filter1_d_303_1692)">
<path fill-rule="evenodd" clip-rule="evenodd" d="M243.71 273.958C243.71 275.362 244.848 276.5 246.251 276.5H301.533C302.936 276.5 304.074 275.362 304.074 273.958V248.542C304.074 247.138 302.936 246 301.533 246H246.251C244.848 246 243.71 247.138 243.71 248.542V255.231C243.71 256.135 243.229 256.971 242.448 257.427L239.261 259.285C237.579 260.266 237.579 262.696 239.261 263.677L242.448 265.535C243.229 265.991 243.71 266.827 243.71 267.731V273.958Z" fill="#1C1E23"/>
</g>
<path d="M254.078 263.156L255.912 257.941H256.934L258.768 263.156H257.886L257.487 261.987H255.366L254.96 263.156H254.078ZM255.604 261.252H257.235L256.311 258.522H256.542L255.604 261.252ZM260.783 263.24C260.419 263.24 260.092 263.154 259.803 262.981C259.518 262.804 259.292 262.566 259.124 262.267C258.961 261.969 258.879 261.633 258.879 261.259C258.879 260.886 258.963 260.55 259.131 260.251C259.299 259.953 259.525 259.717 259.81 259.544C260.095 259.372 260.417 259.285 260.776 259.285C261.079 259.285 261.348 259.346 261.581 259.467C261.814 259.589 261.999 259.757 262.134 259.971L262.015 260.153V257.857H262.799V263.156H262.05V262.386L262.141 262.533C262.01 262.762 261.824 262.937 261.581 263.058C261.338 263.18 261.072 263.24 260.783 263.24ZM260.86 262.505C261.079 262.505 261.275 262.452 261.448 262.344C261.625 262.237 261.763 262.09 261.861 261.903C261.964 261.712 262.015 261.497 262.015 261.259C262.015 261.021 261.964 260.809 261.861 260.622C261.763 260.436 261.625 260.289 261.448 260.181C261.275 260.074 261.079 260.02 260.86 260.02C260.641 260.02 260.442 260.074 260.265 260.181C260.088 260.289 259.95 260.436 259.852 260.622C259.754 260.809 259.705 261.021 259.705 261.259C259.705 261.497 259.754 261.712 259.852 261.903C259.95 262.09 260.085 262.237 260.258 262.344C260.435 262.452 260.636 262.505 260.86 262.505ZM265.332 263.24C264.968 263.24 264.642 263.154 264.352 262.981C264.068 262.804 263.841 262.566 263.673 262.267C263.51 261.969 263.428 261.633 263.428 261.259C263.428 260.886 263.512 260.55 263.68 260.251C263.848 259.953 264.075 259.717 264.359 259.544C264.644 259.372 264.966 259.285 265.325 259.285C265.629 259.285 265.897 259.346 266.13 259.467C266.364 259.589 266.548 259.757 266.683 259.971L266.564 260.153V257.857H267.348V263.156H266.599V262.386L266.69 262.533C266.56 262.762 266.373 262.937 266.13 263.058C265.888 263.18 265.622 263.24 265.332 263.24ZM265.409 262.505C265.629 262.505 265.825 262.452 265.997 262.344C266.175 262.237 266.312 262.09 266.41 261.903C266.513 261.712 266.564 261.497 266.564 261.259C266.564 261.021 266.513 260.809 266.41 260.622C266.312 260.436 266.175 260.289 265.997 260.181C265.825 260.074 265.629 260.02 265.409 260.02C265.19 260.02 264.992 260.074 264.814 260.181C264.637 260.289 264.499 260.436 264.401 260.622C264.303 260.809 264.254 261.021 264.254 261.259C264.254 261.497 264.303 261.712 264.401 261.903C264.499 262.09 264.635 262.237 264.807 262.344C264.985 262.452 265.185 262.505 265.409 262.505ZM269.292 263.156V257.941H271.189C271.539 257.941 271.847 258.007 272.113 258.137C272.384 258.263 272.594 258.45 272.743 258.697C272.893 258.94 272.967 259.232 272.967 259.572C272.967 259.908 272.89 260.198 272.736 260.44C272.587 260.683 272.379 260.87 272.113 261C271.847 261.131 271.539 261.196 271.189 261.196H270.118V263.156H269.292ZM270.118 260.461H271.21C271.397 260.461 271.56 260.424 271.7 260.349C271.84 260.275 271.95 260.172 272.029 260.041C272.109 259.906 272.148 259.747 272.148 259.565C272.148 259.383 272.109 259.227 272.029 259.096C271.95 258.961 271.84 258.858 271.7 258.788C271.56 258.714 271.397 258.676 271.21 258.676H270.118V260.461ZM273.601 263.156V259.369H274.357V260.132L274.287 260.02C274.371 259.773 274.506 259.596 274.693 259.488C274.88 259.376 275.104 259.32 275.365 259.32H275.596V260.041H275.267C275.006 260.041 274.793 260.123 274.63 260.286C274.471 260.445 274.392 260.674 274.392 260.972V263.156H273.601ZM277.824 263.24C277.46 263.24 277.126 263.154 276.823 262.981C276.524 262.809 276.286 262.573 276.109 262.274C275.932 261.976 275.843 261.637 275.843 261.259C275.843 260.877 275.932 260.538 276.109 260.244C276.286 259.946 276.524 259.712 276.823 259.544C277.122 259.372 277.455 259.285 277.824 259.285C278.197 259.285 278.531 259.372 278.825 259.544C279.124 259.712 279.359 259.946 279.532 260.244C279.709 260.538 279.798 260.877 279.798 261.259C279.798 261.642 279.709 261.983 279.532 262.281C279.355 262.58 279.117 262.816 278.818 262.988C278.519 263.156 278.188 263.24 277.824 263.24ZM277.824 262.505C278.048 262.505 278.246 262.452 278.419 262.344C278.592 262.237 278.727 262.09 278.825 261.903C278.928 261.712 278.979 261.497 278.979 261.259C278.979 261.021 278.928 260.809 278.825 260.622C278.727 260.436 278.592 260.289 278.419 260.181C278.246 260.074 278.048 260.02 277.824 260.02C277.605 260.02 277.406 260.074 277.229 260.181C277.056 260.289 276.919 260.436 276.816 260.622C276.718 260.809 276.669 261.021 276.669 261.259C276.669 261.497 276.718 261.712 276.816 261.903C276.919 262.09 277.056 262.237 277.229 262.344C277.406 262.452 277.605 262.505 277.824 262.505ZM279.849 264.703C279.798 264.703 279.742 264.699 279.681 264.689C279.616 264.685 279.562 264.678 279.52 264.668V263.982C279.609 263.996 279.698 264.003 279.786 264.003C279.982 264.003 280.139 263.952 280.255 263.849C280.372 263.751 280.43 263.602 280.43 263.401V259.369H281.221V263.401C281.221 263.677 281.163 263.912 281.046 264.108C280.93 264.304 280.769 264.451 280.563 264.549C280.358 264.652 280.12 264.703 279.849 264.703ZM280.43 258.851V257.941H281.221V258.851H280.43ZM283.784 263.24C283.406 263.24 283.07 263.154 282.776 262.981C282.487 262.804 282.26 262.566 282.097 262.267C281.934 261.964 281.852 261.626 281.852 261.252C281.852 260.87 281.934 260.531 282.097 260.237C282.265 259.943 282.489 259.712 282.769 259.544C283.049 259.372 283.366 259.285 283.721 259.285C284.006 259.285 284.26 259.334 284.484 259.432C284.708 259.53 284.897 259.666 285.051 259.838C285.205 260.006 285.322 260.2 285.401 260.419C285.485 260.639 285.527 260.872 285.527 261.119C285.527 261.18 285.525 261.243 285.52 261.308C285.515 261.374 285.506 261.434 285.492 261.49H282.475V260.86H285.044L284.666 261.147C284.713 260.919 284.696 260.716 284.617 260.538C284.542 260.356 284.426 260.214 284.267 260.111C284.113 260.004 283.931 259.95 283.721 259.95C283.511 259.95 283.324 260.004 283.161 260.111C282.998 260.214 282.872 260.363 282.783 260.559C282.694 260.751 282.659 260.984 282.678 261.259C282.655 261.516 282.69 261.74 282.783 261.931C282.881 262.123 283.016 262.272 283.189 262.379C283.366 262.487 283.567 262.54 283.791 262.54C284.02 262.54 284.213 262.489 284.372 262.386C284.535 262.284 284.664 262.151 284.757 261.987L285.401 262.302C285.326 262.48 285.21 262.641 285.051 262.785C284.897 262.925 284.71 263.037 284.491 263.121C284.276 263.201 284.041 263.24 283.784 263.24ZM287.958 263.24C287.58 263.24 287.244 263.154 286.95 262.981C286.661 262.804 286.43 262.566 286.257 262.267C286.089 261.969 286.005 261.63 286.005 261.252C286.005 260.879 286.089 260.543 286.257 260.244C286.425 259.946 286.656 259.712 286.95 259.544C287.244 259.372 287.58 259.285 287.958 259.285C288.215 259.285 288.455 259.332 288.679 259.425C288.903 259.514 289.097 259.638 289.26 259.796C289.428 259.955 289.552 260.139 289.631 260.349L288.938 260.671C288.859 260.475 288.73 260.319 288.553 260.202C288.38 260.081 288.182 260.02 287.958 260.02C287.743 260.02 287.55 260.074 287.377 260.181C287.209 260.284 287.076 260.431 286.978 260.622C286.88 260.809 286.831 261.021 286.831 261.259C286.831 261.497 286.88 261.712 286.978 261.903C287.076 262.09 287.209 262.237 287.377 262.344C287.55 262.452 287.743 262.505 287.958 262.505C288.187 262.505 288.385 262.447 288.553 262.33C288.726 262.209 288.854 262.048 288.938 261.847L289.631 262.176C289.556 262.377 289.435 262.559 289.267 262.722C289.104 262.881 288.91 263.007 288.686 263.1C288.462 263.194 288.219 263.24 287.958 263.24ZM291.902 263.198C291.505 263.198 291.197 263.086 290.978 262.862C290.759 262.638 290.649 262.323 290.649 261.917V260.083H289.984V259.369H290.089C290.266 259.369 290.404 259.318 290.502 259.215C290.6 259.113 290.649 258.973 290.649 258.795V258.501H291.44V259.369H292.301V260.083H291.44V261.882C291.44 262.013 291.461 262.125 291.503 262.218C291.545 262.307 291.613 262.377 291.706 262.428C291.799 262.475 291.921 262.498 292.07 262.498C292.107 262.498 292.149 262.496 292.196 262.491C292.243 262.487 292.287 262.482 292.329 262.477V263.156C292.264 263.166 292.191 263.175 292.112 263.184C292.033 263.194 291.963 263.198 291.902 263.198ZM294.361 263.24C293.974 263.24 293.633 263.145 293.339 262.953C293.05 262.762 292.847 262.505 292.73 262.183L293.339 261.896C293.442 262.111 293.582 262.281 293.759 262.407C293.941 262.533 294.142 262.596 294.361 262.596C294.548 262.596 294.699 262.554 294.816 262.47C294.933 262.386 294.991 262.272 294.991 262.127C294.991 262.034 294.965 261.959 294.914 261.903C294.863 261.843 294.797 261.794 294.718 261.756C294.643 261.719 294.566 261.691 294.487 261.672L293.892 261.504C293.565 261.411 293.32 261.271 293.157 261.084C292.998 260.893 292.919 260.671 292.919 260.419C292.919 260.191 292.977 259.992 293.094 259.824C293.211 259.652 293.372 259.519 293.577 259.425C293.782 259.332 294.013 259.285 294.27 259.285C294.615 259.285 294.923 259.372 295.194 259.544C295.465 259.712 295.656 259.948 295.768 260.251L295.159 260.538C295.084 260.356 294.965 260.212 294.802 260.104C294.643 259.997 294.464 259.943 294.263 259.943C294.09 259.943 293.953 259.985 293.85 260.069C293.747 260.149 293.696 260.254 293.696 260.384C293.696 260.473 293.719 260.548 293.766 260.608C293.813 260.664 293.873 260.711 293.948 260.748C294.023 260.781 294.1 260.809 294.179 260.832L294.795 261.014C295.108 261.103 295.348 261.243 295.516 261.434C295.684 261.621 295.768 261.845 295.768 262.106C295.768 262.33 295.707 262.529 295.586 262.701C295.469 262.869 295.306 263.002 295.096 263.1C294.886 263.194 294.641 263.24 294.361 263.24Z" fill="white"/>
<rect x="506" y="249" width="60" height="24" rx="3" fill="#F7F4F4"/>
<rect x="572" y="249" width="60" height="24" rx="2" fill="#E7E6FF"/>
<line x1="272.604" y1="329.75" x2="632.604" y2="329.75" stroke="#E2E8F0" stroke-opacity="0.5" stroke-width="0.5"/>
<rect x="273" y="309" width="75" height="9" rx="3" fill="#F6F6F6"/>
<rect x="273" y="294" width="93" height="12" rx="3" fill="#EEEEEE"/>
<rect opacity="0.4" x="393.847" y="294.438" width="45" height="10" rx="5" fill="#D9DBE9"/>
<rect opacity="0.4" x="458.847" y="294.438" width="45" height="10" rx="5" fill="#D9DBE9"/>
<rect x="564" y="293" width="20" height="20" rx="3" fill="#F7F4F4"/>
<line x1="272.604" y1="375.75" x2="632.604" y2="375.75" stroke="#E2E8F0" stroke-opacity="0.5" stroke-width="0.5"/>
<rect x="273" y="355" width="75" height="9" rx="3" fill="#F6F6F6"/>
<rect x="273" y="340" width="93" height="12" rx="3" fill="#EEEEEE"/>
<rect opacity="0.4" x="393.847" y="340.438" width="45" height="10" rx="5" fill="#D9DBE9"/>
<rect opacity="0.4" x="458.847" y="340.438" width="45" height="10" rx="5" fill="#D9DBE9"/>
<rect x="564" y="339" width="20" height="20" rx="3" fill="#F7F4F4"/>
<line x1="272.604" y1="421.75" x2="632.604" y2="421.75" stroke="#E2E8F0" stroke-opacity="0.5" stroke-width="0.5"/>
<rect x="273" y="401" width="75" height="9" rx="3" fill="#F6F6F6"/>
<rect x="273" y="386" width="93" height="12" rx="3" fill="#EEEEEE"/>
<rect opacity="0.4" x="393.847" y="386.438" width="45" height="10" rx="5" fill="#D9DBE9"/>
<rect opacity="0.4" x="458.847" y="386.438" width="45" height="10" rx="5" fill="#D9DBE9"/>
<rect x="564" y="385" width="20" height="20" rx="3" fill="#F7F4F4"/>
<line x1="89.6035" y1="193.5" x2="678.604" y2="193.5" stroke="#E2E8F0"/>
</g>
</g>
<defs>
<filter id="filter0_d_303_1692" x="37" y="77" width="693.604" height="538" filterUnits="userSpaceOnUse" color-interpolation-filters="sRGB">
<feFlood flood-opacity="0" result="BackgroundImageFix"/>
<feColorMatrix in="SourceAlpha" type="matrix" values="0 0 0 0 0 0 0 0 0 0 0 0 0 0 0 0 0 0 127 0" result="hardAlpha"/>
<feOffset dy="18"/>
<feGaussianBlur stdDeviation="20"/>
<feComposite in2="hardAlpha" operator="out"/>
<feColorMatrix type="matrix" values="0 0 0 0 0.439216 0 0 0 0 0.564706 0 0 0 0 0.690196 0 0 0 0.32 0"/>
<feBlend mode="normal" in2="BackgroundImageFix" result="effect1_dropShadow_303_1692"/>
<feBlend mode="normal" in="SourceGraphic" in2="effect1_dropShadow_303_1692" result="shape"/>
</filter>
<filter id="filter1_d_303_1692" x="222.75" y="244.729" width="96.5742" height="61" filterUnits="userSpaceOnUse" color-interpolation-filters="sRGB">
<feFlood flood-opacity="0" result="BackgroundImageFix"/>
<feColorMatrix in="SourceAlpha" type="matrix" values="0 0 0 0 0 0 0 0 0 0 0 0 0 0 0 0 0 0 127 0" result="hardAlpha"/>
<feOffset dy="13.9792"/>
<feGaussianBlur stdDeviation="7.625"/>
<feComposite in2="hardAlpha" operator="out"/>
<feColorMatrix type="matrix" values="0 0 0 0 0 0 0 0 0 0 0 0 0 0 0 0 0 0 0.25 0"/>
<feBlend mode="normal" in2="BackgroundImageFix" result="effect1_dropShadow_303_1692"/>
<feBlend mode="normal" in="SourceGraphic" in2="effect1_dropShadow_303_1692" result="shape"/>
</filter>
<linearGradient id="paint0_linear_303_1692" x1="238" y1="147" x2="238" y2="187" gradientUnits="userSpaceOnUse">
<stop stop-color="#EEECFA" stop-opacity="0"/>
<stop offset="0.514425" stop-color="#F9F9F9"/>
<stop offset="1" stop-color="#EEECFA" stop-opacity="0"/>
</linearGradient>
<clipPath id="clip0_303_1692">
<rect width="588" height="536" fill="white"/>
</clipPath>
</defs>
</svg>
