<svg width="81" height="81" viewBox="0 0 81 81" fill="none" xmlns="http://www.w3.org/2000/svg">
<g clip-path="url(#clip0)">
<g filter="url(#filter0_d)">
<path d="M62.0156 77.2031H18.9844C16.9704 77.2031 15.0389 76.4031 13.6148 74.979C12.1907 73.5549 11.3906 71.6234 11.3906 69.6094V11.3906C11.3906 9.37664 12.1907 7.44514 13.6148 6.02103C15.0389 4.59693 16.9704 3.79688 18.9844 3.79688H54.4219L69.6094 18.9844V69.6094C69.6094 71.6234 68.8093 73.5549 67.3852 74.979C65.9611 76.4031 64.0296 77.2031 62.0156 77.2031Z" fill="#F5F6F8"/>
</g>
<path d="M22.7812 25.3125H58.2188V45.5625H22.7812V25.3125Z" fill="#5B9951"/>
<path d="M34.1719 31.6406H58.2188V45.5625H34.1719V31.6406Z" fill="#9BD491"/>
<path d="M11.3906 56.9531H69.6094V69.6094C69.6094 71.6234 68.8093 73.5549 67.3852 74.979C65.9611 76.4031 64.0296 77.2031 62.0156 77.2031H18.9844C16.9704 77.2031 15.0389 76.4031 13.6148 74.979C12.1907 73.5549 11.3906 71.6234 11.3906 69.6094V56.9531Z" fill="#5B9951"/>
<path d="M69.6094 18.9844H62.0156C60.0016 18.9844 58.0701 18.1843 56.646 16.7602C55.2219 15.3361 54.4219 13.4046 54.4219 11.3906V3.79688L69.6094 18.9844Z" fill="#9BD491"/>
<path d="M41.1924 69.7437H37.8197V61.8742C37.8197 61.5761 37.7013 61.2901 37.4904 61.0793C37.2796 60.8684 36.9937 60.75 36.6955 60.75C36.3973 60.75 36.1114 60.8684 35.9006 61.0793C35.6897 61.2901 35.5713 61.5761 35.5713 61.8742V70.8679C35.5713 71.1661 35.6897 71.452 35.9006 71.6629C36.1114 71.8737 36.3973 71.9922 36.6955 71.9922H41.1924C41.4905 71.9922 41.7765 71.8737 41.9873 71.6629C42.1981 71.452 42.3166 71.1661 42.3166 70.8679C42.3166 70.5698 42.1981 70.2838 41.9873 70.073C41.7765 69.8622 41.4905 69.7437 41.1924 69.7437Z" fill="white"/>
<path d="M32.7015 60.8688C32.4349 60.7354 32.1261 60.7135 31.8433 60.8077C31.5604 60.902 31.3266 61.1048 31.1933 61.3714L29.9503 63.8573L28.7073 61.3714C28.5726 61.1072 28.3389 60.9068 28.0571 60.8142C27.7753 60.7215 27.4683 60.7439 27.203 60.8766C26.9376 61.0092 26.7355 61.2414 26.6406 61.5225C26.5457 61.8035 26.5658 62.1107 26.6964 62.377L28.6934 66.3711L26.6964 70.3651C26.629 70.4973 26.5884 70.6415 26.577 70.7895C26.5657 70.9374 26.5837 71.0861 26.63 71.2271C26.6764 71.368 26.7502 71.4984 26.8472 71.6107C26.9442 71.723 27.0624 71.8149 27.1951 71.8813C27.3278 71.9477 27.4724 71.9871 27.6204 71.9973C27.7684 72.0076 27.917 71.9884 28.0575 71.9409C28.1981 71.8935 28.3279 71.8187 28.4394 71.7208C28.551 71.6229 28.642 71.504 28.7073 71.3708L29.9503 68.8848L31.1933 71.3708C31.2586 71.504 31.3496 71.6229 31.4612 71.7208C31.5727 71.8187 31.7025 71.8935 31.843 71.9409C31.9836 71.9884 32.1322 72.0076 32.2802 71.9973C32.4282 71.9871 32.5728 71.9477 32.7055 71.8813C32.8382 71.8149 32.9564 71.723 33.0534 71.6107C33.1504 71.4984 33.2242 71.368 33.2706 71.2271C33.3169 71.0861 33.3349 70.9374 33.3235 70.7895C33.3122 70.6415 33.2716 70.4973 33.2042 70.3651L31.2072 66.3711L33.2042 62.377C33.3375 62.1104 33.3595 61.8017 33.2652 61.5188C33.171 61.2359 32.9682 61.0021 32.7015 60.8688Z" fill="white"/>
<path d="M47.9378 62.9984H50.1863C50.4844 62.9984 50.7704 62.88 50.9812 62.6692C51.192 62.4583 51.3105 62.1724 51.3105 61.8742C51.3105 61.5761 51.192 61.2901 50.9812 61.0793C50.7704 60.8684 50.4844 60.75 50.1863 60.75H47.9378C47.0433 60.75 46.1855 61.1053 45.553 61.7378C44.9205 62.3703 44.5652 63.2282 44.5652 64.1226C44.5652 65.0171 44.9205 65.875 45.553 66.5075C46.1855 67.14 47.0433 67.4953 47.9378 67.4953C48.236 67.4953 48.5219 67.6137 48.7328 67.8246C48.9436 68.0354 49.062 68.3213 49.062 68.6195C49.062 68.9177 48.9436 69.2036 48.7328 69.4144C48.5219 69.6253 48.236 69.7437 47.9378 69.7437H45.6894C45.3912 69.7437 45.1053 69.8622 44.8945 70.073C44.6836 70.2838 44.5652 70.5698 44.5652 70.8679C44.5652 71.1661 44.6836 71.452 44.8945 71.6629C45.1053 71.8737 45.3912 71.9922 45.6894 71.9922H47.9378C48.8323 71.9922 49.6902 71.6368 50.3226 71.0043C50.9551 70.3718 51.3105 69.514 51.3105 68.6195C51.3105 67.725 50.9551 66.8672 50.3226 66.2347C49.6902 65.6022 48.8323 65.2469 47.9378 65.2469C47.6397 65.2469 47.3537 65.1284 47.1429 64.9176C46.9321 64.7068 46.8136 64.4208 46.8136 64.1226C46.8136 63.8245 46.9321 63.5385 47.1429 63.3277C47.3537 63.1169 47.6397 62.9984 47.9378 62.9984Z" fill="white"/>
<path d="M22.7812 30.375H58.2188V32.9062H22.7812V30.375Z" fill="#F3F4FF"/>
<path d="M22.7812 37.9688H58.2188V40.5H22.7812V37.9688Z" fill="#F3F4FF"/>
<path d="M32.9062 25.3125H35.4375V45.5625H32.9062V25.3125Z" fill="#F3F4FF"/>
<path d="M45.5625 25.3125H48.0938V45.5625H45.5625V25.3125Z" fill="#F3F4FF"/>
</g>
<defs>
<filter id="filter0_d" x="6.39062" y="-1.20312" width="68.2188" height="83.4062" filterUnits="userSpaceOnUse" color-interpolation-filters="sRGB">
<feFlood flood-opacity="0" result="BackgroundImageFix"/>
<feColorMatrix in="SourceAlpha" type="matrix" values="0 0 0 0 0 0 0 0 0 0 0 0 0 0 0 0 0 0 127 0"/>
<feOffset/>
<feGaussianBlur stdDeviation="2.5"/>
<feColorMatrix type="matrix" values="0 0 0 0 0 0 0 0 0 0 0 0 0 0 0 0 0 0 0.15 0"/>
<feBlend mode="normal" in2="BackgroundImageFix" result="effect1_dropShadow"/>
<feBlend mode="normal" in="SourceGraphic" in2="effect1_dropShadow" result="shape"/>
</filter>
<clipPath id="clip0">
<rect width="81" height="81" fill="white"/>
</clipPath>
</defs>
</svg>
